<svg width="44" height="44" viewBox="0 0 44 44" fill="none" xmlns="http://www.w3.org/2000/svg">
<rect width="44" height="44" rx="22" fill="#666666" fill-opacity="0.5"></rect>
<path d="M32.5819 14.1023C30.7036 13.9157 28.8253 13.7757 26.9353 13.6707V13.659L26.6786 12.1423C26.5036 11.069 26.2469 9.45898 23.5169 9.45898H20.4603C17.7419 9.45898 17.4853 10.999 17.2986 12.1307L17.0536 13.624C15.9686 13.694 14.8836 13.764 13.7986 13.869L11.4186 14.1023C10.9286 14.149 10.5786 14.5807 10.6253 15.059C10.6719 15.5373 11.0919 15.8873 11.5819 15.8407L13.9619 15.6073C20.0753 15.0007 26.2353 15.234 32.4186 15.8523C32.4536 15.8523 32.4769 15.8523 32.5119 15.8523C32.9553 15.8523 33.3403 15.514 33.3869 15.059C33.4219 14.5807 33.0719 14.149 32.5819 14.1023Z" fill="white"></path>
<path d="M30.435 17.496C30.155 17.2043 29.77 17.041 29.3734 17.041H14.6267C14.23 17.041 13.8334 17.2043 13.565 17.496C13.2967 17.7877 13.145 18.1843 13.1684 18.5927L13.8917 30.5627C14.02 32.336 14.1834 34.5527 18.255 34.5527H25.745C29.8167 34.5527 29.98 32.3477 30.1084 30.5627L30.8317 18.6043C30.855 18.1843 30.7034 17.7877 30.435 17.496ZM23.9367 28.7077H20.0517C19.5734 28.7077 19.1767 28.311 19.1767 27.8327C19.1767 27.3544 19.5734 26.9577 20.0517 26.9577H23.9367C24.415 26.9577 24.8117 27.3544 24.8117 27.8327C24.8117 28.311 24.415 28.7077 23.9367 28.7077ZM24.9167 24.041H19.0834C18.605 24.041 18.2084 23.6443 18.2084 23.166C18.2084 22.6877 18.605 22.291 19.0834 22.291H24.9167C25.395 22.291 25.7917 22.6877 25.7917 23.166C25.7917 23.6443 25.395 24.041 24.9167 24.041Z" fill="white"></path>
</svg>