<svg width="44" height="44" viewBox="0 0 44 44" fill="none" xmlns="http://www.w3.org/2000/svg">
<rect width="44" height="44" rx="22" fill="#666666" fill-opacity="0.5"></rect>
<path d="M26.888 10.334H17.1113C12.8647 10.334 10.333 12.8657 10.333 17.1123V26.889C10.333 31.1357 12.8647 33.6673 17.1113 33.6673H26.888C31.1347 33.6673 33.6663 31.1357 33.6663 26.889V17.1123C33.6663 12.8657 31.1347 10.334 26.888 10.334ZM19.6313 25.384L17.0063 28.009C16.8313 28.184 16.6097 28.2657 16.388 28.2657C16.1663 28.2657 15.933 28.184 15.7697 28.009L14.8947 27.134C14.5447 26.7957 14.5447 26.2357 14.8947 25.8973C15.233 25.559 15.7813 25.559 16.1313 25.8973L16.388 26.154L18.3947 24.1473C18.733 23.809 19.2813 23.809 19.6313 24.1473C19.9697 24.4857 19.9697 25.0457 19.6313 25.384ZM19.6313 17.2173L17.0063 19.8423C16.8313 20.0173 16.6097 20.099 16.388 20.099C16.1663 20.099 15.933 20.0173 15.7697 19.8423L14.8947 18.9673C14.5447 18.629 14.5447 18.069 14.8947 17.7307C15.233 17.3923 15.7813 17.3923 16.1313 17.7307L16.388 17.9873L18.3947 15.9807C18.733 15.6423 19.2813 15.6423 19.6313 15.9807C19.9697 16.319 19.9697 16.879 19.6313 17.2173ZM28.4863 27.3907H22.3613C21.883 27.3907 21.4863 26.994 21.4863 26.5157C21.4863 26.0373 21.883 25.6407 22.3613 25.6407H28.4863C28.9763 25.6407 29.3613 26.0373 29.3613 26.5157C29.3613 26.994 28.9763 27.3907 28.4863 27.3907ZM28.4863 19.224H22.3613C21.883 19.224 21.4863 18.8273 21.4863 18.349C21.4863 17.8707 21.883 17.474 22.3613 17.474H28.4863C28.9763 17.474 29.3613 17.8707 29.3613 18.349C29.3613 18.8273 28.9763 19.224 28.4863 19.224Z" fill="white"></path>
</svg>