<svg width="16" height="16" viewBox="0 0 16 16" fill="none" xmlns="http://www.w3.org/2000/svg">
<path d="M15.5404 1.74102C15.2266 1.67369 14.918 1.87357 14.8508 2.18719L14.4288 4.15675C13.085 1.86433 10.6185 0.425781 7.91525 0.425781C3.75215 0.425781 0.365234 3.81265 0.365234 7.9758C0.365234 8.29653 0.625234 8.55657 0.946005 8.55657C1.26673 8.55657 1.52678 8.29653 1.52678 7.9758C1.52678 4.45317 4.39262 1.58732 7.91525 1.58732C10.2118 1.58732 12.3066 2.81405 13.4407 4.7673L11.5045 4.35235C11.1908 4.28512 10.8821 4.48495 10.8149 4.79857C10.7477 5.11218 10.9475 5.42097 11.2611 5.48815L14.5848 6.20041C14.6413 6.21253 14.6986 6.21602 14.7552 6.21128C14.8493 6.20333 14.9411 6.17244 15.022 6.12012C15.1513 6.03644 15.2421 5.90482 15.2744 5.75424L15.9867 2.43056C16.0538 2.11699 15.854 1.80829 15.5404 1.74102Z" fill="#4C5BD4"/>
<path d="M14.9563 7.21521C14.6358 7.22581 14.3844 7.49426 14.395 7.8148C14.4513 9.52032 13.8402 11.1456 12.674 12.3915C11.5078 13.6372 9.92638 14.3544 8.22091 14.4107C8.14982 14.413 8.07911 14.4142 8.0083 14.4142C5.78297 14.4141 3.73299 13.2584 2.57526 11.3858L4.59388 11.9271C4.90369 12.0101 5.22218 11.8264 5.30525 11.5165C5.38833 11.2067 5.20452 10.8882 4.89472 10.8051L1.61155 9.92482C1.46278 9.885 1.30421 9.90581 1.17086 9.98275C1.03742 10.0597 0.940088 10.1866 0.900177 10.3354L0.0199612 13.6186C-0.0631122 13.9284 0.12069 14.2469 0.430496 14.33C0.480907 14.3435 0.531458 14.35 0.581264 14.35C0.83764 14.35 1.07232 14.1789 1.14187 13.9195L1.63664 12.0741C3.01302 14.2414 5.40882 15.5758 8.00802 15.5757C8.09151 15.5757 8.17547 15.5744 8.25929 15.5716C10.2748 15.505 12.1439 14.6575 13.522 13.1852C14.9002 11.7129 15.6225 9.79208 15.5559 7.77647C15.5454 7.45598 15.2768 7.20383 14.9563 7.21521Z" fill="#4C5BD4"/>
</svg>
