<svg width="16" height="16" viewBox="0 0 16 16" fill="none" xmlns="http://www.w3.org/2000/svg">
<path d="M12.7857 13.8572C12.7857 14.4255 12.5599 14.9706 12.1581 15.3724C11.7562 15.7743 11.2112 16.0001 10.6429 16.0001H3.14286C2.57454 16.0001 2.02949 15.7743 1.62763 15.3724C1.22576 14.9706 1 14.4255 1 13.8572V6.35721C1 5.78889 1.22576 5.24385 1.62763 4.84198C2.02949 4.44012 2.57454 4.21436 3.14286 4.21436V5.28578C2.8587 5.28578 2.58617 5.39867 2.38524 5.5996C2.18431 5.80053 2.07143 6.07305 2.07143 6.35721V13.8572C2.07143 14.1414 2.18431 14.4139 2.38524 14.6148C2.58617 14.8158 2.8587 14.9286 3.14286 14.9286H10.6429C10.927 14.9286 11.1995 14.8158 11.4005 14.6148C11.6014 14.4139 11.7143 14.1414 11.7143 13.8572H12.7857Z" fill="#76B51B"/>
<path d="M6.35721 2.07143C6.07305 2.07143 5.80053 2.18431 5.5996 2.38524C5.39867 2.58617 5.28578 2.8587 5.28578 3.14286V10.6429C5.28578 10.927 5.39867 11.1995 5.5996 11.4005C5.80053 11.6014 6.07305 11.7143 6.35721 11.7143H13.8572C14.1414 11.7143 14.4139 11.6014 14.6148 11.4005C14.8158 11.1995 14.9286 10.927 14.9286 10.6429V3.14286C14.9286 2.8587 14.8158 2.58617 14.6148 2.38524C14.4139 2.18431 14.1414 2.07143 13.8572 2.07143H6.35721ZM6.35721 1H13.8572C14.4255 1 14.9706 1.22576 15.3724 1.62763C15.7743 2.02949 16.0001 2.57454 16.0001 3.14286V10.6429C16.0001 11.2112 15.7743 11.7562 15.3724 12.1581C14.9706 12.5599 14.4255 12.7857 13.8572 12.7857H6.35721C5.78889 12.7857 5.24385 12.5599 4.84198 12.1581C4.44012 11.7562 4.21436 11.2112 4.21436 10.6429V3.14286C4.21436 2.57454 4.44012 2.02949 4.84198 1.62763C5.24385 1.22576 5.78889 1 6.35721 1Z" fill="#76B51B"/>
</svg>
