<svg width="16" height="16" viewBox="0 0 16 16" fill="none" xmlns="http://www.w3.org/2000/svg">
<path d="M11.9372 8.27095C10.96 8.26751 10.0251 8.66998 9.35604 9.38238C8.39371 8.61462 7.19812 8.19852 5.96708 8.20316H5.95738C4.47782 8.2063 3.10484 8.78141 2.08726 9.82809C1.05341 10.8846 0.488092 12.3286 0.491224 13.8954C0.49183 13.9812 0.52547 14.0632 0.584972 14.1247C0.645685 14.1855 0.728321 14.2194 0.81429 14.2185L9.29462 14.2023C9.31401 14.2249 9.33331 14.2443 9.35281 14.267C10.4662 15.4453 12.236 15.7209 13.655 14.937C15.074 14.1531 15.783 12.5085 15.3784 10.9386C14.9738 9.36875 13.5584 8.27145 11.9372 8.27095ZM1.14705 13.5691C1.21494 12.2995 1.706 11.1397 2.54913 10.2772C3.44407 9.35652 4.65552 8.8493 5.95738 8.8493H5.96708C7.05366 8.84505 8.10913 9.21196 8.95862 9.88951C8.24289 10.995 8.19571 12.4053 8.83588 13.5563L1.14705 13.5691ZM11.9372 14.7322C10.3314 14.7322 9.02974 13.4304 9.02974 11.8246C9.02974 10.2189 10.3314 8.91708 11.9372 8.91708C13.5431 8.91708 14.8447 10.2189 14.8447 11.8246C14.8447 13.4304 13.5431 14.7322 11.9372 14.7322Z" fill="#4C5BD4" stroke="#4C5BD4" stroke-width="0.3"/>
<path d="M5.96062 7.43501C7.84649 7.43501 9.37534 5.90615 9.37534 4.02029C9.37534 2.13432 7.84649 0.605469 5.96062 0.605469C4.07476 0.605469 2.5459 2.13432 2.5459 4.02029C2.54772 5.90534 4.07546 7.43319 5.96062 7.43501ZM5.96062 1.2516C7.48978 1.2516 8.72921 2.49123 8.72921 4.02029C8.72921 5.54924 7.48978 6.78888 5.96062 6.78888C4.43156 6.78888 3.19203 5.54924 3.19203 4.02029C3.19385 2.49194 4.43227 1.25352 5.96062 1.2516Z" fill="#4C5BD4" stroke="#4C5BD4" stroke-width="0.3"/>
<path d="M13.026 10.84L11.4655 12.1096L10.8937 11.4409C10.7778 11.3052 10.5739 11.2894 10.4383 11.4053C10.3027 11.5213 10.2868 11.7253 10.4028 11.8609L11.1781 12.7686C11.2396 12.8401 11.3292 12.8814 11.4237 12.8816C11.4976 12.8824 11.5695 12.8572 11.627 12.8106L13.4331 11.3407C13.5694 11.2279 13.5893 11.0261 13.4777 10.8887C13.3659 10.7512 13.1644 10.7296 13.026 10.84Z" fill="#4C5BD4" stroke="#4C5BD4" stroke-width="0.3"/>
</svg>
