<svg width="30" height="30" viewBox="0 0 30 30" fill="none" xmlns="http://www.w3.org/2000/svg">
<path d="M16.3477 11.1797C17.1243 11.1797 17.7539 10.5501 17.7539 9.77344C17.7539 8.99679 17.1243 8.36719 16.3477 8.36719C15.571 8.36719 14.9414 8.99679 14.9414 9.77344C14.9414 10.5501 15.571 11.1797 16.3477 11.1797Z" fill="white"/>
<path d="M10.7227 11.1797C11.4993 11.1797 12.1289 10.5501 12.1289 9.77344C12.1289 8.99679 11.4993 8.36719 10.7227 8.36719C9.94601 8.36719 9.31641 8.99679 9.31641 9.77344C9.31641 10.5501 9.94601 11.1797 10.7227 11.1797Z" fill="white"/>
<path d="M5.09766 11.1797C5.87431 11.1797 6.50391 10.5501 6.50391 9.77344C6.50391 8.99679 5.87431 8.36719 5.09766 8.36719C4.32101 8.36719 3.69141 8.99679 3.69141 9.77344C3.69141 10.5501 4.32101 11.1797 5.09766 11.1797Z" fill="white"/>
<path d="M27.0703 9.29689H21.4453V5.27344C21.4453 3.65801 20.1311 2.34375 18.5156 2.34375H13.3594C13.0358 2.34375 12.7734 2.60607 12.7734 2.92969C12.7734 3.2533 13.0358 3.51562 13.3594 3.51562H18.5156C19.4849 3.51562 20.2734 4.30418 20.2734 5.27344V14.2758C20.2734 15.2451 19.4849 16.0337 18.5156 16.0337H7.78869C7.57939 16.0337 7.38592 16.1453 7.28127 16.3266L5.76937 18.9454L4.25742 16.3266C4.15277 16.1453 3.9593 16.0337 3.75 16.0337H2.92969C1.96043 16.0337 1.17188 15.2451 1.17188 14.2758V5.27344C1.17188 4.30418 1.96043 3.51562 2.92969 3.51562H8.08594C8.40955 3.51562 8.67188 3.2533 8.67188 2.92969C8.67188 2.60607 8.40955 2.34375 8.08594 2.34375H2.92969C1.31426 2.34375 0 3.65801 0 5.27344V14.2758C0 15.8913 1.31426 17.2055 2.92969 17.2055H3.41174L5.26195 20.4102C5.3666 20.5915 5.56008 20.7032 5.76937 20.7032C5.97867 20.7032 6.17215 20.5915 6.2768 20.4102L8.12695 17.2055H8.55469V21.229C8.55469 22.8444 9.86895 24.1587 11.4844 24.1587H19.6737L21.5239 27.3633C21.6286 27.5446 21.8221 27.6562 22.0314 27.6562C22.2407 27.6562 22.4341 27.5446 22.5388 27.3633L24.389 24.1586H27.0703C28.6857 24.1586 30 22.8444 30 21.2289V12.2266C30 10.6111 28.6857 9.29689 27.0703 9.29689V9.29689ZM28.8281 21.2289C28.8281 22.1982 28.0396 22.9867 27.0703 22.9867H24.0507C23.8414 22.9867 23.648 23.0984 23.5433 23.2797L22.0314 25.8984L20.5194 23.2797C20.4148 23.0984 20.2213 22.9867 20.012 22.9867H11.4844C10.5151 22.9867 9.72656 22.1982 9.72656 21.2289V17.2055H18.5156C20.1311 17.2055 21.4453 15.8912 21.4453 14.2758V10.4687H27.0703C28.0396 10.4687 28.8281 11.2573 28.8281 12.2265V21.2289Z" fill="#4C5BD4"/>
<path d="M18.3398 9.77344C18.3398 8.67498 17.4462 7.78125 16.3477 7.78125C15.2491 7.78125 14.3555 8.67498 14.3555 9.77344C14.3555 10.872 15.2491 11.7656 16.3477 11.7656C17.4462 11.7656 18.3398 10.872 18.3398 9.77344ZM15.5273 9.77344C15.5273 9.32109 15.8953 8.95312 16.3477 8.95312C16.8 8.95312 17.168 9.32109 17.168 9.77344C17.168 10.2258 16.8 10.5938 16.3477 10.5938C15.8953 10.5938 15.5273 10.2258 15.5273 9.77344Z" fill="#4C5BD4"/>
<path d="M10.7227 11.7656C11.8212 11.7656 12.7148 10.872 12.7148 9.77344C12.7148 8.67498 11.8212 7.78125 10.7227 7.78125C9.62414 7.78125 8.73047 8.67498 8.73047 9.77344C8.73047 10.872 9.62414 11.7656 10.7227 11.7656ZM10.7227 8.95312C11.175 8.95312 11.543 9.32109 11.543 9.77344C11.543 10.2258 11.175 10.5938 10.7227 10.5938C10.2703 10.5938 9.90234 10.2258 9.90234 9.77344C9.90234 9.32109 10.2703 8.95312 10.7227 8.95312Z" fill="#4C5BD4"/>
<path d="M3.10547 9.77344C3.10547 10.872 3.99914 11.7656 5.09766 11.7656C6.19617 11.7656 7.08984 10.872 7.08984 9.77344C7.08984 8.67498 6.19617 7.78125 5.09766 7.78125C3.99914 7.78125 3.10547 8.67498 3.10547 9.77344ZM5.91797 9.77344C5.91797 10.2258 5.55 10.5938 5.09766 10.5938C4.64531 10.5938 4.27734 10.2258 4.27734 9.77344C4.27734 9.32109 4.64531 8.95312 5.09766 8.95312C5.55 8.95312 5.91797 9.32115 5.91797 9.77344Z" fill="#4C5BD4"/>
<path d="M10.7227 3.51562C10.8768 3.51562 11.0279 3.45293 11.1369 3.34395C11.2459 3.23496 11.3086 3.08379 11.3086 2.92969C11.3086 2.77559 11.2459 2.62441 11.1369 2.51543C11.0279 2.40645 10.8768 2.34375 10.7227 2.34375C10.5686 2.34375 10.4174 2.40645 10.3084 2.51543C10.1994 2.62441 10.1367 2.77559 10.1367 2.92969C10.1367 3.08379 10.1994 3.23496 10.3084 3.34395C10.4174 3.45293 10.5686 3.51562 10.7227 3.51562Z" fill="#4C5BD4"/>
</svg>
