<svg width="16" height="16" viewBox="0 0 16 16" fill="none" xmlns="http://www.w3.org/2000/svg">
<g clip-path="url(#clip0_208:12688)">
<path d="M13.8445 10.4008C13.6382 10.4008 13.4709 10.5687 13.4709 10.7758V14.1051C13.4702 14.7261 12.9689 15.2294 12.3502 15.23H1.8679C1.24916 15.2294 0.74789 14.7261 0.747161 14.1051V4.33382C0.74789 3.71293 1.24916 3.20965 1.8679 3.20892H5.18489C5.39123 3.20892 5.55847 3.04106 5.55847 2.83395C5.55847 2.62699 5.39123 2.45898 5.18489 2.45898H1.8679C0.836762 2.46016 0.00116744 3.29885 0 4.33382V14.1052C0.00116744 15.1402 0.836762 15.9789 1.8679 15.9801H12.3502C13.3813 15.9789 14.2169 15.1402 14.2181 14.1052V10.7758C14.2181 10.5687 14.0509 10.4008 13.8445 10.4008Z" fill="#474747" stroke="#474747" stroke-width="0.3"/>
<path d="M14.0704 1.49423C13.4138 0.835256 12.3494 0.835256 11.6929 1.49423L5.02796 8.18389C4.98228 8.22974 4.9493 8.28657 4.93208 8.34897L4.05562 11.5249C4.01958 11.6551 4.05621 11.7946 4.15135 11.8902C4.24665 11.9857 4.38557 12.0225 4.5153 11.9864L7.6795 11.1066C7.74167 11.0893 7.79829 11.0562 7.84397 11.0104L14.5087 4.32055C15.1642 3.66114 15.1642 2.59365 14.5087 1.93423L14.0704 1.49423ZM5.84195 8.42762L11.2967 2.95251L13.0559 4.71822L7.60099 10.1933L5.84195 8.42762ZM5.49055 9.13538L6.896 10.5462L4.95193 11.0868L5.49055 9.13538ZM13.9805 3.79032L13.5843 4.188L11.8249 2.42213L12.2213 2.02446C12.586 1.65843 13.1773 1.65843 13.5419 2.02446L13.9805 2.46446C14.3446 2.83093 14.3446 3.424 13.9805 3.79032Z" fill="#474747" stroke="#474747" stroke-width="0.3"/>
</g>
<defs>
<clipPath id="clip0_208:12688">
<rect width="16" height="16" fill="white"/>
</clipPath>
</defs>
</svg>
