<svg width="30" height="30" viewBox="0 0 30 30" fill="none" xmlns="http://www.w3.org/2000/svg">
<path d="M23.5547 15.9622V13.9453C23.5547 13.182 23.0655 12.531 22.3841 12.2888L22.4009 5.73215C22.4014 5.57588 22.3394 5.42599 22.2287 5.31566L17.0681 0.170976C16.9583 0.0615232 16.8095 0 16.6544 0H5.27353C4.30428 0 3.51573 0.788552 3.51573 1.75781V2.3438H2.92973C1.96048 2.3438 1.17193 3.13235 1.17193 4.1016L1.17205 9.94443C0.489959 10.1863 0 10.8376 0 11.6016V26.8359C0 27.8051 0.788552 28.5937 1.75781 28.5937H18.7546C19.9297 29.4763 21.3892 30 22.9688 30C26.8458 30 30 26.8458 30 22.9688C30 19.2891 27.1586 16.2609 23.5547 15.9622ZM17.2403 1.99745L20.3973 5.14475H17.7135C17.4525 5.14475 17.2403 4.93246 17.2403 4.67154V1.99745H17.2403ZM2.92973 3.51573H3.51573L3.51579 9.84377H2.34392L2.3438 4.10166C2.3438 3.77858 2.60665 3.51573 2.92973 3.51573ZM1.17187 26.8359V11.6016C1.17187 11.2785 1.43472 11.0156 1.75781 11.0156H7.61716C7.94024 11.0156 8.20309 11.2785 8.20309 11.6016V12.7735C8.20309 13.0971 8.46542 13.3594 8.78903 13.3594H15.0766C15.4002 13.3594 15.6625 13.0971 15.6625 12.7735C15.6625 12.4499 15.4002 12.1876 15.0766 12.1876H9.37496V11.6016C9.37496 11.3919 9.33793 11.1908 9.27032 11.0043H17.7135C18.0371 11.0043 18.2995 10.742 18.2995 10.4183C18.2995 10.0947 18.0371 9.8324 17.7135 9.8324H7.61716C7.5779 9.8324 7.53958 9.83645 7.50249 9.84377H4.68772L4.6876 1.75781C4.6876 1.43472 4.95045 1.17187 5.27353 1.17187H16.0685V4.67154C16.0685 5.57863 16.8064 6.31662 17.7135 6.31662H21.2276L21.2125 12.1876H20.3501C20.0264 12.1876 19.7641 12.4499 19.7641 12.7735C19.7641 13.0971 20.0264 13.3594 20.3501 13.3594H21.7969C22.12 13.3594 22.3828 13.6223 22.3828 13.9454V15.9622C18.7789 16.261 15.9376 19.2891 15.9376 22.9688C15.9376 24.6573 16.5359 26.2084 17.5315 27.4219H1.75781C1.43472 27.4218 1.17187 27.159 1.17187 26.8359ZM22.9688 28.8281C19.7379 28.8281 17.1094 26.1996 17.1094 22.9688C17.1094 19.7379 19.7379 17.1094 22.9688 17.1094C26.1997 17.1094 28.8281 19.7379 28.8281 22.9688C28.8281 26.1996 26.1997 28.8281 22.9688 28.8281Z" fill="#4C5BD4"/>
<path d="M6.44531 3.97266H13.7244C14.048 3.97266 14.3104 3.71034 14.3104 3.38672C14.3104 3.06311 14.048 2.80078 13.7244 2.80078H6.44531C6.1217 2.80078 5.85938 3.06311 5.85938 3.38672C5.85938 3.71034 6.1217 3.97266 6.44531 3.97266Z" fill="#4C5BD4"/>
<path d="M6.44531 6.31641H13.7244C14.048 6.31641 14.3104 6.05408 14.3104 5.73047C14.3104 5.40686 14.048 5.14453 13.7244 5.14453H6.44531C6.1217 5.14453 5.85938 5.40686 5.85938 5.73047C5.85938 6.05408 6.1217 6.31641 6.44531 6.31641Z" fill="#4C5BD4"/>
<path d="M17.7134 7.48828H6.44531C6.1217 7.48828 5.85938 7.7506 5.85938 8.07421C5.85938 8.39782 6.1217 8.66015 6.44531 8.66015H17.7134C18.037 8.66015 18.2993 8.39782 18.2993 8.07421C18.2993 7.7506 18.037 7.48828 17.7134 7.48828Z" fill="#4C5BD4"/>
<path d="M25.1579 19.7812C24.6884 19.7812 24.247 19.9641 23.915 20.2961L22.2979 21.9132L22.023 21.6384C21.6911 21.3064 21.2497 21.1236 20.7802 21.1236C20.3106 21.1236 19.8693 21.3065 19.5373 21.6384C19.2053 21.9704 19.0225 22.4118 19.0225 22.8813C19.0225 23.3508 19.2053 23.7922 19.5373 24.1242L21.055 25.6419C21.387 25.9738 21.8283 26.1567 22.2979 26.1567C22.7674 26.1567 23.2087 25.9738 23.5407 25.6419L26.4008 22.7818C26.7328 22.4498 26.9156 22.0085 26.9156 21.5389C26.9156 21.0694 26.7328 20.628 26.4008 20.2961C26.0688 19.9641 25.6274 19.7812 25.1579 19.7812ZM25.5722 21.9532L22.7121 24.8133C22.6015 24.924 22.4544 24.9848 22.2979 24.9848C22.1414 24.9848 21.9943 24.9239 21.8837 24.8133L20.366 23.2956C20.1376 23.0672 20.1376 22.6955 20.366 22.4671C20.4766 22.3564 20.6238 22.2956 20.7802 22.2956C20.9367 22.2956 21.0838 22.3565 21.1944 22.4671L21.8835 23.1563C22.1123 23.3851 22.4834 23.3851 22.7122 23.1563L24.7437 21.1247C24.8544 21.0141 25.0015 20.9532 25.1579 20.9532C25.3144 20.9532 25.4615 21.0141 25.5722 21.1247C25.6828 21.2354 25.7437 21.3824 25.7437 21.5389C25.7437 21.6955 25.6828 21.8426 25.5722 21.9532Z" fill="#4C5BD4"/>
<path d="M8.78906 25.0781C8.46545 25.0781 8.20312 25.3404 8.20312 25.6641C8.20312 25.9877 8.46545 26.25 8.78906 26.25H8.78947C9.11309 26.25 9.37523 25.9877 9.37523 25.6641C9.37523 25.3404 9.11268 25.0781 8.78906 25.0781Z" fill="#4C5BD4"/>
<path d="M6.15217 25.0781H2.92969C2.60607 25.0781 2.34375 25.3404 2.34375 25.6641C2.34375 25.9877 2.60607 26.25 2.92969 26.25H6.15211C6.47572 26.25 6.73805 25.9877 6.73805 25.6641C6.73805 25.3404 6.47578 25.0781 6.15217 25.0781Z" fill="#4C5BD4"/>
<path d="M17.714 13.3594C18.0377 13.3594 18.3 13.0971 18.3 12.7734C18.3 12.4498 18.0377 12.1875 17.714 12.1875H17.7136C17.39 12.1875 17.1279 12.4498 17.1279 12.7734C17.1279 13.0971 17.3904 13.3594 17.714 13.3594Z" fill="#4C5BD4"/>
</svg>
