<svg width="40" height="40" viewBox="0 0 40 40" fill="none" xmlns="http://www.w3.org/2000/svg">
<path d="M37.288 19.5109C37.288 29.3296 29.3286 37.289 19.5099 37.289C9.69127 37.289 1.73145 29.3296 1.73145 19.5109C1.73145 9.69225 9.69127 1.73242 19.5099 1.73242C29.3286 1.73242 37.288 9.69225 37.288 19.5109Z" fill="#9DC1E4"/>
<path d="M19.5109 38.0218C9.30359 38.0218 1 29.7177 1 19.5109C1 9.30401 9.30359 1 19.5109 1C29.7177 1 38.0218 9.30359 38.0218 19.5105C38.0218 29.7177 29.7177 38.0218 19.5109 38.0218ZM19.5109 2.46519C10.1119 2.46519 2.46561 10.1119 2.46561 19.5105C2.46561 28.9095 10.1119 36.5561 19.5109 36.5561C28.9099 36.5561 36.5561 28.9095 36.5561 19.5105C36.5561 10.1119 28.9099 2.46519 19.5109 2.46519Z" fill="#4C5BD4"/>
<path d="M32.8983 19.5109C32.8983 26.9044 26.9046 32.898 19.5111 32.898C12.1177 32.898 6.12402 26.9044 6.12402 19.5109C6.12402 12.1174 12.1177 6.12378 19.5111 6.12378C26.9046 6.12378 32.8983 12.1174 32.8983 19.5109Z" fill="white"/>
<path d="M31.4315 15.9472C31.4315 21.2626 27.1227 25.5714 21.8073 25.5714C16.4924 25.5714 12.1836 21.2626 12.1836 15.9472C12.1836 10.6323 16.4924 6.32349 21.8073 6.32349C27.1227 6.32349 31.4315 10.6323 31.4315 15.9472Z" fill="#C1DBDC"/>
<path d="M7.77111 13.4044C7.64576 13.4044 7.51831 13.3721 7.40261 13.3042C7.05256 13.1 6.93517 12.6514 7.13934 12.3018C7.58036 11.5455 8.09643 10.824 8.6716 10.1579C8.93613 9.85102 9.40064 9.81832 9.70499 10.082C10.011 10.3465 10.0454 10.8089 9.78087 11.1154C9.26397 11.7145 8.8003 12.3622 8.40414 13.0413C8.26831 13.2744 8.02306 13.4044 7.77111 13.4044Z" fill="#4C5BD4"/>
<path d="M19.5389 33.8281C18.9776 33.8281 18.412 33.795 17.8461 33.7291C14.0483 33.2844 10.6513 31.3878 8.28019 28.3878C5.90906 25.3878 4.848 21.6446 5.29238 17.8468C5.33975 17.4456 5.70028 17.1576 6.10525 17.2041C6.50729 17.2511 6.79488 17.6154 6.74793 18.017C5.92415 25.0545 10.9792 31.4498 18.0167 32.274C21.42 32.6702 24.7851 31.7206 27.4786 29.5922C30.1709 27.4634 31.8738 24.414 32.2733 21.0048C32.6724 17.5961 31.7199 14.236 29.5915 11.5429C27.4631 8.85024 24.4132 7.14777 21.0041 6.74825C18.1358 6.41245 15.3219 7.02452 12.8606 8.51528C12.5152 8.72489 12.0641 8.61464 11.8541 8.26794C11.6445 7.92166 11.7551 7.47099 12.101 7.26138C14.8448 5.60041 17.9802 4.92001 21.1747 5.29312C24.9721 5.7375 28.3695 7.63449 30.7406 10.6345C33.1117 13.634 34.1728 17.3773 33.7284 21.175C33.284 24.9728 31.3866 28.3702 28.3875 30.7413C25.8344 32.7591 22.7435 33.8281 19.5389 33.8281Z" fill="#4C5BD4"/>
<path d="M14.1007 25.6546C13.9133 25.6546 13.7259 25.5829 13.5829 25.44C13.2966 25.1541 13.2966 24.69 13.5829 24.4041L18.7784 19.2078V11.7816C18.7784 11.3771 19.1062 11.0488 19.5112 11.0488C19.9162 11.0488 20.244 11.3771 20.244 11.7816V19.5113C20.244 19.7054 20.1664 19.892 20.0293 20.029L14.6188 25.44C14.4754 25.5829 14.288 25.6546 14.1007 25.6546Z" fill="#4C5BD4"/>
<path d="M38.2673 32.6987C38.2673 36.1787 35.4464 39 31.9664 39C28.486 39 25.665 36.1787 25.665 32.6987C25.665 29.2187 28.486 26.3977 31.9664 26.3977C35.4464 26.3977 38.2673 29.2187 38.2673 32.6987Z" fill="white"/>
<path d="M31.9658 39.7323C28.0872 39.7323 24.9316 36.5772 24.9316 32.6986C24.9316 28.8203 28.0872 25.6648 31.9658 25.6648C35.8441 25.6648 38.9996 28.8203 38.9996 32.6986C38.9996 36.5772 35.8445 39.7323 31.9658 39.7323ZM31.9658 27.13C28.8946 27.13 26.3973 29.6281 26.3973 32.6986C26.3973 35.769 28.895 38.2671 31.9658 38.2671C35.0362 38.2671 37.534 35.769 37.534 32.6986C37.534 29.6281 35.0362 27.13 31.9658 27.13Z" fill="#4C5BD4"/>
<path d="M31.9652 34.1637C31.5603 34.1637 31.2324 33.8359 31.2324 33.4313V29.0353C31.2324 28.6307 31.5603 28.3025 31.9652 28.3025C32.3702 28.3025 32.6976 28.6307 32.6976 29.0353V33.4313C32.6976 33.8359 32.3702 34.1637 31.9652 34.1637Z" fill="#4C5BD4"/>
<path d="M32.6976 35.6298C32.6976 36.0343 32.3698 36.3621 31.9652 36.3621C31.5603 36.3621 31.2324 36.0343 31.2324 35.6298C31.2324 35.2248 31.5603 34.897 31.9652 34.897C32.3698 34.897 32.6976 35.2248 32.6976 35.6298Z" fill="#4C5BD4"/>
</svg>
