<svg width="40" height="40" viewBox="0 0 40 40" fill="none" xmlns="http://www.w3.org/2000/svg">
<circle cx="17" cy="24" r="12" fill="#D5D9F4"/>
<path d="M9.48525 32.3898C6.82365 30.1302 4.96061 27.0733 4.17209 23.6721C3.38356 20.2708 3.71148 16.7061 5.10728 13.5058C6.50307 10.3055 8.89251 7.63981 11.9217 5.90363C14.9509 4.16745 18.4587 3.45309 21.9256 3.86634C25.3925 4.27958 28.6341 5.79847 31.1703 8.19803C33.7065 10.5976 35.4024 13.7502 36.0069 17.1889C36.6113 20.6277 36.0921 24.1696 34.5262 27.2902C32.9603 30.4108 30.4309 32.9441 27.3128 34.5148L28.5546 36.6873C32.1281 34.8563 35.0196 31.9267 36.8037 28.3295C38.5878 24.7324 39.1702 20.6575 38.4653 16.7046C37.7604 12.7517 35.8054 9.12934 32.8879 6.37057C29.9704 3.61179 26.2445 1.86224 22.2583 1.37932C18.2722 0.896395 14.2363 1.7056 10.7444 3.68788C7.25252 5.67016 4.48907 8.72084 2.86061 12.3911C1.23215 16.0613 0.824673 20.1573 1.69813 24.0765C2.57159 27.9956 4.67986 31.531 7.71275 34.1623L5.62525 36.2498L15.0003 38.7498L11.2503 30.6248L9.48525 32.3898Z" fill="#9DC1E4"/>
<path d="M33.2581 6.74189L31.4906 8.50939C29.9833 6.9982 28.1922 5.79979 26.2203 4.98301C24.2483 4.16624 22.1344 3.74721 20 3.75002V1.25002C22.4627 1.24684 24.9018 1.73039 27.1771 2.67287C29.4524 3.61535 31.519 4.99818 33.2581 6.74189Z" fill="#9DC1E4"/>
<path d="M6.74219 6.74189L8.50969 8.50939C10.017 6.9982 11.8081 5.79979 13.78 4.98301C15.752 4.16624 17.8659 3.74721 20.0003 3.75002V1.25002C17.5376 1.24684 15.0985 1.73039 12.8232 2.67287C10.5479 3.61535 8.48133 4.99818 6.74219 6.74189Z" fill="#9DC1E4"/>
<path d="M38.7503 20H36.2503C36.2521 22.1339 35.8321 24.2472 35.0143 26.2182C34.1966 28.1892 32.9973 29.9791 31.4854 31.485L33.2503 33.25C34.995 31.5128 36.3791 29.4479 37.3229 27.174C38.2668 24.9001 38.7519 22.462 38.7503 20Z" fill="#9DC1E4"/>
<path d="M33.2577 6.74194L31.4902 8.50944C33.0014 10.0168 34.1998 11.8079 35.0166 13.7798C35.8334 15.7517 36.2524 17.8657 36.2496 20.0001H38.7496C38.7528 17.5373 38.2692 15.0982 37.3267 12.8229C36.3843 10.5477 35.0014 8.48108 33.2577 6.74194Z" fill="#9DC1E4"/>
<path d="M1.25002 20.0001H3.75002C3.74721 17.8657 4.16624 15.7517 4.98301 13.7798C5.79979 11.8079 6.9982 10.0168 8.50939 8.50944L6.74189 6.74194C4.99818 8.48108 3.61535 10.5477 2.67287 12.8229C1.73039 15.0982 1.24684 17.5373 1.25002 20.0001Z" fill="#9DC1E4"/>
<path d="M38.75 9.375L20 28.125L10 18.125L13.75 14.375L20 20.625L35 5.625L38.75 9.375Z" fill="#16730E"/>
<path d="M20 20.625L13.75 14.375L11.5625 16.5625L20 25L37.1875 7.8125L35 5.625L20 20.625Z" fill="#76B51B"/>
<path d="M27.3125 34.5158L28.5544 36.6876C30.2883 35.7922 31.8725 34.6325 33.25 33.2501L31.4837 31.4839C30.2632 32.7096 28.8551 33.7331 27.3125 34.5158Z" fill="#9DC1E4"/>
<path d="M39.1916 8.933L35.4416 5.183C35.3244 5.06583 35.1655 5.00001 34.9998 5.00001C34.834 5.00001 34.6751 5.06583 34.5579 5.183L33.566 6.17488C29.9566 2.60247 25.0781 0.606679 19.9998 0.624879C16.1079 0.624734 12.3061 1.79667 9.08982 3.98802C5.87349 6.17936 3.39166 9.28855 1.96761 12.9105C0.543569 16.5325 0.243326 20.4994 1.106 24.2945C1.96867 28.0896 3.95426 31.5369 6.80413 34.1874L5.18288 35.808C5.10531 35.8856 5.04954 35.9823 5.02117 36.0883C4.99281 36.1943 4.99285 36.3059 5.02129 36.4118C5.04973 36.5178 5.10557 36.6144 5.1832 36.692C5.26082 36.7695 5.3575 36.8253 5.4635 36.8536L14.8385 39.3536C14.8911 39.3678 14.9453 39.3749 14.9998 39.3749C15.1046 39.3749 15.2078 39.3485 15.2998 39.2981C15.3918 39.2478 15.4697 39.1751 15.5262 39.0867C15.5827 38.9984 15.6161 38.8973 15.6233 38.7926C15.6305 38.688 15.6112 38.5832 15.5673 38.488L11.8173 30.363C11.7751 30.2716 11.7114 30.1917 11.6317 30.1302C11.552 30.0687 11.4586 30.0273 11.3595 30.0097C11.2604 29.992 11.1585 29.9985 11.0625 30.0287C10.9664 30.0589 10.8791 30.1118 10.8079 30.183L9.45788 31.533C7.91552 30.1371 6.66741 28.4474 5.78676 26.5628C4.90611 24.6782 4.41064 22.6367 4.32941 20.5581C4.24819 18.4795 4.58284 16.4055 5.31374 14.458C6.04464 12.5104 7.15708 10.7284 8.5858 9.2164C10.0145 7.70445 11.7308 6.49301 13.6339 5.65312C15.537 4.81324 17.5887 4.36182 19.6686 4.32536C21.7485 4.28889 23.8147 4.6681 25.7461 5.44075C27.6775 6.2134 29.4351 7.36394 30.916 8.82488L19.9998 19.7411L14.1916 13.933C14.0744 13.8158 13.9155 13.75 13.7498 13.75C13.584 13.75 13.4251 13.8158 13.3079 13.933L9.55788 17.683C9.44071 17.8002 9.37488 17.9592 9.37488 18.1249C9.37488 18.2906 9.44071 18.4495 9.55788 18.5668L19.5579 28.5668C19.6751 28.6839 19.834 28.7497 19.9998 28.7497C20.1655 28.7497 20.3244 28.6839 20.4416 28.5668L34.5948 14.4136C35.9765 18.0296 35.9681 22.0296 34.5712 25.6398C33.1743 29.25 30.4881 32.2138 27.0322 33.958C26.9566 33.9962 26.8895 34.0494 26.8351 34.1143C26.7806 34.1792 26.7399 34.2546 26.7155 34.3357C26.6911 34.4168 26.6834 34.5021 26.6929 34.5863C26.7025 34.6705 26.729 34.7519 26.771 34.8255L28.0116 36.9999C28.0915 37.1397 28.2223 37.2433 28.3767 37.2891C28.5311 37.3348 28.6972 37.3192 28.8404 37.2455C33.3434 34.9367 36.7641 30.9574 38.3707 26.1588C39.9774 21.3602 39.6423 16.1234 37.4373 11.5686L39.1873 9.81863C39.2458 9.76085 39.2924 9.69207 39.3244 9.61624C39.3563 9.5404 39.373 9.45901 39.3734 9.37672C39.3738 9.29444 39.3579 9.21289 39.3267 9.13674C39.2956 9.0606 39.2496 8.99136 39.1916 8.933ZM9.08038 32.8661C9.2 32.9677 9.35343 33.0205 9.51021 33.0141C9.66699 33.0078 9.81564 32.9427 9.92663 32.8317L11.0579 31.7005L13.8748 37.803L6.8335 35.9249L8.15413 34.6043C8.21493 34.5438 8.26265 34.4715 8.2943 34.3918C8.32595 34.3121 8.34086 34.2267 8.3381 34.141C8.33535 34.0553 8.31498 33.9711 8.27828 33.8936C8.24158 33.8161 8.18932 33.7469 8.12475 33.6905C6.24356 32.058 4.71914 30.0552 3.64668 27.8072C2.57423 25.5592 1.97677 23.1142 1.89163 20.6249H3.14163C3.22618 22.966 3.79798 25.2638 4.82053 27.3716C5.84308 29.4793 7.29391 31.3506 9.08038 32.8661ZM3.14038 19.3749H1.89038C2.0379 15.0033 3.76755 10.834 6.75788 7.64175L7.64163 8.5255C4.8856 11.4832 3.28758 15.3349 3.14038 19.3749ZM8.52538 7.64175L7.64163 6.758C10.8339 3.76768 15.0032 2.03803 19.3748 1.8905V3.1405C15.3347 3.28771 11.483 4.88573 8.52538 7.64175ZM20.6248 3.1405V1.8905C25.1524 2.02833 29.4602 3.87473 32.6823 7.05863L31.7991 7.94175C28.8109 4.99264 24.8209 3.27826 20.6248 3.1405ZM28.796 35.8517L28.1754 34.7661C29.3703 34.1022 30.4809 33.2966 31.4829 32.3668L32.366 33.2499C31.2859 34.2587 30.0871 35.1324 28.796 35.8517ZM33.2498 32.3674L32.3679 31.4855C35.1235 28.5244 36.7167 24.6675 36.8541 20.6249H38.1041C37.9641 24.9983 36.2388 29.1717 33.2498 32.3674ZM38.1066 19.3749H36.8566C36.786 17.3388 36.3433 15.3328 35.5504 13.4561L36.501 12.5055C37.487 14.666 38.0328 17.0012 38.1066 19.3749ZM19.9998 27.2411L10.8835 18.1249L13.7498 15.2586L19.5579 21.0668C19.6751 21.1839 19.834 21.2497 19.9998 21.2497C20.1655 21.2497 20.3244 21.1839 20.4416 21.0668L34.9998 6.50863L37.866 9.37488L19.9998 27.2411Z" fill="#4C5BD4"/>
</svg>
