<svg width="46" height="46" viewBox="0 0 46 46" fill="none" xmlns="http://www.w3.org/2000/svg">
<g clip-path="url(#clip0)">
<path d="M19.0165 10.4527H18.1939V9.18407C18.1939 8.6876 17.7913 8.28516 17.295 8.28516C16.7986 8.28516 16.3961 8.6876 16.3961 9.18407V10.4527H15.5735C13.6613 10.4527 12.1056 12.0084 12.1056 13.9207V14.7705C12.1056 16.6828 13.6613 18.2385 15.5735 18.2385H19.0166C19.9375 18.2385 20.6867 18.9878 20.6867 19.9087V20.5755C20.6867 21.4964 19.9375 22.2457 19.0166 22.2457H15.5734C14.6525 22.2457 13.9033 21.4964 13.9033 20.5755C13.9033 20.079 13.5008 19.6766 13.0044 19.6766C12.508 19.6766 12.1055 20.079 12.1055 20.5755C12.1055 22.4878 13.6612 24.0435 15.5734 24.0435H16.396V25.3122C16.396 25.8087 16.7985 26.2111 17.2949 26.2111C17.7913 26.2111 18.1938 25.8087 18.1938 25.3122V24.0435H19.0164C20.9286 24.0435 22.4844 22.4878 22.4844 20.5755V19.9087C22.4844 17.9964 20.9286 16.4407 19.0164 16.4407H15.5734C14.6525 16.4407 13.9033 15.6915 13.9033 14.7705V13.9207C13.9033 12.9998 14.6525 12.2505 15.5734 12.2505H19.0165C19.9374 12.2505 20.6866 12.9998 20.6866 13.9207V14.0015C20.6866 14.498 21.0892 14.9004 21.5856 14.9004C22.0819 14.9004 22.4845 14.498 22.4845 14.0015V13.9207C22.4845 12.0084 20.9288 10.4527 19.0165 10.4527Z" fill="url(#paint0_linear)"/>
<path d="M44.8549 32.3421L36.0098 23.4971C35.856 23.3433 35.6516 23.2506 35.4346 23.2359L33.523 23.1071C34.2005 21.2358 34.5442 19.2712 34.5442 17.2493C34.5442 7.738 26.8066 0 17.296 0C9.39277 0 2.51719 5.34384 0.576084 12.9954C0.454102 13.4765 0.745169 13.9656 1.22636 14.0877C1.70754 14.21 2.19664 13.9187 2.31871 13.4374C4.05738 6.58424 10.2163 1.79782 17.296 1.79782C25.8153 1.79782 32.7464 8.72931 32.7464 17.2492C32.7464 19.2361 32.3774 21.1609 31.6487 22.98L29.2341 22.8176C30.0268 21.1251 30.4707 19.2379 30.4707 17.2489C30.4707 9.9841 24.5603 4.07377 17.2955 4.07377C10.0307 4.07377 4.12031 9.9841 4.12031 17.2489C4.12031 24.5137 10.0306 30.424 17.2954 30.424C19.2464 30.424 21.0994 29.9973 22.7667 29.2331L22.929 31.6412C21.1361 32.3438 19.2441 32.6996 17.2959 32.6996C10.2136 32.6996 4.05406 27.9113 2.31727 21.0554C2.19538 20.5742 1.70619 20.283 1.22519 20.4048C0.74391 20.5267 0.452663 21.0157 0.574645 21.4969C2.51368 29.1515 9.38981 34.4975 17.296 34.4975C19.2796 34.4975 21.2112 34.1659 23.0551 33.5121L23.188 35.4825C23.2026 35.6996 23.2954 35.9039 23.4492 36.0577L32.2943 44.9028C33.0259 45.6343 33.9868 46.0001 34.9478 46.0001C35.9088 46.0001 36.8697 45.6343 37.6013 44.9028L44.8549 37.6492C46.3179 36.186 46.3179 33.8053 44.8549 32.3421ZM5.91813 17.2489C5.91813 10.9754 11.022 5.87159 17.2954 5.87159C23.5689 5.87159 28.6729 10.9754 28.6729 17.2489C28.6729 20.0179 27.678 22.5587 26.0277 24.5336L25.0876 23.5934C24.7364 23.2424 24.1674 23.2424 23.8162 23.5934C23.4652 23.9444 23.4652 24.5136 23.8162 24.8647L24.7703 25.8188C22.7696 27.5661 20.1541 28.6261 17.2954 28.6261C11.022 28.6262 5.91813 23.5224 5.91813 17.2489ZM43.5835 36.3778L36.33 43.6314C35.5678 44.3936 34.3278 44.3936 33.5656 43.6314L24.959 35.0249L24.5295 28.6483L26.0649 27.113L26.6787 27.7269C26.8543 27.9024 27.0843 27.9902 27.3143 27.9902C27.5444 27.9902 27.7744 27.9023 27.95 27.7269C28.301 27.3758 28.301 26.8067 27.95 26.4556L27.3361 25.8418L28.6008 24.5771L34.9771 25.0069L43.5835 33.6134C44.3457 34.3757 44.3457 35.6157 43.5835 36.3778Z" fill="url(#paint1_linear)"/>
<path d="M33.996 33.4673C35.3711 32.0922 35.3711 29.8548 33.996 28.4797C32.6367 27.1206 30.3677 27.1202 29.0085 28.4797L28.5284 28.9597C27.1533 30.3348 27.1533 32.5723 28.5284 33.9472C29.8903 35.3038 32.1547 35.3087 33.5159 33.9472L33.996 33.4673ZM32.7247 32.1961L32.2446 32.6761C31.5761 33.3446 30.4688 33.3391 29.7996 32.6761C29.1255 32.0019 29.1255 30.9051 29.7995 30.231L30.2796 29.7509C30.946 29.0847 32.0583 29.0847 32.7247 29.7509C33.3988 30.4251 33.3988 31.522 32.7247 32.1961Z" fill="url(#paint2_linear)"/>
<path d="M36.1109 34.1216C36.2968 34.5751 36.8336 34.7942 37.285 34.6079C37.7378 34.4208 37.9587 33.8865 37.7713 33.4339C37.5838 32.9814 37.0496 32.7603 36.5972 32.9476C36.1458 33.1346 35.9227 33.6701 36.1109 34.1216Z" fill="url(#paint3_linear)"/>
<path d="M37.6355 39.0703C37.4883 38.7169 37.1215 38.4895 36.7391 38.518C36.3637 38.546 36.0407 38.813 35.9396 39.1749C35.7225 39.9526 36.6104 40.6025 37.2875 40.1725C37.6523 39.9408 37.7989 39.469 37.6355 39.0703Z" fill="url(#paint4_linear)"/>
<path d="M39.7328 35.6714H33.9624C33.466 35.6714 33.0635 36.0738 33.0635 36.5703C33.0635 37.0668 33.466 37.4692 33.9624 37.4692H39.7328C40.2291 37.4692 40.6317 37.0668 40.6317 36.5703C40.6317 36.0738 40.2292 35.6714 39.7328 35.6714Z" fill="url(#paint5_linear)"/>
<path d="M0.770494 18.131C1.55938 18.2911 2.13989 17.3614 1.67039 16.7181C1.18282 16.05 0.0870533 16.3795 0.0478608 17.2052C0.0270061 17.6456 0.339287 18.0434 0.770494 18.131Z" fill="url(#paint6_linear)"/>
</g>
<defs>
<linearGradient id="paint0_linear" x1="13.2587" y1="17.9376" x2="21.6195" y2="17.9376" gradientUnits="userSpaceOnUse">
<stop stop-color="#F65034"/>
<stop offset="1" stop-color="#FE9618"/>
</linearGradient>
<linearGradient id="paint1_linear" x1="5.59191" y1="24.7693" x2="42.1684" y2="24.7693" gradientUnits="userSpaceOnUse">
<stop stop-color="#F65034"/>
<stop offset="1" stop-color="#FE9618"/>
</linearGradient>
<linearGradient id="paint2_linear" x1="28.3338" y1="31.5021" x2="34.3998" y2="31.5021" gradientUnits="userSpaceOnUse">
<stop stop-color="#F65034"/>
<stop offset="1" stop-color="#FE9618"/>
</linearGradient>
<linearGradient id="paint3_linear" x1="36.2433" y1="33.8466" x2="37.6886" y2="33.8466" gradientUnits="userSpaceOnUse">
<stop stop-color="#F65034"/>
<stop offset="1" stop-color="#FE9618"/>
</linearGradient>
<linearGradient id="paint4_linear" x1="36.1058" y1="39.4816" x2="37.5523" y2="39.4816" gradientUnits="userSpaceOnUse">
<stop stop-color="#F65034"/>
<stop offset="1" stop-color="#FE9618"/>
</linearGradient>
<linearGradient id="paint5_linear" x1="33.9044" y1="36.6395" x2="40.001" y2="36.6395" gradientUnits="userSpaceOnUse">
<stop stop-color="#F65034"/>
<stop offset="1" stop-color="#FE9618"/>
</linearGradient>
<linearGradient id="paint6_linear" x1="0.245978" y1="17.3238" x2="1.68947" y2="17.3238" gradientUnits="userSpaceOnUse">
<stop stop-color="#F65034"/>
<stop offset="1" stop-color="#FE9618"/>
</linearGradient>
<clipPath id="clip0">
<rect width="46" height="46" fill="white"/>
</clipPath>
</defs>
</svg>
