<svg width="220" height="147" viewBox="0 0 220 147" fill="none" xmlns="http://www.w3.org/2000/svg">
<path d="M58.3735 56.4079C58.3735 56.4079 56.7308 55.0645 54.1554 59.0479C51.5799 63.0314 50.5151 65.3869 50.5151 65.3869C50.5151 65.3869 49.858 66.2111 49.3124 65.5717C48.7668 64.9322 48.101 63.2103 47.042 63.401C45.9831 63.5917 45.4668 64.7533 45.4932 66.525C45.5196 68.2967 45.4258 72.1863 45.417 72.5354C45.4082 72.8845 45.1618 73.3655 44.7188 72.9901C44.2759 72.6146 41.85 69.2853 40.3394 70.5319C38.8287 71.7786 39.7087 76.6919 39.7938 77.2463C39.8788 77.8007 39.7556 78.0002 39.5004 78.1058C39.2452 78.2114 38.5266 77.0146 37.7991 76.0965C37.0716 75.1783 36.0626 74.2397 35.253 75.0317C34.4434 75.8237 33.842 79.3906 36.6639 85.577L38.1599 88.3578L41.325 88.5045C48.1244 88.4077 51.093 86.3397 51.4626 85.2778C51.8322 84.2159 50.5532 83.6997 49.4092 83.4327C48.2652 83.1658 46.8836 83.0397 46.866 82.7551C46.8484 82.4706 46.9863 82.2682 47.5114 82.1127C48.0364 81.9573 52.8676 80.6461 53.3458 78.7482C53.8239 76.8503 49.7788 76.0818 49.2391 75.8442C48.6994 75.6066 49.0426 75.1725 49.3506 75.017C49.6586 74.8615 53.1375 73.1133 54.7508 72.377C56.3642 71.6407 57.206 70.7167 56.9127 69.6402C56.6194 68.5637 54.7919 68.7367 53.9794 68.5167C53.1668 68.2967 53.6303 67.3434 53.6303 67.3434C53.6303 67.3434 55.2964 65.3781 57.8015 61.3418C60.3066 57.3055 58.3354 56.3815 58.3354 56.3815" fill="#EBEBEB"/>
<path d="M37.5996 88.8801C39.4505 85.9233 42.8268 80.7196 45.7044 76.2404C48.582 71.7612 51.1809 67.7015 53.0377 64.7535L55.2436 61.2599L55.8303 60.3095L55.9887 60.0631C56.0239 60.0074 56.0444 59.981 56.0444 59.981L55.9975 60.069C55.9593 60.1276 55.9095 60.2127 55.8479 60.3183L55.2612 61.2775C54.7537 62.1106 54.0087 63.3103 53.0817 64.7975C51.2308 67.7572 48.6407 71.8199 45.7631 76.302C42.8855 80.7841 39.5004 85.982 37.6348 88.9153" fill="#E0E0E0"/>
<path d="M47.8811 65.8506C47.9072 65.9228 47.9258 65.9975 47.9368 66.0735C47.9691 66.2173 48.0072 66.4255 48.0541 66.6837C48.1451 67.1999 48.2507 67.9157 48.3475 68.7106C48.4443 69.5055 48.5381 70.2007 48.6056 70.7404C48.6379 70.9839 48.6672 71.1892 48.6877 71.3564C48.7028 71.4308 48.7107 71.5064 48.7112 71.5823C48.6801 71.5123 48.6594 71.4382 48.6496 71.3623C48.6203 71.2186 48.5821 71.0103 48.5381 70.7522C48.4531 70.233 48.3533 69.5143 48.2448 68.7223C48.1363 67.9303 48.0424 67.2351 47.972 66.6925L47.884 66.0794C47.8731 66.0036 47.8721 65.9267 47.8811 65.8506Z" fill="#E0E0E0"/>
<path d="M49.001 71.667C49.001 71.6406 50.4676 71.3561 52.2804 71.0276C54.0932 70.699 55.5716 70.4585 55.5746 70.4849C55.5775 70.5113 54.1079 70.7988 52.298 71.1244C50.4882 71.45 49.0068 71.6934 49.001 71.667Z" fill="#E0E0E0"/>
<path d="M44.2725 78.3496C44.3505 78.3412 44.4291 78.3412 44.5071 78.3496L45.1349 78.4171C45.6687 78.4728 46.4021 78.5461 47.2175 78.5989C48.033 78.6517 48.7693 78.6752 49.3031 78.6869H49.9367C50.0144 78.6817 50.0925 78.6876 50.1685 78.7045C50.0919 78.718 50.0144 78.7249 49.9367 78.7251C49.7871 78.7251 49.5701 78.7251 49.3031 78.7251C48.7663 78.7251 48.0271 78.7251 47.2087 78.6664C46.3903 78.6077 45.657 78.5315 45.1261 78.4581C44.8621 78.42 44.6479 78.3877 44.5013 78.3584C44.4249 78.3623 44.3483 78.3594 44.2725 78.3496Z" fill="#E0E0E0"/>
<path d="M42.1025 73.3101C42.1428 73.3702 42.1772 73.434 42.2052 73.5007L42.4604 74.0287C42.6687 74.4746 42.9532 75.0965 43.2612 75.7887C43.5692 76.481 43.8479 77.1058 44.0356 77.5487L44.2585 78.0885C44.2908 78.1536 44.3145 78.2226 44.3289 78.2938C44.286 78.2349 44.2505 78.1708 44.2233 78.1031L43.9711 77.5751C43.7628 77.1293 43.4783 76.5074 43.1703 75.8151C42.8623 75.1229 42.5836 74.501 42.3959 74.0551C42.3079 73.8439 42.2316 73.6621 42.1729 73.5154C42.1407 73.4503 42.117 73.3813 42.1025 73.3101Z" fill="#E0E0E0"/>
<path d="M37.1777 78.6807C37.2293 78.7565 37.2735 78.837 37.3097 78.9212L37.6383 79.5988C37.9081 80.1708 38.2777 80.9628 38.6825 81.8428C39.0873 82.7228 39.4423 83.5207 39.7004 84.1015C39.8207 84.3772 39.9204 84.6089 39.9937 84.7908C40.0354 84.8734 40.0688 84.9598 40.0935 85.0489C40.0419 84.9721 39.9977 84.8906 39.9615 84.8054L39.6329 84.1308C39.3631 83.5441 38.9935 82.7639 38.5887 81.8839C38.1839 81.0039 37.826 80.206 37.5708 79.6252L37.2775 78.9388C37.2369 78.8557 37.2036 78.7694 37.1777 78.6807Z" fill="#E0E0E0"/>
<path d="M40.0674 84.8758C40.165 84.8682 40.2631 84.8682 40.3607 84.8758L41.1615 84.9316C41.8391 84.9785 42.7749 85.0371 43.8015 85.0753C44.8282 85.1134 45.7727 85.1251 46.4415 85.1281H47.2452C47.3428 85.1195 47.441 85.1195 47.5386 85.1281C47.4416 85.1439 47.3435 85.1527 47.2452 85.1545C47.0575 85.1545 46.7818 85.175 46.4415 85.1809C45.7639 85.1809 44.8253 85.1809 43.8015 85.1574C42.7778 85.1339 41.8303 85.0459 41.1615 84.9844L40.3637 84.8964C40.2645 84.8974 40.1654 84.8906 40.0674 84.8758Z" fill="#E0E0E0"/>
<path d="M32.5337 67.5958C32.5483 68.0793 32.5208 68.5632 32.4516 69.042C32.2728 70.4097 31.8251 71.7287 31.1345 72.9228L31.1052 72.87H31.1668L31.1375 72.9228L22.9241 87.4926L22.8743 87.5836L22.8156 87.4956L14.1329 73.6414L13.7047 72.958L13.6372 72.8524H13.7633L13.7047 72.958C13.0468 71.8287 12.6033 70.5876 12.3964 69.2972C12.2913 68.6683 12.2471 68.0308 12.2644 67.3934L12.3172 66.4518C12.3641 66.1409 12.4111 65.8329 12.4551 65.5249C12.9211 63.1623 14.1706 61.026 16.0015 59.4617C16.8564 58.7533 17.8202 58.1877 18.8556 57.7868L19.234 57.646L19.4217 57.5756L19.6153 57.5228L20.3809 57.3233C20.8864 57.2262 21.3981 57.1644 21.9121 57.1385C22.4079 57.1119 22.9049 57.1208 23.3993 57.1649C23.6428 57.1854 23.8804 57.2382 24.118 57.2705L24.47 57.3292C24.5844 57.3526 24.6988 57.3878 24.8132 57.4172L25.4849 57.599L26.1215 57.8425C26.2271 57.8836 26.3327 57.9188 26.4353 57.9628L26.7287 58.1124L27.3153 58.4057C28.6551 59.1835 29.8069 60.2471 30.6887 61.5209C31.345 62.4825 31.8404 63.5446 32.1553 64.6654C32.2694 65.0737 32.3557 65.4892 32.4135 65.9092C32.4685 66.2144 32.5018 66.5232 32.5132 66.8332C32.5132 67.0796 32.5132 67.2702 32.5337 67.4052C32.5543 67.5401 32.5337 67.5988 32.5337 67.5988C32.5337 67.5988 32.5337 67.5313 32.5337 67.4052C32.5337 67.279 32.5161 67.0825 32.5015 66.8361C32.4839 66.527 32.4467 66.2194 32.39 65.915C32.3265 65.498 32.2364 65.0855 32.1201 64.6801C31.8012 63.5699 31.306 62.5181 30.6535 61.5649C29.7682 60.3043 28.6166 59.2538 27.2801 58.4878L26.6935 58.1945L26.4001 58.0508C26.3004 58.0038 26.1948 57.9716 26.0892 57.9305L25.4585 57.69L24.7927 57.514C24.6812 57.4846 24.5697 57.4494 24.4553 57.426L24.1063 57.3702C23.8716 57.338 23.6369 57.2881 23.3964 57.2676C22.9086 57.2258 22.4185 57.2189 21.9297 57.247C21.4215 57.2729 20.9157 57.3347 20.4161 57.4318L19.6593 57.6313L19.4687 57.6841L19.2839 57.7516L18.9113 57.8924C17.8845 58.287 16.9285 58.8457 16.0807 59.5468C14.2712 61.0965 13.0389 63.2127 12.5841 65.5513C12.5401 65.8446 12.4932 66.1585 12.4492 66.4636C12.4052 66.7686 12.414 67.0825 12.3993 67.3964C12.3826 68.0258 12.4258 68.6554 12.5284 69.2766C12.7339 70.5492 13.1714 71.7731 13.8191 72.8876L13.8807 72.9932H13.7604L13.8191 72.8876C13.954 73.1046 14.1124 73.3364 14.2444 73.571L22.9212 87.434H22.8127C26.2681 81.3561 29.1516 76.2873 31.0759 72.8905L31.1081 72.9433H31.0436L31.0729 72.8905C31.7647 71.7052 32.2209 70.3974 32.4164 69.039C32.4839 68.5726 32.5015 68.2089 32.5191 67.9684C32.5191 67.8481 32.5191 67.7572 32.5191 67.6926C32.5191 67.6281 32.5337 67.5958 32.5337 67.5958Z" fill="#E0E0E0"/>
<path d="M28.85 67.467C28.847 67.4328 28.847 67.3984 28.85 67.3643C28.85 67.288 28.85 67.1883 28.8266 67.071C28.8266 67.0035 28.8266 66.9302 28.8266 66.848C28.8266 66.7659 28.8002 66.675 28.7855 66.5782C28.7554 66.3554 28.7104 66.1349 28.6506 65.9182C28.5001 65.3198 28.2608 64.7473 27.9407 64.2198C27.1851 62.949 26.0103 61.9812 24.6184 61.4828C23.2266 60.9844 21.7045 60.9866 20.314 61.4888C20.0294 61.5901 19.7521 61.7106 19.4839 61.8496C19.2129 61.9981 18.9522 62.1647 18.7036 62.3483C18.4503 62.5372 18.2093 62.7419 17.982 62.9614C17.7575 63.1915 17.5488 63.4365 17.3572 63.6947C16.9613 64.229 16.6534 64.8232 16.445 65.4547C16.0089 66.7558 16.0089 68.1635 16.445 69.4646C16.6475 70.0968 16.9527 70.6915 17.3484 71.2246C17.5379 71.4845 17.7447 71.7315 17.9674 71.9638C18.1943 72.1834 18.4343 72.3891 18.686 72.5798C18.9346 72.7643 19.1953 72.9318 19.4663 73.0814C19.7166 73.2136 19.9753 73.3292 20.2407 73.4275C21.6303 73.9353 23.1532 73.9443 24.5487 73.4531C25.9442 72.9619 27.1257 72.0009 27.8908 70.7347C28.2161 70.2098 28.4585 69.638 28.6095 69.0392C28.6715 68.8229 28.7176 68.6023 28.7474 68.3792C28.7474 68.2824 28.7796 68.1944 28.7914 68.1123V67.8864C28.7914 67.7603 28.809 67.6576 28.8148 67.5931C28.8117 67.558 28.8117 67.5226 28.8148 67.4875C28.8187 67.5226 28.8187 67.558 28.8148 67.5931C28.8148 67.6694 28.8148 67.7691 28.8148 67.8864V68.1123C28.8148 68.1944 28.7914 68.2854 28.7796 68.3822C28.7527 68.6077 28.7106 68.8311 28.6535 69.051C28.5083 69.6576 28.2709 70.2383 27.9495 70.7728C27.182 72.0674 25.9862 73.0531 24.5688 73.5592C23.1515 74.0654 21.6019 74.0603 20.1879 73.5448C19.599 73.3384 19.0458 73.0415 18.5482 72.6648C18.2887 72.4727 18.0427 72.2629 17.8119 72.0371C17.5896 71.7991 17.3838 71.5462 17.1959 71.2803C16.7927 70.7376 16.4797 70.1334 16.269 69.491C16.0581 68.8266 15.9474 68.1346 15.9404 67.4376C15.9499 66.74 16.0646 66.0477 16.2807 65.3843C16.4935 64.7434 16.8085 64.1412 17.2135 63.6008C17.41 63.3368 17.6236 63.0859 17.853 62.8499C18.0862 62.6274 18.3331 62.4198 18.5922 62.228C18.8467 62.0415 19.1132 61.872 19.39 61.7206C19.6652 61.5839 19.9494 61.4663 20.2407 61.3686C21.6571 60.8603 23.2065 60.8629 24.6211 61.376C26.0357 61.8892 27.2265 62.8805 27.9876 64.1787C28.3049 64.7164 28.5393 65.2988 28.6828 65.9064C28.7396 66.125 28.7798 66.3476 28.8031 66.5723C28.8031 66.672 28.8324 66.76 28.8383 66.8451C28.8442 66.9302 28.8383 67.0006 28.8383 67.068C28.8383 67.1971 28.8383 67.2998 28.8383 67.376C28.8447 67.406 28.8486 67.4364 28.85 67.467Z" fill="#E0E0E0"/>
<path d="M22.3015 70.4678L18.5674 67.8659L19.4767 66.5635L21.9789 68.3088L25.2173 64.1934L26.4639 65.176L22.3015 70.4678Z" fill="#E0E0E0"/>
<path fill-rule="evenodd" clip-rule="evenodd" d="M126.743 22.2553C127.835 22.3914 128.903 22.6726 129.92 23.0913L132.252 21.1377L136.259 24.1883L134.998 26.9574C135.672 27.8258 136.228 28.7796 136.652 29.7939L139.682 30.0608L140.36 35.0475L137.509 36.1123C137.375 37.2101 137.093 38.2847 136.67 39.3067L138.626 41.6534L135.576 45.6632L132.807 44.399C131.939 45.0741 130.985 45.6305 129.97 46.0534L129.703 49.0835L124.716 49.7611L123.652 46.9099C122.558 46.7676 121.489 46.4796 120.472 46.0534L118.125 48.007L114.118 44.9563L115.383 42.1872C114.707 41.3199 114.15 40.3659 113.728 39.3507L110.698 39.0838L110.021 34.0971L112.869 33.0294C113.006 31.9389 113.288 30.8716 113.708 29.8555L111.76 27.5118L114.808 23.5019L117.58 24.7662C118.448 24.0915 119.402 23.5351 120.416 23.1118L120.683 20.0817L125.67 19.4041L126.735 22.2553H126.743ZM125.253 29.1368C124.138 29.1728 123.061 29.5531 122.171 30.2256C121.281 30.898 120.62 31.8296 120.281 32.8924C119.941 33.9552 119.939 35.0971 120.274 36.1613C120.609 37.2254 121.266 38.1597 122.154 38.8357C123.041 39.5117 124.116 39.8964 125.231 39.9369C126.346 39.9774 127.447 39.6717 128.381 39.0618C129.315 38.4519 130.038 37.5677 130.45 36.5306C130.861 35.4936 130.942 34.3545 130.68 33.2699C130.388 32.0624 129.689 30.9922 128.701 30.2395C127.712 29.4867 126.495 29.0973 125.253 29.1368Z" fill="#F5F5F5"/>
<path fill-rule="evenodd" clip-rule="evenodd" d="M81.2976 38.2098C82.0033 38.2998 82.6938 38.4832 83.351 38.7554L84.8646 37.4853L87.4664 39.4653L86.6481 41.2634C87.086 41.8272 87.447 42.4466 87.7216 43.1055L89.6899 43.2786L90.127 46.5053L88.279 47.1975C88.1884 47.903 88.0049 48.5934 87.7334 49.2509L89.0035 50.7645L87.0294 53.3869L85.2312 52.5685C84.6678 53.0061 84.0482 53.3662 83.3891 53.6391L83.216 55.6074L79.9894 56.0474L79.2971 54.1965C78.5915 54.1082 77.9009 53.9257 77.2438 53.6538L75.7302 54.9239L73.1283 52.9439L73.9496 51.1458C73.5107 50.5828 73.1496 49.9631 72.876 49.3037L70.9078 49.1306L70.4678 45.8893L72.3187 45.1999C72.4076 44.4944 72.5901 43.8039 72.8614 43.1466L71.5736 41.6242L73.5536 39.0223L75.3518 39.8407C75.9148 39.4033 76.5332 39.0423 77.191 38.7671L77.364 36.7989L80.6054 36.3735L81.2976 38.2215V38.2098ZM80.3238 42.6773C79.5962 42.698 78.893 42.9438 78.311 43.3807C77.7289 43.8177 77.2966 44.4243 77.0735 45.1171C76.8505 45.8099 76.8477 46.5548 77.0655 47.2493C77.2833 47.9438 77.7111 48.5536 78.2898 48.995C78.8686 49.4363 79.5699 49.6873 80.2973 49.7135C81.0246 49.7398 81.7422 49.5399 82.3513 49.1414C82.9604 48.7429 83.4309 48.1655 83.6982 47.4885C83.9655 46.8115 84.0163 46.0683 83.8438 45.3613C83.6528 44.5786 83.1991 43.8852 82.5585 43.3967C81.9179 42.9082 81.1291 42.6543 80.3238 42.6773Z" fill="#EBEBEB"/>
<path d="M108.481 61.8936C108.912 62.0852 109.308 62.3469 109.654 62.668C110.624 63.5366 111.265 64.7138 111.467 66.0003C111.61 66.8895 111.542 67.8 111.267 68.6579C110.948 69.6466 110.37 70.5319 109.592 71.2216C109.176 71.5972 108.704 71.906 108.193 72.1368C107.665 72.3886 107.099 72.554 106.518 72.6266C105.289 72.796 104.039 72.5654 102.951 71.969C101.863 71.3726 100.996 70.4421 100.479 69.3149C100.226 68.7867 100.06 68.2211 99.9886 67.64C99.9102 67.0839 99.9171 66.5191 100.009 65.9651C100.174 64.9396 100.609 63.9766 101.271 63.1755C101.847 62.4826 102.578 61.9358 103.406 61.5797C104.602 61.0562 105.942 60.9629 107.199 61.3157C107.655 61.4396 108.088 61.6378 108.481 61.9024C108.463 61.9376 108.032 61.6707 107.167 61.4536C105.94 61.1571 104.649 61.28 103.5 61.8027C102.719 62.1579 102.031 62.6914 101.493 63.3603C100.873 64.1285 100.468 65.0477 100.32 66.0237C100.158 67.102 100.318 68.2042 100.781 69.1917C101.274 70.2516 102.093 71.1262 103.118 71.6881C104.143 72.2501 105.321 72.4699 106.48 72.3157C107.03 72.2494 107.566 72.0949 108.067 71.8581C108.553 71.6433 109.003 71.3533 109.399 70.9986C110.096 70.3917 110.631 69.6198 110.953 68.7535C111.276 67.8871 111.377 66.9537 111.247 66.0384C111.065 64.7937 110.473 63.645 109.566 62.7736C108.918 62.1459 108.457 61.9259 108.481 61.8936Z" fill="#EBEBEB"/>
<path d="M114.529 57.3231C114.54 57.2577 114.555 57.1931 114.573 57.1295C114.611 56.9857 114.661 56.7921 114.726 56.5428L115.359 54.2401L115.383 54.2988L110.736 51.7849L110.836 51.7673L108.733 54.1668L108.695 54.2108L108.639 54.1961C107.527 53.927 106.383 53.8056 105.239 53.8353H105.175L105.142 53.7796C104.658 52.8996 104.133 51.9697 103.585 50.99L103.72 51.0457L98.651 52.5359L98.7419 52.4039C98.8064 53.3924 98.8739 54.4777 98.9443 55.5924V55.6745L98.8739 55.7156C97.9028 56.3068 97.015 57.025 96.2339 57.8511L96.1752 57.9127L96.0931 57.8892L93.0219 57.0092L93.1891 56.9417L90.64 61.5999L90.6078 61.4121L92.9984 63.5271L93.0688 63.5887L93.0483 63.6796C92.7806 64.7813 92.6612 65.9138 92.6934 67.0471V67.1409L92.6083 67.1879L89.8158 68.7396L89.892 68.5548L91.3704 73.6265L91.2062 73.5121L94.3918 73.3156H94.4915L94.5414 73.4007C95.1302 74.371 95.8453 75.2587 96.668 76.0407C96.6886 76.114 96.627 75.8793 96.715 76.2049V76.2225V76.246V76.2959L96.6856 76.3927L96.6299 76.5833L96.5214 76.9705L96.2984 77.7391C96.1518 78.2524 96.0051 78.7628 95.8614 79.2703L95.7822 79.0825L100.414 81.6257L100.217 81.658L102.332 79.2703L102.373 79.1999L102.467 79.2233C103.573 79.4965 104.71 79.6218 105.849 79.5959H105.946L105.99 79.678C106.516 80.6225 107.032 81.5544 107.539 82.4735L107.36 82.4001L112.432 80.9335L112.326 81.086C112.262 80.0065 112.197 78.9417 112.136 77.9004V77.8095L112.212 77.7655C113.189 77.1782 114.084 76.463 114.872 75.6388L114.931 75.5772L115.013 75.6007L118.078 76.4807L117.923 76.5452L120.475 71.9193L120.501 72.0719L118.117 69.9511L118.064 69.9041L118.078 69.8367C118.357 68.7275 118.485 67.586 118.46 66.4428V66.3783L118.516 66.346L121.311 64.806L121.267 64.9175C120.704 62.9492 120.223 61.2743 119.8 59.8399L119.877 59.8897L116.688 60.0657H116.656L116.638 60.0393C116.198 59.2953 115.685 58.5967 115.107 57.9537L114.673 57.4844C114.621 57.435 114.573 57.3821 114.529 57.326C114.586 57.368 114.64 57.4141 114.69 57.4639C114.796 57.5607 114.951 57.7073 115.148 57.9156C115.746 58.5491 116.275 59.2431 116.729 59.9865L116.682 59.9601L119.868 59.746H119.924L119.941 59.8047C120.366 61.2361 120.862 62.9081 121.443 64.8705L121.464 64.9439L121.396 64.9791L118.609 66.5396L118.665 66.4428C118.697 67.6058 118.574 68.7679 118.298 69.8983L118.26 69.7809L120.657 71.8929L120.733 71.9575L120.683 72.0455L118.152 76.6831L118.099 76.7769L117.996 76.7476L114.925 75.8676L115.066 75.8295C114.263 76.6751 113.351 77.4091 112.353 78.0119L112.423 77.8799C112.488 78.9222 112.554 79.984 112.622 81.0655V81.1857L112.508 81.218L107.439 82.7023L107.319 82.7375L107.26 82.6289L105.709 79.8364L105.849 79.9185C104.682 79.9479 103.516 79.8216 102.382 79.5431L102.541 79.4932L100.426 81.8839L100.341 81.9807L100.229 81.9191L95.5944 79.3788L95.48 79.3172L95.5182 79.1911C95.6629 78.6846 95.8086 78.1752 95.9552 77.6628L96.1752 76.8913L96.2867 76.5071L96.3424 76.3135L96.3688 76.2167L96.3835 76.1697V76.1433V76.1257C96.4715 76.4513 96.407 76.2167 96.4275 76.2871C95.5832 75.4817 94.8503 74.5672 94.248 73.5679L94.3976 73.6471L91.2091 73.8407H91.08L91.0448 73.7175L89.5782 68.6457L89.543 68.5225L89.6544 68.4609L92.447 66.9151L92.3678 67.0559C92.3386 65.8894 92.4659 64.7243 92.7462 63.5916L92.796 63.7441C91.9659 63.0079 91.1504 62.2775 90.4054 61.6263L90.3174 61.5441L90.3731 61.4385L92.9222 56.8097L92.9779 56.7071L93.0894 56.7393L96.1547 57.6193L96.0139 57.6575C96.821 56.8168 97.7353 56.086 98.7331 55.4839L98.6686 55.6071C98.604 54.4953 98.5395 53.4071 98.4808 52.4215V52.3188L98.5806 52.2895L103.655 50.8228L103.743 50.7964L103.787 50.8785C104.33 51.8583 104.849 52.8028 105.33 53.674L105.233 53.6212C106.395 53.5951 107.556 53.7253 108.683 54.0084L108.589 54.0377L110.713 51.6559L110.757 51.606L110.816 51.6383L115.433 54.2049L115.471 54.2255V54.2665C115.177 55.2492 114.949 56.0089 114.79 56.534L114.611 57.1207C114.59 57.1905 114.563 57.2583 114.529 57.3231Z" fill="#EBEBEB"/>
<path d="M126.949 62.6267L122.347 44.3227L141.076 44.0117L126.949 62.6267Z" fill="#EBEBEB"/>
<path d="M135.422 47.5621L128.989 56.04L163.275 82.0547L169.707 73.5768L135.422 47.5621Z" fill="#EBEBEB"/>
<path d="M160.454 109.413L162.833 114.808C162.833 114.808 158.14 119.038 158.492 120.088L169.116 115.849L165.754 107.292L160.454 109.413Z" fill="#4C5BD4"/>
<path opacity="0.5" d="M160.454 109.413L162.833 114.808C162.833 114.808 158.14 119.038 158.492 120.088L169.116 115.849L165.754 107.292L160.454 109.413Z" fill="black"/>
<path d="M169.116 115.846L168.743 114.987L158.694 119.387C158.694 119.387 158.303 119.78 158.488 120.094L169.116 115.846Z" fill="#263238"/>
<path d="M179.162 117.061L182.142 122.15C182.142 122.15 177.971 126.884 178.429 127.893L188.502 122.473L184.187 114.341L179.162 117.061Z" fill="#4C5BD4"/>
<path opacity="0.5" d="M179.162 117.061L182.142 122.15C182.142 122.15 177.971 126.884 178.429 127.893L188.502 122.473L184.187 114.341L179.162 117.061Z" fill="black"/>
<path d="M188.502 122.458L188.027 121.657L178.552 127.154C178.552 127.154 178.209 127.591 178.429 127.879L188.502 122.458Z" fill="#263238"/>
<path d="M166.167 45.6926L159.638 46.203L159.421 42.548C159.421 42.548 156.781 42.5099 156.394 39.9374C156.006 37.3648 155.613 31.3867 155.613 31.3867C156.99 30.5515 158.564 30.0989 160.174 30.0756C161.784 30.0524 163.371 30.4595 164.771 31.2547L165.194 31.4952L166.167 45.6926Z" fill="#FFBE9D"/>
<path d="M159.412 42.5101C160.605 42.3655 161.728 41.8693 162.639 41.0845C162.639 41.0845 162.07 43.1085 159.465 43.2375L159.412 42.5101Z" fill="#EB996E"/>
<path d="M165.253 34.2059C165.294 34.1795 166.951 33.4315 167.142 35.2032C167.333 36.9749 165.517 36.7989 165.508 36.7491C165.499 36.6992 165.253 34.2059 165.253 34.2059Z" fill="#FFBE9D"/>
<path d="M165.977 36.0185C165.977 36.0185 166.009 36.0361 166.065 36.0567C166.141 36.0796 166.223 36.0722 166.294 36.0361C166.403 35.9527 166.488 35.8414 166.539 35.714C166.591 35.5865 166.607 35.4476 166.587 35.3116C166.576 35.1597 166.531 35.0123 166.455 34.8804C166.432 34.827 166.397 34.78 166.352 34.7432C166.307 34.7064 166.254 34.6811 166.197 34.6692C166.16 34.6638 166.123 34.6714 166.091 34.6907C166.06 34.71 166.036 34.7398 166.024 34.7748C166.006 34.8247 166.024 34.8599 166.024 34.8628C166.024 34.8657 165.983 34.8394 165.989 34.7631C165.994 34.7183 166.015 34.6768 166.047 34.6458C166.069 34.6242 166.094 34.6074 166.123 34.5963C166.151 34.5852 166.181 34.5801 166.212 34.5812C166.286 34.5882 166.357 34.6139 166.419 34.656C166.48 34.6981 166.53 34.7551 166.564 34.8217C166.656 34.9666 166.711 35.1317 166.725 35.3028C166.75 35.4596 166.728 35.6203 166.663 35.7649C166.597 35.9094 166.49 36.0313 166.355 36.1153C166.309 36.1361 166.258 36.1455 166.207 36.143C166.156 36.1404 166.106 36.1259 166.062 36.1007C165.983 36.0625 165.971 36.0244 165.977 36.0185Z" fill="#EB996E"/>
<path d="M156.725 35.4346C156.738 35.5304 156.788 35.6173 156.864 35.6769C156.94 35.7366 157.036 35.7643 157.133 35.7543C157.18 35.7517 157.226 35.7397 157.269 35.7188C157.311 35.6979 157.349 35.6686 157.38 35.6327C157.411 35.5968 157.435 35.5551 157.449 35.5099C157.463 35.4648 157.469 35.4172 157.464 35.37C157.452 35.274 157.403 35.1863 157.328 35.126C157.252 35.0657 157.156 35.0374 157.059 35.0474C157.012 35.0503 156.965 35.0627 156.923 35.0839C156.88 35.1051 156.842 35.1346 156.811 35.1706C156.78 35.2067 156.756 35.2486 156.741 35.2939C156.726 35.3393 156.721 35.3871 156.725 35.4346Z" fill="#263238"/>
<path d="M156.61 34.9417C156.663 34.9828 156.904 34.7364 157.309 34.6836C157.713 34.6308 158.024 34.7863 158.059 34.7305C158.095 34.6748 158.018 34.6249 157.881 34.5516C157.692 34.458 157.479 34.4242 157.27 34.4548C157.064 34.4831 156.873 34.5755 156.722 34.7188C156.613 34.8303 156.587 34.9241 156.61 34.9417Z" fill="#263238"/>
<path d="M160.576 34.989C160.59 35.0848 160.64 35.1717 160.716 35.2313C160.792 35.291 160.888 35.3188 160.984 35.3087C161.031 35.3058 161.078 35.2934 161.12 35.2724C161.162 35.2514 161.2 35.2221 161.231 35.1863C161.262 35.1505 161.285 35.1089 161.3 35.0639C161.314 35.019 161.32 34.9715 161.316 34.9244C161.303 34.8287 161.254 34.7415 161.178 34.6813C161.103 34.6211 161.007 34.5926 160.911 34.6018C160.863 34.6047 160.817 34.6172 160.774 34.6383C160.731 34.6595 160.693 34.689 160.662 34.7251C160.631 34.7611 160.607 34.803 160.593 34.8484C160.578 34.8937 160.572 34.9415 160.576 34.989Z" fill="#263238"/>
<path d="M160.515 34.4668C160.568 34.5108 160.808 34.2644 161.213 34.2087C161.618 34.1529 161.926 34.3113 161.964 34.2585C162.002 34.2057 161.923 34.1529 161.782 34.0796C161.595 33.9836 161.383 33.9487 161.175 33.9799C160.968 34.0084 160.776 34.1019 160.626 34.2468C160.518 34.3583 160.489 34.4492 160.515 34.4668Z" fill="#263238"/>
<path d="M159.491 37.6052C159.273 37.5718 159.052 37.5639 158.831 37.5817C158.729 37.5817 158.629 37.5817 158.603 37.5113C158.582 37.4131 158.592 37.311 158.629 37.218C158.688 36.9599 158.752 36.6871 158.82 36.4055C159.005 35.714 159.135 35.0087 159.207 34.2964C158.966 34.9707 158.78 35.6632 158.65 36.3673L158.474 37.1828C158.425 37.3135 158.425 37.4569 158.474 37.5876C158.493 37.6212 158.52 37.6499 158.553 37.6712C158.585 37.6926 158.623 37.7061 158.661 37.7108C158.719 37.7197 158.777 37.7197 158.834 37.7108C159.057 37.7037 159.278 37.6682 159.491 37.6052Z" fill="#263238"/>
<path d="M160.694 37.717C160.629 37.717 160.694 38.1512 160.362 38.509C160.031 38.8669 159.573 38.8816 159.579 38.9432C159.585 39.0048 159.694 39.0136 159.887 38.9901C160.139 38.9584 160.372 38.839 160.544 38.6528C160.711 38.4739 160.8 38.2369 160.794 37.9928C160.785 37.8109 160.723 37.7112 160.694 37.717Z" fill="#263238"/>
<path d="M160.192 32.9299C160.248 33.0326 160.635 32.9299 161.108 32.9299C161.58 32.9299 161.988 32.9945 162.023 32.8889C162.043 32.839 161.964 32.7451 161.797 32.663C161.578 32.5609 161.337 32.5126 161.096 32.5222C160.854 32.5283 160.617 32.5905 160.404 32.7041C160.245 32.7862 160.16 32.883 160.192 32.9299Z" fill="#263238"/>
<path d="M156.596 33.7746C156.678 33.8538 156.939 33.7247 157.265 33.6719C157.59 33.6191 157.881 33.6485 157.93 33.5458C157.951 33.4959 157.895 33.4109 157.763 33.3434C157.586 33.2623 157.389 33.2377 157.197 33.273C157.004 33.3019 156.825 33.3912 156.687 33.5282C156.584 33.6367 156.558 33.7335 156.596 33.7746Z" fill="#263238"/>
<path d="M154.129 29.9347C154.089 29.7772 154.09 29.6123 154.13 29.455C154.171 29.2977 154.25 29.1531 154.361 29.0342C154.477 28.9225 154.629 28.8556 154.79 28.8454C154.951 28.8352 155.111 28.8823 155.241 28.9784C155.202 28.8741 155.185 28.7628 155.192 28.6517C155.198 28.5406 155.228 28.4321 155.279 28.3331C155.33 28.2342 155.402 28.1471 155.488 28.0774C155.575 28.0077 155.676 27.9569 155.783 27.9283C156.2 27.8432 156.605 28.1102 157.027 28.163C157.441 28.1895 157.853 28.0815 158.2 27.855C158.561 27.6496 158.887 27.3856 159.253 27.192C160.027 26.7795 160.932 26.6888 161.772 26.9399C162.612 27.1909 163.318 27.7633 163.738 28.5326C164.016 28.42 164.321 28.3951 164.613 28.4612C164.905 28.5272 165.17 28.6811 165.372 28.9022C165.772 29.3543 165.988 29.9389 165.98 30.5419C165.98 30.9445 165.935 31.3458 165.848 31.7387C165.848 31.771 165.848 31.8032 165.862 31.8384C166.035 33.2582 166.109 34.9448 165.507 35.0387C164.454 35.203 164.428 33.1819 164.428 33.1819C163.064 32.8651 163.272 30.8587 162.908 30.6123C162.545 30.3659 161.77 29.7763 159.259 31.5392C158.316 32.1319 157.209 32.4121 156.097 32.34H156.027H156.009H155.986C155.733 32.3127 155.485 32.2464 155.252 32.1435C154.978 32.0331 154.745 31.8378 154.589 31.5862C154.515 31.4597 154.478 31.3142 154.484 31.1674C154.491 31.0205 154.539 30.8787 154.625 30.759C154.382 30.5386 154.21 30.252 154.129 29.9347Z" fill="#263238"/>
<path d="M159.412 44.7862L159.703 55.0176L166.068 41.316L165.909 40.0459L159.412 44.7862Z" fill="#EBEBEB"/>
<path d="M163.633 75.3661C163.402 75.4423 150.14 88.8447 150.434 91.253C150.727 93.6613 160.163 111.493 160.163 111.493L166.91 108.175L160.595 92.5466L160.677 91.5757L168.394 85.2543L167.981 75.0933L163.633 75.3661Z" fill="#263238"/>
<path d="M166.49 78.0092C166.646 78.2409 168.94 99.2964 169.556 100.385C170.172 101.473 179.388 119.451 179.388 119.451L186.232 116.694L177.877 96.938L178.828 78.2409L178.315 72.9609L167.98 75.0935L166.49 78.0092Z" fill="#263238"/>
<path d="M169.435 100.027C169.413 99.9583 169.398 99.8875 169.391 99.8158C169.364 99.6632 169.332 99.4608 169.291 99.2086C169.209 98.663 169.092 97.9032 168.951 96.9704C168.678 95.0608 168.303 92.4531 167.886 89.5726C167.47 86.692 167.129 84.0755 166.865 82.1689C166.745 81.2302 166.645 80.4675 166.572 79.9219L166.502 79.3089C166.494 79.2377 166.494 79.1659 166.502 79.0947C166.502 79.0947 166.519 79.1681 166.546 79.3059C166.572 79.4438 166.604 79.6609 166.645 79.9131L166.983 82.1542C167.258 84.0609 167.634 86.6686 168.047 89.5521C168.461 92.4355 168.807 95.0462 169.068 96.9558C169.191 97.8915 169.291 98.6542 169.362 99.1998C169.391 99.455 169.417 99.6603 169.435 99.8128C169.442 99.884 169.442 99.9558 169.435 100.027Z" fill="#455A64"/>
<path d="M177.704 96.3335C177.618 96.8999 177.484 97.4582 177.305 98.0026C177.172 98.5596 176.992 99.1042 176.766 99.6306C176.855 99.0678 176.992 98.5134 177.173 97.9732C177.302 97.412 177.479 96.8633 177.704 96.3335Z" fill="#455A64"/>
<path d="M178.74 101.103C178.587 100.952 178.46 100.777 178.365 100.584C177.854 99.6744 177.632 98.6309 177.728 97.5921C177.735 97.378 177.779 97.1667 177.857 96.9673C177.695 98.4048 178.004 99.8561 178.737 101.103H178.74Z" fill="#455A64"/>
<path d="M158.4 90.2734C159.221 90.5968 159.894 91.2107 160.292 91.9982C160.257 92.0217 159.928 91.5436 159.412 91.0713C158.896 90.599 158.368 90.3116 158.4 90.2734Z" fill="#455A64"/>
<path d="M159.427 89.6514C159.701 89.8407 159.925 90.0946 160.078 90.3906C160.275 90.6608 160.403 90.9749 160.45 91.3058C160.27 91.0355 160.104 90.7554 159.955 90.4668C159.764 90.2049 159.588 89.9327 159.427 89.6514Z" fill="#455A64"/>
<path d="M160.342 58.9334L162.035 67.3403L163.413 79.0736C163.413 79.0736 169.098 78.2787 171.521 77.5131C174.331 76.6331 180.444 75.8646 180.444 75.8646L179.412 76.8854C181.6 76.2723 182.994 74.1867 182.994 74.1867C179.227 70.6931 176 63.4889 176 63.4889L173.135 49.2563C173.135 49.2563 172.7 47.2499 172.436 46.3553C172.172 45.4606 167.822 42.583 167.218 42.2193L166.84 42.0403L166.719 40.8993L166.271 40.6294L161.565 44.9091C160.648 45.7401 160.065 46.8768 159.926 48.1065C159.727 49.8835 159.658 51.6727 159.72 53.4598C159.776 55.1465 160.342 58.9334 160.342 58.9334Z" fill="#4C5BD4"/>
<path d="M163.574 44.3757C163.574 44.3757 161.087 45.7103 160.656 46.8426C160.224 47.9749 161.506 60.3887 161.506 60.3887L152.568 60.5589L152.533 65.8829C152.533 65.8829 166.728 67.0063 167.282 66.2378C168.027 65.1994 168.895 55.4989 168.895 55.4989L169.218 48.5175C169.218 48.5175 168.405 43.1965 163.574 44.3757Z" fill="#4C5BD4"/>
<g opacity="0.3">
<path opacity="0.3" d="M162.034 67.3408C163.191 67.7026 164.41 67.8155 165.613 67.6722C166.871 67.5578 168.153 66.8685 168.629 65.6952C168.992 64.8005 168.84 63.7885 168.895 62.8234C168.945 61.9816 169.151 61.1602 169.28 60.3301C169.409 59.5 168.986 57.9834 168.693 57.1768C168.693 57.1768 168.376 62.9378 167.473 65.3578C167.372 65.6958 167.182 66 166.921 66.2378C166.602 66.496 166.162 66.5312 165.748 66.5605C164.607 66.6808 161.855 66.4813 161.855 66.4813" fill="black"/>
</g>
<path d="M169.212 49.2798C169.216 49.3227 169.216 49.3659 169.212 49.4089C169.212 49.4969 169.212 49.6201 169.198 49.7785C169.198 50.1129 169.159 50.591 169.13 51.2041C169.101 51.8171 169.057 52.5827 169.01 53.4598C168.963 54.3369 168.928 55.343 168.819 56.4459C168.711 57.5489 168.608 58.7574 168.47 60.0539C168.332 61.3505 168.177 62.735 167.927 64.1811C167.869 64.5507 167.786 64.9162 167.681 65.2753C167.559 65.6512 167.336 65.9861 167.036 66.2433C166.727 66.5092 166.331 66.6504 165.924 66.6393C165.531 66.6393 165.135 66.6393 164.751 66.6393C163.155 66.5982 161.506 66.519 159.817 66.4251C157.279 66.2873 154.83 66.1318 152.551 65.9675H152.486V65.903C152.486 64.011 152.507 62.2305 152.519 60.5849V60.5233H152.58L161.207 60.3385L163.618 60.2974H164.255C164.399 60.2974 164.472 60.2974 164.472 60.2974C164.472 60.2974 164.399 60.2974 164.255 60.3121L163.621 60.3385L161.207 60.4147L152.583 60.6523L152.645 60.5907C152.645 62.2334 152.645 64.0139 152.627 65.9059L152.56 65.8355C154.845 65.991 157.291 66.1494 159.826 66.2873C161.512 66.3782 163.161 66.4633 164.754 66.5043C165.152 66.5043 165.545 66.519 165.927 66.5043C166.302 66.5184 166.669 66.3894 166.953 66.1435C167.234 65.9038 167.442 65.5911 167.555 65.2401C167.658 64.8876 167.739 64.529 167.798 64.1665C168.048 62.7262 168.206 61.3417 168.356 60.0598C168.505 58.7779 168.62 57.5606 168.722 56.4577C168.825 55.3547 168.875 54.3515 168.933 53.4745C168.992 52.5974 169.039 51.8435 169.077 51.2217C169.115 50.5998 169.151 50.1305 169.174 49.799C169.174 49.6406 169.195 49.5057 169.203 49.4265C169.201 49.3774 169.204 49.3282 169.212 49.2798Z" fill="#263238"/>
<path d="M154.294 65.8033C154.224 64.9447 154.204 64.0829 154.232 63.222C154.213 62.3605 154.242 61.4987 154.32 60.6406C154.389 61.4992 154.41 62.361 154.382 63.222C154.401 64.0834 154.372 64.9452 154.294 65.8033Z" fill="#263238"/>
<path d="M153.349 61.4507C153.331 61.4507 153.419 61.3393 153.589 61.3979C153.639 61.4153 153.683 61.4467 153.715 61.4883C153.747 61.53 153.767 61.5801 153.771 61.6326C153.779 61.6981 153.766 61.7643 153.734 61.8219C153.702 61.8795 153.652 61.9256 153.592 61.9535C153.533 61.9814 153.466 61.9898 153.401 61.9775C153.336 61.9652 153.277 61.9328 153.232 61.8848C153.194 61.8501 153.166 61.8061 153.15 61.7573C153.135 61.7084 153.133 61.6563 153.144 61.6062C153.185 61.4361 153.302 61.4009 153.305 61.4185C153.308 61.4361 153.249 61.4977 153.246 61.6179C153.245 61.6495 153.251 61.6808 153.264 61.7097C153.277 61.7386 153.296 61.7644 153.32 61.7851C153.348 61.8088 153.383 61.8243 153.419 61.83C153.456 61.8357 153.493 61.8313 153.528 61.8174C153.56 61.8008 153.587 61.7756 153.607 61.7445C153.626 61.7135 153.636 61.6778 153.636 61.6414C153.636 61.6107 153.627 61.5807 153.611 61.5545C153.595 61.5282 153.572 61.5066 153.545 61.4918C153.443 61.4302 153.358 61.4683 153.349 61.4507Z" fill="#263238"/>
<path d="M173.178 50.4771C173.178 50.4771 177.83 56.5578 178.396 58.2122C178.962 59.8666 178.525 62.2485 177.578 63.3866C176.63 64.5248 175.868 64.0613 175.868 64.0613L173.178 50.4771Z" fill="#4C5BD4"/>
<path d="M175.707 63.5743C175.328 63.7111 174.934 63.8027 174.534 63.8471C174.144 63.9391 173.744 63.9825 173.343 63.9762C173.722 63.839 174.116 63.7474 174.516 63.7034C174.906 63.6114 175.306 63.568 175.707 63.5743Z" fill="#263238"/>
<path d="M176.587 68.0532C176.639 68.1554 176.682 68.2625 176.713 68.373C176.783 68.5842 176.889 68.8834 177.027 69.253C177.388 70.2161 177.805 71.1574 178.277 72.0719C178.751 72.9838 179.272 73.8709 179.837 74.7295C180.054 75.061 180.233 75.3162 180.359 75.5068C180.431 75.5973 180.492 75.6957 180.541 75.8002C180.455 75.723 180.379 75.6364 180.312 75.542C180.174 75.369 179.981 75.1138 179.752 74.7882C179.157 73.9454 178.62 73.0634 178.145 72.1482C177.669 71.2296 177.263 70.2765 176.93 69.297C176.804 68.9215 176.71 68.6135 176.657 68.3994C176.619 68.2876 176.595 68.1712 176.587 68.0532Z" fill="#263238"/>
<g opacity="0.3">
<path opacity="0.3" d="M176.909 68.7749C177.648 70.089 178.405 71.4149 179.526 72.4328C179.95 72.7546 180.334 73.1259 180.67 73.5386C180.963 73.9757 181.101 74.5858 180.813 75.0346C180.771 75.1183 180.703 75.1869 180.621 75.2315C180.538 75.276 180.443 75.2943 180.35 75.284C180.227 75.237 180.124 75.1502 180.057 75.0376C178.654 73.2307 177.605 71.1743 176.968 68.9773" fill="black"/>
</g>
<g opacity="0.3">
<path opacity="0.3" d="M176.293 64.0377C176.93 63.5801 177.153 62.7118 177.059 61.9315C176.965 61.1513 176.607 60.4355 176.288 59.7227C175.321 57.5913 174.564 55.3711 174.026 53.0934L173.571 51.4067L175.871 63.4334L176.293 64.0377Z" fill="black"/>
</g>
<path d="M164.786 43.8357C165.061 43.5286 165.354 43.2395 165.666 42.9703C165.941 42.6592 166.235 42.3653 166.546 42.0903C166.35 42.4558 166.092 42.7844 165.783 43.0613C165.502 43.3789 165.164 43.6415 164.786 43.8357Z" fill="#263238"/>
<path d="M164.317 44.8799C164.317 44.9063 164.047 44.9884 163.636 45.1908C162.558 45.7256 161.69 46.6053 161.169 47.69C160.97 48.1036 160.876 48.3794 160.876 48.3735C160.875 48.3047 160.886 48.2362 160.908 48.1711C160.954 47.9918 161.012 47.8163 161.084 47.646C161.569 46.5065 162.47 45.5949 163.604 45.097C163.773 45.0228 163.948 44.962 164.126 44.9151C164.187 44.8929 164.252 44.881 164.317 44.8799Z" fill="#263238"/>
<path d="M176.804 65.2491C176.774 65.2135 176.75 65.174 176.731 65.1318L176.546 64.7827C176.379 64.4571 176.153 64.0142 175.874 63.4745C175.581 62.1427 175.173 60.2009 174.724 58.039C174.308 55.9886 173.947 54.1435 173.653 52.8001L173.36 51.2073C173.331 51.0342 173.304 50.8905 173.284 50.7731C173.272 50.7233 173.267 50.6719 173.269 50.6206C173.289 50.6678 173.304 50.717 173.313 50.7673C173.34 50.8817 173.375 51.0254 173.416 51.1985C173.504 51.5915 173.624 52.1254 173.768 52.7795C174.061 54.1347 174.443 55.9769 174.871 58.0097C175.32 60.1715 175.713 62.1163 175.974 63.4569C176.235 64.0054 176.446 64.4542 176.601 64.7857L176.766 65.1465C176.782 65.1793 176.795 65.2137 176.804 65.2491Z" fill="#263238"/>
<path d="M161.354 60.3856C161.317 60.2415 161.293 60.0942 161.284 59.9456C161.251 59.6347 161.207 59.2269 161.155 58.7371C161.049 57.7192 160.914 56.3083 160.776 54.7536C160.638 53.1989 160.521 51.7851 160.442 50.7613C160.407 50.2715 160.38 49.8637 160.357 49.5528C160.343 49.4045 160.343 49.2552 160.357 49.1069C160.39 49.2517 160.413 49.3988 160.424 49.5469C160.457 49.8579 160.501 50.2656 160.556 50.7555C160.659 51.7733 160.794 53.1813 160.932 54.7389C161.07 56.2965 161.187 57.7075 161.266 58.7283C161.301 59.2181 161.328 59.6259 161.351 59.9397C161.363 60.0881 161.364 60.2371 161.354 60.3856Z" fill="#263238"/>
<path d="M152.683 61.1807C152.683 61.1807 150.753 59.714 150.284 59.6289C149.923 59.5615 147.773 59.5996 146.784 59.6289C146.599 59.6273 146.421 59.6984 146.289 59.8268C146.156 59.9552 146.079 60.1307 146.074 60.3153C146.071 60.3387 146.071 60.3623 146.074 60.3857C146.099 60.5028 146.156 60.6106 146.239 60.6967C146.322 60.7828 146.428 60.8438 146.544 60.8727C146.394 60.9208 146.263 61.0151 146.17 61.142C146.076 61.269 146.026 61.4221 146.024 61.5796C146.024 62.1369 146.69 62.2543 146.69 62.2543L146.593 62.3423C146.51 62.4269 146.451 62.5323 146.422 62.6476C146.393 62.7628 146.395 62.8838 146.429 62.9978C146.462 63.1119 146.525 63.2149 146.612 63.2961C146.699 63.3774 146.806 63.4339 146.922 63.4599L147.215 63.5303C147.103 63.5759 147.005 63.6519 146.933 63.7498C146.861 63.8477 146.818 63.9636 146.808 64.0847C146.808 64.818 148.474 64.9647 148.474 64.9647C148.474 64.9647 152.56 65.6129 152.648 65.5836C152.736 65.5543 152.683 61.1807 152.683 61.1807Z" fill="#FFBE9D"/>
<path d="M147.162 58.7487C147.18 58.9922 147.239 59.5085 147.649 59.7402L149.929 59.6522C149.929 59.6522 148.233 59.0655 147.99 58.7722C147.895 58.6521 147.786 58.5446 147.664 58.4525C147.613 58.4184 147.554 58.3994 147.493 58.3976C147.432 58.3958 147.372 58.4113 147.32 58.4423C147.267 58.4733 147.225 58.5185 147.197 58.5728C147.169 58.627 147.157 58.688 147.162 58.7487Z" fill="#FFBE9D"/>
<path d="M148.855 59.6289C148.515 59.7094 148.165 59.7341 147.817 59.7022C147.469 59.7228 147.12 59.6981 146.778 59.6289C147.12 59.5524 147.471 59.5276 147.82 59.5555C148.167 59.5381 148.514 59.5627 148.855 59.6289Z" fill="#EB996E"/>
<path d="M148.345 60.9017C148.056 60.995 147.75 61.026 147.447 60.9926C147.146 61.0039 146.846 60.9509 146.567 60.8372C146.865 60.8049 147.165 60.8049 147.462 60.8372C147.758 60.8254 148.054 60.847 148.345 60.9017Z" fill="#EB996E"/>
<path d="M149.504 60.7375C149.539 60.761 149.504 60.8842 149.366 60.9663C149.228 61.0485 149.105 61.0397 149.102 60.9986C149.099 60.9575 149.184 60.9077 149.284 60.8431C149.383 60.7786 149.468 60.7199 149.504 60.7375Z" fill="#EB996E"/>
<path d="M148.594 62.3454C147.943 62.4217 147.283 62.4 146.638 62.2808C146.961 62.2165 147.292 62.2017 147.62 62.2368C147.949 62.2244 148.277 62.261 148.594 62.3454Z" fill="#EB996E"/>
<path d="M149.893 61.7349C149.911 61.7349 149.946 61.7759 149.958 61.8639C149.97 61.9838 149.936 62.1038 149.861 62.1985C149.787 62.2933 149.678 62.3553 149.559 62.3714C149.471 62.3714 149.418 62.3714 149.418 62.3391C149.418 62.3069 149.614 62.2746 149.744 62.1074C149.873 61.9402 149.858 61.7437 149.893 61.7349Z" fill="#EB996E"/>
<path d="M148.94 63.7559C148.646 63.7919 148.349 63.78 148.06 63.7207C147.758 63.7101 147.461 63.6487 147.18 63.5388C147.473 63.5029 147.77 63.5148 148.06 63.574C148.361 63.5863 148.658 63.6477 148.94 63.7559Z" fill="#EB996E"/>
<path d="M150.21 63.0371C150.227 63.0371 150.256 63.084 150.254 63.175C150.242 63.2827 150.199 63.3847 150.13 63.4683C149.966 63.6707 149.778 63.744 149.758 63.7147C149.737 63.6854 149.878 63.5475 150.016 63.3774C150.154 63.2072 150.186 63.0459 150.21 63.0371Z" fill="#EB996E"/>
<path d="M178.64 77.0031C179.043 76.9642 179.432 76.8315 179.775 76.6155C180.118 76.3995 180.405 76.1063 180.614 75.7594C180.661 75.6802 180.702 75.5716 180.641 75.5042C180.617 75.4843 180.589 75.4695 180.559 75.4604C180.53 75.4513 180.498 75.4483 180.468 75.4514C179.83 75.4466 179.196 75.5559 178.596 75.774C178.561 75.782 178.528 75.7974 178.499 75.8192C178.47 75.8409 178.446 75.8685 178.429 75.9002C178.413 75.9498 178.413 76.0031 178.429 76.0527C178.508 76.3607 178.587 76.6687 178.669 76.9796" fill="#4C5BD4"/>
<g opacity="0.4">
<path opacity="0.4" d="M178.64 77.0031C179.043 76.9642 179.432 76.8315 179.775 76.6155C180.118 76.3995 180.405 76.1063 180.614 75.7594C180.661 75.6802 180.702 75.5716 180.641 75.5042C180.617 75.4843 180.589 75.4695 180.559 75.4604C180.53 75.4513 180.498 75.4483 180.468 75.4514C179.83 75.4466 179.196 75.5559 178.596 75.774C178.561 75.782 178.528 75.7974 178.499 75.8192C178.47 75.8409 178.446 75.8685 178.429 75.9002C178.413 75.9498 178.413 76.0031 178.429 76.0527C178.508 76.3607 178.587 76.6687 178.669 76.9796" fill="black"/>
</g>
<path d="M159.412 44.7861C159.412 44.7861 158.473 47.9336 158.731 47.7547C158.99 47.5757 159.55 47.08 159.55 47.08L159.412 44.7861Z" fill="#EBEBEB"/>
<path d="M159.465 46.2383L158.954 47.4644C158.903 47.5913 158.87 47.7245 158.855 47.8604C158.811 48.2036 158.764 48.8313 158.966 48.8753C159.069 48.8811 159.171 48.8638 159.266 48.8247C159.361 48.7856 159.446 48.7258 159.515 48.6495L159.465 46.2383Z" fill="#263238"/>
<path d="M175.364 46.4318C175.364 46.4318 170.351 44.4752 167.573 46.203C164.795 47.9307 164.29 50.6881 162.636 50.6881C159.409 50.6881 159.515 48.4118 159.515 48.4118L158.828 48.62C158.828 49.0864 158.083 52.4334 161.468 52.8411C164.853 53.2489 166.297 48.623 169.353 48.62C171.265 48.6524 173.129 49.2249 174.73 50.2715L176.927 48.884L175.364 46.4318Z" fill="#263238"/>
<path d="M162.507 52.8002C163.371 52.2851 164.049 51.507 164.44 50.5797C165.22 48.7815 166.892 46.7311 168.288 46.2149C169.685 45.6986 172.914 45.3349 175.147 46.8015L176.575 48.7317L174.721 49.9373C173.679 49.3896 172.583 48.9503 171.451 48.6261C169.145 47.9837 167.743 48.7111 166.402 49.9783C166.32 50.0575 166.241 50.1367 166.176 50.213C165.529 50.9036 164.818 51.5321 164.053 52.0903C163.387 52.5391 162.8 52.8002 162.507 52.8002Z" fill="#455A64"/>
<path d="M58.6675 25.4818C55.6931 25.9423 53.5136 23.4284 52.8184 21.2196C52.176 19.1663 51.8709 17.0279 50.9704 15.0596C49.7091 12.3316 46.3709 11.0703 43.376 11.3226C40.3811 11.5748 37.3597 13.0826 34.708 14.4935L35.4413 30.9202C35.4413 30.9202 41.2112 24.7602 43.9861 24.6604C48.6149 24.4756 48.3627 32.0818 52.8565 33.2052C52.8565 33.2052 59.1573 34.9124 63.4165 29.4124C66.1181 25.9188 66.3499 21.6772 66.3499 21.6772C66.3499 21.6772 64.2789 24.6164 58.6675 25.4818Z" fill="#4C5BD4"/>
<path d="M34.5788 11.7832C34.6198 11.7832 35.4294 29.2307 36.3857 50.7525C37.342 72.2744 38.087 89.7277 38.046 89.7307C38.0049 89.7336 37.1982 72.2861 36.239 50.7584C35.2798 29.2307 34.5377 11.7861 34.5788 11.7832Z" fill="#263238"/>
<g opacity="0.2">
<path opacity="0.2" d="M50.4541 20.0815C50.958 21.8172 51.6941 23.4768 52.6424 25.0154C53.4989 26.3559 54.7984 27.4853 56.356 27.8109C56.6411 27.8493 56.9207 27.9211 57.189 28.025C57.3228 28.0794 57.4395 28.1689 57.5267 28.284C57.6139 28.3991 57.6685 28.5356 57.6848 28.6791C57.6848 29.1103 57.2536 29.3919 56.8664 29.5826C56.3285 29.8777 55.7533 30.0987 55.1562 30.2397C54.5696 30.3511 54.0826 30.4157 53.669 29.9463C53.269 29.5541 52.9093 29.1227 52.5954 28.6586C51.2373 26.3442 50.5656 23.0354 50.4541 20.4189" fill="black"/>
</g>
<path d="M54.4866 30.6326C54.4866 30.6326 54.4397 30.6121 54.3546 30.5563C54.2315 30.476 54.113 30.3889 53.9997 30.2953C53.5819 29.9496 53.2129 29.549 52.9026 29.1043C52.4431 28.4443 52.0732 27.7262 51.8026 26.9689C51.4736 26.045 51.2022 25.1016 50.9901 24.1441C50.5872 22.4089 50.333 20.6425 50.2304 18.8641C50.1922 18.1835 50.1864 17.6321 50.1864 17.2507C50.1864 17.0718 50.1864 16.9281 50.1864 16.8107C50.1814 16.76 50.1814 16.7089 50.1864 16.6582C50.1996 16.7079 50.2055 16.7593 50.204 16.8107C50.204 16.9281 50.204 17.0718 50.2216 17.2478C50.2392 17.6291 50.2597 18.1806 50.3125 18.8582C50.4458 20.626 50.7125 22.3813 51.1104 24.1089C51.3256 25.0614 51.596 26.0007 51.92 26.9219C52.1858 27.6698 52.5445 28.3813 52.9877 29.0398C53.2858 29.4832 53.6375 29.8882 54.0349 30.2454C54.3194 30.5065 54.4954 30.6238 54.4866 30.6326Z" fill="#263238"/>
<path d="M16.6436 93.1978L55.9414 99.6306V93.1978H16.6436Z" fill="#E0E0E0"/>
<path d="M62.4268 107.732L101.728 114.165V107.732H62.4268Z" fill="#E0E0E0"/>
<path d="M107.896 121.634L147.197 128.067V121.634H107.896Z" fill="#E0E0E0"/>
<path d="M153.308 132.698L192.605 139.131V132.698H153.308Z" fill="#E0E0E0"/>
<path d="M55.9414 88.3813H16.6436V93.2008H55.9414V88.3813Z" fill="#4C5BD4"/>
<g opacity="0.3">
<path opacity="0.3" d="M55.941 88.3813H43.6768V93.2008H55.941V88.3813Z" fill="black"/>
</g>
<path d="M101.725 102.913H62.4268V107.733H101.725V102.913Z" fill="#4C5BD4"/>
<g opacity="0.3">
<path opacity="0.3" d="M101.728 102.913H89.4639V107.733H101.728V102.913Z" fill="black"/>
</g>
<path d="M147.197 116.814H107.899V121.634H147.197V116.814Z" fill="#4C5BD4"/>
<g opacity="0.3">
<path opacity="0.3" d="M147.198 116.814H134.934V121.634H147.198V116.814Z" fill="black"/>
</g>
<path d="M192.667 127.878H153.369V132.698H192.667V127.878Z" fill="#4C5BD4"/>
<g opacity="0.3">
<path opacity="0.3" d="M192.668 127.878H180.403V132.698H192.668V127.878Z" fill="black"/>
</g>
<path d="M168.45 110.34C168.451 110.551 168.514 110.757 168.632 110.933C168.749 111.108 168.916 111.244 169.111 111.325C169.307 111.405 169.521 111.426 169.728 111.384C169.935 111.343 170.125 111.241 170.274 111.091C170.423 110.942 170.524 110.752 170.565 110.544C170.606 110.337 170.585 110.123 170.504 109.928C170.423 109.733 170.286 109.566 170.111 109.449C169.935 109.332 169.729 109.27 169.518 109.27C169.377 109.27 169.238 109.297 169.109 109.351C168.979 109.405 168.861 109.484 168.762 109.583C168.663 109.683 168.584 109.801 168.531 109.931C168.477 110.061 168.45 110.2 168.45 110.34Z" fill="#EBEBEB"/>
</svg>
