<svg width="46" height="46" viewBox="0 0 46 46" fill="none" xmlns="http://www.w3.org/2000/svg">
<g clip-path="url(#clip0)">
<path d="M35.6299 23.8391C34.5693 23.8391 33.5676 23.3722 32.8743 22.5529C32.2382 21.801 31.9307 20.8425 32.0043 19.874H26.2832C25.7871 19.874 25.3848 19.4717 25.3848 18.9755V12.9167C25.3848 12.65 25.5032 12.3971 25.7081 12.2264C25.913 12.0557 26.1835 11.985 26.4454 12.033L26.4992 12.0428C27.0396 12.1418 27.5915 11.9965 28.0135 11.6446C28.4356 11.2927 28.6777 10.7758 28.6777 10.2262C28.6777 9.67671 28.4357 9.15984 28.0136 8.80801C27.5916 8.45627 27.0395 8.31127 26.499 8.41009L26.4453 8.41998C26.1828 8.46804 25.9129 8.39716 25.7081 8.22645C25.5034 8.05575 25.3849 7.80293 25.3849 7.53627V0.898438C25.3849 0.402231 25.7872 0 26.2833 0H41.1877C43.4325 0 45.2588 1.82625 45.2588 4.07109V18.9755C45.2588 19.4717 44.8566 19.874 44.3604 19.874H39.2575C39.3421 20.8212 39.0537 21.7654 38.4439 22.5079C37.7622 23.338 36.7558 23.823 35.6827 23.8387C35.6651 23.839 35.6475 23.8391 35.6299 23.8391ZM27.1817 18.0771H33.061C33.3276 18.0771 33.5804 18.1955 33.7512 18.4003C33.9218 18.605 33.9929 18.875 33.9448 19.1373L33.8224 19.8065C33.7187 20.3733 33.8731 20.9513 34.2461 21.3922C34.6074 21.8192 35.1091 22.0488 35.6565 22.0419C36.1999 22.034 36.7097 21.7881 37.0553 21.3674C37.4006 20.9469 37.5425 20.3987 37.4445 19.8633L37.3117 19.1372C37.2637 18.8749 37.3347 18.6049 37.5054 18.4002C37.6761 18.1954 37.9289 18.077 38.1955 18.077H43.4619V4.07109C43.4619 2.81705 42.4417 1.79688 41.1877 1.79688H27.1817V6.5992C27.903 6.66829 28.5937 6.95238 29.164 7.42783C29.9969 8.12206 30.4745 9.14205 30.4745 10.2262C30.4745 11.3104 29.9969 12.3305 29.164 13.0247C28.5936 13.5003 27.903 13.7845 27.1817 13.8536V18.0771Z" fill="url(#paint0_linear)"/>
<path d="M37.7938 31.1767C38.29 31.1767 38.6922 30.7744 38.6922 30.2782V27.0253C38.6922 26.5291 38.29 26.1269 37.7938 26.1269H31.629C31.3624 26.1269 31.1096 26.2453 30.9389 26.4501C30.7682 26.6548 30.6972 26.9248 30.7452 27.1871L30.878 27.9132C30.9761 28.4486 30.8342 28.9968 30.4887 29.4173C30.1432 29.8381 29.6333 30.0839 29.0901 30.0918C28.542 30.0979 28.0409 29.8691 27.6797 29.4421C27.3067 29.0012 27.1522 28.4232 27.2559 27.8565L27.3784 27.1872C27.4263 26.9249 27.3554 26.6549 27.1847 26.4501C27.014 26.2453 26.7611 26.1269 26.4946 26.1269H20.6152V21.9034C21.3365 21.8343 22.0272 21.5502 22.5976 21.0746C23.4304 20.3803 23.908 19.3603 23.908 18.2761C23.908 17.1919 23.4304 16.1719 22.5975 15.4776C22.0271 15.0022 21.3365 14.7181 20.6152 14.649V8.94824C20.6152 8.45204 20.213 8.0498 19.7167 8.0498H4.8123C2.56746 8.0498 0.741211 9.87606 0.741211 12.1209V41.9298C0.741211 44.1746 2.56746 46.0009 4.8123 46.0009H34.6212C36.8659 46.0009 38.6923 44.1746 38.6923 41.9298V39.3224C38.6923 38.8262 38.2901 38.424 37.7938 38.424C37.2977 38.424 36.8954 38.8262 36.8954 39.3224V41.9298C36.8954 43.1837 35.8752 44.204 34.6212 44.204H20.6152V38.4089C20.6152 38.1424 20.4969 37.8896 20.2922 37.7189C20.0875 37.5482 19.8175 37.4771 19.5554 37.525L19.501 37.5349C18.9605 37.6338 18.4084 37.4889 17.9865 37.1372C17.5645 36.7854 17.3223 36.2686 17.3223 35.7185C17.3223 35.1691 17.5644 34.6521 17.9865 34.3003C18.4086 33.9483 18.9605 33.8032 19.5016 33.9023L19.5554 33.9121C19.8173 33.9598 20.0874 33.889 20.2922 33.7183C20.4969 33.5476 20.6152 33.2948 20.6152 33.0283V27.9236H25.4378C25.3641 28.8921 25.6717 29.8506 26.3079 30.6025C27.0126 31.4354 28.0393 31.9051 29.1162 31.8883C30.1892 31.8727 31.1956 31.3876 31.8774 30.5576C32.4871 29.8151 32.7755 28.8708 32.691 27.9236H36.8954V30.2782C36.8953 30.7744 37.2976 31.1767 37.7938 31.1767ZM2.53809 12.1209C2.53809 10.8669 3.55835 9.84668 4.8123 9.84668H18.8183V15.586C18.8183 15.8526 18.9366 16.1053 19.1414 16.276C19.3461 16.4466 19.6161 16.5175 19.8783 16.4698L19.9321 16.46C19.9321 16.46 19.9323 16.4599 19.9324 16.4599C20.4728 16.3611 21.025 16.506 21.4471 16.8578C21.8691 17.2097 22.1112 17.7266 22.1112 18.2761C22.1112 18.8256 21.8691 19.3426 21.4471 19.6945C21.025 20.0463 20.473 20.1914 19.9325 20.0926L19.8785 20.0827C19.6162 20.0347 19.3462 20.1057 19.1415 20.2764C18.9367 20.4471 18.8183 20.6999 18.8183 20.9665V26.1269H14.9633C14.5227 24.6042 13.1212 23.5063 11.4631 23.5063C9.80492 23.5063 8.40353 24.6042 7.96294 26.1269H2.53809V12.1209ZM16.836 32.9201C16.0031 33.6143 15.5254 34.6344 15.5254 35.7192C15.5254 36.8034 16.0031 37.8234 16.836 38.5176C17.4064 38.9931 18.0971 39.2771 18.8183 39.3461V44.204H4.8123C3.55835 44.204 2.53809 43.1838 2.53809 41.9298V27.9238H8.72014C9.20117 27.9238 9.59684 27.5449 9.61777 27.0644C9.66072 26.0769 10.4713 25.3033 11.4632 25.3033C12.4549 25.3033 13.2656 26.0769 13.3086 27.0644C13.3295 27.545 13.7252 27.9238 14.2062 27.9238H18.8184V32.0915C18.097 32.1605 17.4063 32.4446 16.836 32.9201Z" fill="url(#paint1_linear)"/>
<path d="M37.7933 35.6513C37.4171 35.6513 37.0754 35.409 36.9482 35.0555C36.8232 34.7082 36.9301 34.3066 37.2121 34.0681C37.5069 33.8187 37.9393 33.7875 38.2674 33.9905C38.582 34.1851 38.7473 34.566 38.6747 34.929C38.5917 35.3439 38.2161 35.6513 37.7933 35.6513Z" fill="url(#paint2_linear)"/>
</g>
<defs>
<linearGradient id="paint0_linear" x1="27.593" y1="12.8364" x2="43.6027" y2="12.8364" gradientUnits="userSpaceOnUse">
<stop stop-color="#126D2E"/>
<stop offset="1" stop-color="#96BE15"/>
</linearGradient>
<linearGradient id="paint1_linear" x1="4.958" y1="28.485" x2="35.5297" y2="28.485" gradientUnits="userSpaceOnUse">
<stop stop-color="#126D2E"/>
<stop offset="1" stop-color="#96BE15"/>
</linearGradient>
<linearGradient id="paint2_linear" x1="37.0959" y1="34.8232" x2="38.542" y2="34.8232" gradientUnits="userSpaceOnUse">
<stop stop-color="#126D2E"/>
<stop offset="1" stop-color="#96BE15"/>
</linearGradient>
<clipPath id="clip0">
<rect width="46" height="46" fill="white"/>
</clipPath>
</defs>
</svg>
