<svg width="40" height="40" viewBox="0 0 40 40" fill="none" xmlns="http://www.w3.org/2000/svg">
<path d="M20 11.4844L17.9795 19.5061H22.0204L20 11.4844Z" fill="#FF4A73"/>
<path d="M8.93594 27.6359C8.68281 27.7641 8.40156 27.8328 8.12031 27.8328C7.44062 27.8328 6.82656 27.4563 6.51875 26.8516C5.42813 24.7156 4.875 22.4094 4.875 20H8.46875C8.46875 21.8359 8.89062 23.5922 9.71875 25.2187C10.1703 26.1016 9.81719 27.1859 8.93594 27.6359Z" fill="#3BB2A0"/>
<path d="M11.85 11.8499C9.76249 13.9374 8.46875 16.8217 8.46875 19.9999H4.875C4.875 15.8311 6.57187 12.0499 9.31093 9.31079L11.85 11.8499Z" fill="#44C7B6"/>
<path d="M20.0006 4.875V8.46875C16.8225 8.46875 13.9381 9.76249 11.8506 11.85L9.31152 9.31093C12.0506 6.57187 15.8318 4.875 20.0006 4.875Z" fill="#4BDBC3"/>
<path d="M30.6891 9.31093L28.15 11.85C26.0625 9.76249 23.1781 8.46875 20 8.46875V4.875C24.1688 4.875 27.95 6.57187 30.6891 9.31093Z" fill="#F973A3"/>
<path d="M35.1254 19.9999H31.5316C31.5316 16.8217 30.2379 13.9374 28.1504 11.8499L30.6895 9.31079C33.4285 12.0499 35.1254 15.8311 35.1254 19.9999Z" fill="#FF4A73"/>
<path d="M35.1246 20C35.1246 22.3766 34.5559 24.7453 33.4824 26.8516C33.1746 27.4563 32.5606 27.8328 31.8809 27.8328C31.5996 27.8328 31.3168 27.7641 31.0653 27.6359C30.1824 27.1859 29.8309 26.1016 30.2809 25.2187C31.1106 23.5937 31.5309 21.8375 31.5309 20H35.1246Z" fill="#EA2A6A"/>
<path d="M20 22.7344C21.5102 22.7344 22.7344 21.5102 22.7344 20C22.7344 18.4898 21.5102 17.2656 20 17.2656C18.4898 17.2656 17.2656 18.4898 17.2656 20C17.2656 21.5102 18.4898 22.7344 20 22.7344Z" fill="#5FCDFF"/>
<path d="M3.85938 20C3.85938 10.1859 11.5094 2.15625 21.1719 1.55312C20.7844 1.52812 20.3938 1.51562 20 1.51562C9.79219 1.51562 1.51562 9.79219 1.51562 20C1.51562 30.2078 9.79219 38.4844 20 38.4844C20.3938 38.4844 20.7844 38.4719 21.1719 38.4469C11.5094 37.8438 3.85938 29.8141 3.85938 20Z" fill="#D5D9F4"/>
<path d="M22.1361 17.4089L20.6063 11.3317C20.5364 11.0541 20.2866 10.8594 20.0002 10.8594C19.7138 10.8594 19.4639 11.0541 19.3941 11.3317L17.8642 17.4089C15.4355 19.4147 16.8691 23.3594 20.0002 23.3594C21.8525 23.3594 23.3596 21.8523 23.3596 20C23.3596 18.9581 22.8828 18.0256 22.1361 17.4089ZM20.0002 14.0447L20.6706 16.7081C20.4539 16.6641 20.2297 16.6406 20.0002 16.6406C19.7706 16.6406 19.5464 16.6641 19.3297 16.7081L20.0002 14.0447ZM20.0002 22.1094C18.8371 22.1094 17.8908 21.1631 17.8908 20C17.8908 18.8369 18.8371 17.8906 20.0002 17.8906C21.1633 17.8906 22.1096 18.8369 22.1096 20C22.1096 21.1631 21.1633 22.1094 20.0002 22.1094Z" fill="#4C5BD4"/>
<path d="M21.3436 32.7353C20.9164 32.7562 20.4804 32.7557 20.0423 32.7351C19.6967 32.7132 19.4047 32.985 19.3884 33.3298C19.3722 33.6746 19.6384 33.9673 19.9831 33.9837C20.2236 33.9951 20.4654 34.0009 20.7023 34.0009C20.9362 34.0009 21.1725 33.9951 21.4045 33.9839C21.7493 33.9671 22.0151 33.674 21.9982 33.3292C21.9814 32.9843 21.6882 32.7215 21.3436 32.7353Z" fill="#4C5BD4"/>
<path d="M29.5506 28.9249C29.2592 28.7417 28.8737 28.83 28.6895 29.1206C28.6743 29.1447 27.1236 31.5378 23.5401 32.4203C23.205 32.5028 23.0001 32.8414 23.0828 33.1767C23.1529 33.4616 23.4082 33.6524 23.6892 33.6524C23.7386 33.6524 23.7889 33.6464 23.839 33.6341C27.9386 32.6244 29.677 29.8994 29.749 29.7838C29.9312 29.4916 29.8421 29.1081 29.5506 28.9249Z" fill="#4C5BD4"/>
<path d="M20 0.890625C9.46297 0.890625 0.890625 9.46297 0.890625 20C0.890625 30.537 9.46297 39.1094 20 39.1094C30.537 39.1094 39.1094 30.537 39.1094 20C39.1094 9.46297 30.537 0.890625 20 0.890625ZM20 37.8594C10.1523 37.8594 2.14062 29.8478 2.14062 20C2.14062 10.1522 10.1523 2.14062 20 2.14062C29.8477 2.14062 37.8594 10.1523 37.8594 20C37.8594 29.8477 29.8477 37.8594 20 37.8594Z" fill="#4C5BD4"/>
<path d="M19.9997 4.25C8.32421 4.25 0.607487 16.6492 5.96139 27.135C6.93889 29.0555 9.75639 28.832 10.4212 26.7825C11.0294 24.9073 9.09342 24.1928 9.09342 20C9.09342 19.0913 9.20436 18.1991 9.41983 17.3391C11.4578 9.20328 21.684 6.26891 27.7078 12.2919C31.155 15.7394 31.8014 20.8661 29.7242 24.935C29.1183 26.1231 29.5875 27.5841 30.782 28.1931C31.9681 28.7964 33.4284 28.3355 34.0395 27.1353C39.3206 16.7731 31.8098 4.25 19.9997 4.25ZM9.16202 25.5034C9.55967 26.2814 8.99014 27.2078 8.11999 27.2078C7.19264 27.2078 6.84358 26.3367 6.27577 24.6852C5.81061 23.3316 5.57124 21.9905 5.5142 20.625H7.85905C7.9417 22.267 8.35764 23.9233 9.16202 25.5034ZM7.8592 19.375H5.51499C5.65905 15.9466 6.99733 12.7373 9.32124 10.2055L10.9769 11.8609C9.08967 13.9484 7.99952 16.5975 7.8592 19.375ZM19.3747 7.85953C16.4726 8.00609 13.8528 9.17562 11.8608 10.9772L10.2051 9.32156C12.8205 6.92625 16.0501 5.65266 19.3747 5.51531V7.85953ZM20.6247 7.85953V5.51531C24.038 5.65625 27.2842 7.00719 29.7942 9.32172L28.1387 10.9772C26.0701 9.10625 23.4297 8.00125 20.6247 7.85953ZM29.0225 11.8609L30.678 10.2055C32.9867 12.7069 34.34 15.9431 34.4844 19.375H32.1401C31.994 16.4813 30.8275 13.8569 29.0225 11.8609ZM32.9256 26.5677V26.568C32.7247 26.9625 32.3244 27.2078 31.8809 27.2078C31.0123 27.2078 30.4397 26.2833 30.8375 25.5031C31.5926 24.0241 32.0523 22.3789 32.1403 20.625H34.4844C34.3931 22.7206 33.8522 24.7492 32.9256 26.5677Z" fill="#4C5BD4"/>
</svg>
