<svg width="46" height="46" viewBox="0 0 46 46" fill="none" xmlns="http://www.w3.org/2000/svg">
<g clip-path="url(#clip0)">
<path fill-rule="evenodd" clip-rule="evenodd" d="M34.5275 8.12707C34.2975 8.1148 34.0675 8.101 33.8291 8.09717C33.8406 8.12093 33.8529 8.14317 33.8636 8.16693C34.089 8.14547 34.3075 8.13703 34.5275 8.12707Z" fill="url(#paint0_linear)"/>
<path fill-rule="evenodd" clip-rule="evenodd" d="M33.8636 37.8362C33.8529 37.86 33.8406 37.8822 33.8291 37.906C34.0668 37.9021 34.2975 37.8883 34.5283 37.8761C34.3075 37.8646 34.0898 37.8561 33.8636 37.8362Z" fill="url(#paint1_linear)"/>
<path fill-rule="evenodd" clip-rule="evenodd" d="M43.2474 10.3117L43.252 10.3209C43.2727 10.3079 43.2957 10.2979 43.3164 10.2857C43.2169 10.2267 43.1131 10.1754 43.0059 10.1323C43.0864 10.1967 43.1722 10.2466 43.2474 10.3117Z" fill="url(#paint2_linear)"/>
<path fill-rule="evenodd" clip-rule="evenodd" d="M43.2474 35.6888C43.1707 35.754 43.0841 35.8076 43.0059 35.8705C43.1131 35.8274 43.2169 35.7761 43.3164 35.7172C43.2957 35.7049 43.2727 35.6949 43.252 35.6819L43.2474 35.6888Z" fill="url(#paint3_linear)"/>
<path fill-rule="evenodd" clip-rule="evenodd" d="M7.71289 9.57239C7.28947 9.57451 6.94451 9.23298 6.94239 8.80956C6.94028 8.38614 7.28181 8.04118 7.70523 8.03906H7.71289C8.13631 8.03906 8.47956 8.38231 8.47956 8.80573C8.47956 9.22915 8.13631 9.57239 7.71289 9.57239Z" fill="url(#paint4_linear)"/>
<path d="M15.039 28.3083C15.2266 28.3866 15.4377 28.3871 15.6258 28.3097C15.8139 28.2324 15.9635 28.0835 16.0418 27.8958L17.1228 25.3006H21.2122L22.2932 27.8958C22.4562 28.2866 22.9051 28.4713 23.296 28.3083C23.6868 28.1452 23.8714 27.6963 23.7084 27.3055L19.8751 18.1054C19.756 17.8198 19.4769 17.6338 19.1675 17.6338C18.858 17.6338 18.5789 17.8198 18.4598 18.1054L14.6265 27.3055C14.5482 27.4931 14.5477 27.7042 14.625 27.8923C14.7024 28.0804 14.8513 28.23 15.039 28.3083ZM19.1675 20.3939L20.5728 23.7673H17.7622L19.1675 20.3939Z" fill="url(#paint5_linear)"/>
<path fill-rule="evenodd" clip-rule="evenodd" d="M25.2999 26.8335C24.8765 26.8335 24.5332 27.1768 24.5332 27.6002C24.5332 28.0236 24.8765 28.3669 25.2999 28.3669H29.8999C30.3233 28.3669 30.6665 28.0236 30.6665 27.6002C30.6665 27.1768 30.3233 26.8335 29.8999 26.8335H28.3665V19.1669H29.8999C30.3233 19.1669 30.6665 18.8236 30.6665 18.4002C30.6665 17.9768 30.3233 17.6335 29.8999 17.6335H25.2999C24.8765 17.6335 24.5332 17.9768 24.5332 18.4002C24.5332 18.8236 24.8765 19.1669 25.2999 19.1669H26.8332V26.8335H25.2999Z" fill="url(#paint6_linear)"/>
<path d="M0.766747 33.7333C0.766747 35.427 2.13974 36.8 3.83341 36.8C4.21755 36.7986 4.59793 36.7242 4.95428 36.5807C6.76668 37.9684 9.32428 38.6921 12.4676 38.6921C12.9414 38.6921 13.4336 38.6699 13.9327 38.6377C16.1591 43.1871 19.3714 46 23.0001 46C26.6287 46 29.841 43.1871 32.0682 38.64C32.5681 38.6722 33.0595 38.6944 33.5333 38.6944C36.6766 38.6944 39.2343 37.9707 41.0466 36.583C41.4029 36.7256 41.783 36.7992 42.1668 36.8C43.5203 36.7961 44.7113 35.9053 45.0973 34.608C45.4833 33.3106 44.9732 31.9136 43.8419 31.1704C43.9493 28.7017 42.9948 25.9003 41.052 23C42.9948 20.1005 43.9493 17.2991 43.8419 14.8296C45.1674 13.9743 45.6253 12.2515 44.8995 10.8509C44.1737 9.45034 42.5021 8.83109 41.039 9.4208C38.9559 7.8269 35.8801 7.1208 32.069 7.3692C29.8441 2.81597 26.6302 0 23.0001 0C19.3699 0 16.1583 2.81367 13.9319 7.36383C12.8282 7.28467 11.7198 7.29826 10.6184 7.40447C10.4109 7.42088 10.2195 7.52273 10.09 7.68568C9.96051 7.84863 9.90447 8.05805 9.93531 8.2639C9.99678 8.67132 10.3625 8.96208 10.7733 8.93013C11.5999 8.84862 12.4313 8.82658 13.2611 8.8642C12.3099 11.2392 11.6359 13.7161 11.2524 16.2457C9.26969 17.8424 7.47513 19.6596 5.90341 21.6622C4.60853 19.7833 3.83838 17.593 3.67241 15.3172C3.72685 15.3172 3.77821 15.3333 3.83341 15.3333C5.36315 15.3395 6.66545 14.2217 6.89113 12.7087C7.11681 11.1956 6.19743 9.7464 4.73247 9.3059C3.26751 8.86541 1.70132 9.56728 1.05513 10.9539C0.408945 12.3404 0.878767 13.9911 2.15825 14.8296C2.05015 17.2975 3.00541 20.0989 4.94815 23C3.00541 25.9003 2.05015 28.7017 2.15825 31.1704C1.29113 31.7347 0.767705 32.6988 0.766747 33.7333ZM3.83341 10.7333C4.68025 10.7333 5.36675 11.4198 5.36675 12.2667C5.36675 13.1135 4.68025 13.8 3.83341 13.8C2.98658 13.8 2.30008 13.1135 2.30008 12.2667C2.30008 11.4198 2.98658 10.7333 3.83341 10.7333ZM2.30008 33.7333C2.30008 32.8865 2.98658 32.2 3.83341 32.2C4.68025 32.2 5.36675 32.8865 5.36675 33.7333C5.36675 34.5802 4.68025 35.2667 3.83341 35.2667C3.42675 35.2667 3.03674 35.1051 2.74918 34.8176C2.46163 34.53 2.30008 34.14 2.30008 33.7333ZM14.8803 8.98533C16.9213 9.22975 18.9321 9.68109 20.8818 10.3324C19.5095 10.9448 18.1694 11.627 16.8667 12.3763C15.5595 13.1307 14.2933 13.954 13.0733 14.8427C13.4753 12.834 14.0807 10.8714 14.8803 8.98533ZM12.6876 17.0606C14.2512 15.8216 15.9043 14.7 17.6334 13.7049C19.3585 12.7073 21.1536 11.8361 23.0047 11.0983C24.8542 11.8364 26.6478 12.7076 28.3713 13.7049C30.1003 14.6999 31.7531 15.8215 33.3163 17.0606C33.5968 19.028 33.7361 21.0128 33.7334 23C33.7349 24.9873 33.5942 26.9721 33.3125 28.9394C31.749 30.1784 30.0959 31.3 28.3667 32.2951C26.6431 33.292 24.8496 34.1626 23.0001 34.9002C21.1505 34.1623 19.3569 33.2911 17.6334 32.2935C15.9045 31.2986 14.2517 30.1769 12.6884 28.9378C12.1272 24.9981 12.1272 20.9988 12.6884 17.0591L12.6876 17.0606ZM32.9277 14.8427C31.7075 13.9539 30.441 13.1306 29.1334 12.3763C27.8327 11.6279 26.4949 10.9457 25.1253 10.3324C27.0729 9.68137 29.0817 9.23004 31.1206 8.98533C31.9197 10.8714 32.5246 12.834 32.9261 14.8427H32.9277ZM31.1199 37.0147C29.0789 36.7703 27.068 36.3189 25.1184 35.6676C26.4907 35.0552 27.8308 34.373 29.1334 33.6237C30.4406 32.8693 31.7069 32.046 32.9269 31.1573C32.5249 33.1661 31.9194 35.1286 31.1199 37.0147ZM35.0406 18.5096C36.5684 19.8636 37.9559 21.3679 39.1821 23C37.9564 24.632 36.5694 26.1364 35.0421 27.4904C35.1927 25.9983 35.2677 24.4996 35.2668 23C35.2672 21.5004 35.1917 20.0016 35.0406 18.5096ZM16.8667 33.6237C18.1675 34.3721 19.5052 35.0543 20.8749 35.6676C18.9272 36.3186 16.9185 36.77 14.8795 37.0147C14.0802 35.1286 13.475 33.166 13.0733 31.1573C14.2932 32.0461 15.5595 32.8694 16.8667 33.6237ZM23.0001 44.4667C20.1205 44.4667 17.5038 42.1828 15.5741 38.4782C18.1151 38.118 20.6065 37.4688 23.0001 36.5432C25.3946 37.4692 27.8871 38.1184 30.4291 38.4782C28.4955 42.1828 25.8797 44.4667 23.0001 44.4667ZM42.1668 35.2667C41.3199 35.2667 40.6334 34.5802 40.6334 33.7333C40.6334 32.8865 41.3199 32.2 42.1668 32.2C43.0136 32.2 43.7001 32.8865 43.7001 33.7333C43.7001 34.5802 43.0136 35.2667 42.1668 35.2667ZM42.3278 30.6828C42.2733 30.6828 42.222 30.6667 42.1668 30.6667C40.4731 30.6667 39.1001 32.0397 39.1001 33.7333C39.103 34.4189 39.3378 35.0834 39.7663 35.6186C38.0965 36.7203 35.6593 37.2439 32.7398 37.1343C33.6903 34.7596 34.3641 32.2833 34.7477 29.7543C36.7307 28.1576 38.5252 26.3401 40.0967 24.3371C41.3912 26.2164 42.1613 28.4068 42.3278 30.6828ZM43.7001 12.2667C43.7001 13.1135 43.0136 13.8 42.1668 13.8C41.3199 13.8 40.6334 13.1135 40.6334 12.2667C40.6334 11.4198 41.3199 10.7333 42.1668 10.7333C43.0136 10.7333 43.7001 11.4198 43.7001 12.2667ZM39.7663 10.3814C39.3378 10.9166 39.103 11.5811 39.1001 12.2667C39.1001 13.9603 40.4731 15.3333 42.1668 15.3333C42.222 15.3333 42.2733 15.3203 42.3278 15.3172C42.1615 17.5932 41.3914 19.7837 40.0967 21.6629C38.525 19.6599 36.7302 17.8424 34.7469 16.2457C34.3628 13.7166 33.6883 11.2403 32.7367 8.86574C35.6585 8.75533 38.0973 9.27667 39.7663 10.3814ZM23.0001 1.53333C25.8797 1.53333 28.4963 3.81723 30.426 7.52177C27.8864 7.88228 25.3963 8.53151 23.0039 9.45683C20.6093 8.53104 18.1168 7.88156 15.5749 7.521C17.5046 3.81723 20.1205 1.53333 23.0001 1.53333ZM10.9634 18.5096C10.6619 21.4956 10.6619 24.5044 10.9634 27.4904C9.43389 26.137 8.04504 24.6326 6.81805 23C8.04546 21.3677 9.43427 19.8633 10.9634 18.5096ZM5.90341 24.3363C7.47586 26.3388 9.27091 28.156 11.254 29.7528C11.6379 32.2826 12.3122 34.7597 13.2634 37.135C10.3455 37.2454 7.90671 36.7203 6.23691 35.6186C6.66434 35.083 6.89805 34.4186 6.90008 33.7333C6.90008 32.0397 5.52709 30.6667 3.83341 30.6667C3.77821 30.6667 3.72685 30.6805 3.67241 30.6828C3.83864 28.407 4.60877 26.2168 5.90341 24.3378V24.3363Z" fill="url(#paint7_linear)"/>
</g>
<defs>
<linearGradient id="paint0_linear" x1="33.9067" y1="8.13473" x2="34.4693" y2="8.13473" gradientUnits="userSpaceOnUse">
<stop stop-color="#0073BA"/>
<stop offset="1" stop-color="#00C0B0"/>
</linearGradient>
<linearGradient id="paint1_linear" x1="33.9068" y1="37.8738" x2="34.47" y2="37.8738" gradientUnits="userSpaceOnUse">
<stop stop-color="#0073BA"/>
<stop offset="1" stop-color="#00C0B0"/>
</linearGradient>
<linearGradient id="paint2_linear" x1="43.0404" y1="10.2339" x2="43.2905" y2="10.2339" gradientUnits="userSpaceOnUse">
<stop stop-color="#0073BA"/>
<stop offset="1" stop-color="#00C0B0"/>
</linearGradient>
<linearGradient id="paint3_linear" x1="43.0404" y1="35.7834" x2="43.2905" y2="35.7834" gradientUnits="userSpaceOnUse">
<stop stop-color="#0073BA"/>
<stop offset="1" stop-color="#00C0B0"/>
</linearGradient>
<linearGradient id="paint4_linear" x1="7.11318" y1="8.86471" x2="8.35146" y2="8.86471" gradientUnits="userSpaceOnUse">
<stop stop-color="#0073BA"/>
<stop offset="1" stop-color="#00C0B0"/>
</linearGradient>
<linearGradient id="paint5_linear" x1="15.5896" y1="23.4135" x2="23.001" y2="23.4135" gradientUnits="userSpaceOnUse">
<stop stop-color="#0073BA"/>
<stop offset="1" stop-color="#00C0B0"/>
</linearGradient>
<linearGradient id="paint6_linear" x1="25.2147" y1="23.413" x2="30.1554" y2="23.413" gradientUnits="userSpaceOnUse">
<stop stop-color="#0073BA"/>
<stop offset="1" stop-color="#00C0B0"/>
</linearGradient>
<linearGradient id="paint7_linear" x1="5.70842" y1="24.7692" x2="41.5366" y2="24.7692" gradientUnits="userSpaceOnUse">
<stop stop-color="#0073BA"/>
<stop offset="1" stop-color="#00C0B0"/>
</linearGradient>
<clipPath id="clip0">
<rect width="46" height="46" fill="white"/>
</clipPath>
</defs>
</svg>
