<svg width="48" height="44" viewBox="0 0 48 44" fill="none" xmlns="http://www.w3.org/2000/svg">
<path d="M33.0584 3.12058C31.0048 1.73335 28.598 1 26.0982 1C21.46 1 17.2652 3.52094 15.1508 7.57903C14.8095 8.23425 14.1961 8.15188 13.5977 8.15188C9.90097 8.15188 6.61271 10.4577 5.41528 13.8895C5.30945 14.193 5.05043 14.4354 4.70489 14.5546C2.397 15.3509 0.909741 17.5005 1.00426 19.9038C1.11935 22.8371 3.64807 25.1307 6.65251 25.1307H8.67641V27.5215H6.70561C6.42395 26.7063 5.63738 26.1176 4.7128 26.1176C3.55257 26.1176 2.60858 27.0441 2.60858 28.1829C2.60858 29.3218 3.55257 30.2483 4.7128 30.2483C5.63738 30.2483 6.42404 29.6597 6.70561 28.8443H9.35023C9.72245 28.8443 10.0241 28.5482 10.0241 28.1829V25.1307H16.115V33.9601H12.0753C11.7829 32.9757 10.8559 32.2541 9.75983 32.2541C8.42979 32.2541 7.34781 33.3161 7.34781 34.6215C7.34781 35.9269 8.42979 36.9889 9.75983 36.9889C10.8559 36.9889 11.7829 36.2673 12.0753 35.2829H16.7888C17.161 35.2829 17.4626 34.9867 17.4626 34.6215V25.1307H23.5444V37.454C22.2885 37.7524 21.3526 38.8643 21.3526 40.1873C21.3526 41.7383 22.6381 43 24.2182 43C25.7983 43 27.0837 41.7383 27.0837 40.1873C27.0837 38.8642 26.1479 37.7523 24.892 37.454V25.1307H26.3607C26.7329 25.1307 27.0345 24.8345 27.0345 24.4693C27.0345 24.104 26.7329 23.8079 26.3607 23.8079H6.65251C4.36628 23.8079 2.43645 22.0337 2.35082 19.8529C2.27931 18.0329 3.40486 16.4053 5.15186 15.8026C5.88921 15.5482 6.44992 15.0071 6.69034 14.3181C7.70116 11.4211 10.477 9.47466 13.5977 9.47466C14.0602 9.47466 15.5879 9.64591 16.3508 8.18134C18.2337 4.56761 21.9686 2.32277 26.0983 2.32277C28.3239 2.32277 30.4665 2.97543 32.2945 4.21019C32.6011 4.41734 33.0206 4.34124 33.2315 4.04035C33.4424 3.73946 33.3649 3.32764 33.0584 3.12058ZM4.7128 28.9255C4.29557 28.9255 3.95623 28.5924 3.95623 28.1829C3.95623 27.7735 4.29557 27.4404 4.7128 27.4404C5.12994 27.4404 5.46928 27.7735 5.46928 28.1829C5.46928 28.5924 5.12985 28.9255 4.7128 28.9255ZM9.75983 35.6661C9.17297 35.6661 8.69546 35.1975 8.69546 34.6215C8.69546 34.0454 9.17288 33.5768 9.75983 33.5768C10.3466 33.5768 10.8241 34.0454 10.8241 34.6215C10.8241 35.1975 10.3467 35.6661 9.75983 35.6661ZM25.7361 40.1874C25.7361 41.009 25.0552 41.6773 24.2182 41.6773C23.3813 41.6773 22.7003 41.009 22.7003 40.1874C22.7003 39.3659 23.3812 38.6975 24.2182 38.6975C25.0552 38.6975 25.7361 39.3659 25.7361 40.1874Z" fill="url(#paint0_linear)" stroke="url(#paint1_linear)" stroke-width="0.5"/>
<path d="M38.0343 23.8062H29.5068C29.1346 23.8062 28.833 24.1023 28.833 24.4676C28.833 24.8328 29.1346 25.129 29.5068 25.129H30.9756V34.6198C30.9756 34.985 31.2772 35.2812 31.6494 35.2812H36.3628C36.6552 36.2656 37.5822 36.9872 38.6784 36.9872C40.0083 36.9872 41.0903 35.9252 41.0903 34.6198C41.0903 33.3144 40.0083 32.2524 38.6784 32.2524C37.5823 32.2524 36.6552 32.974 36.3628 33.9584H32.3232V25.129H38.0343C38.1758 25.129 38.317 25.1254 38.458 25.1187V28.1812C38.458 28.5465 38.7596 28.8426 39.1318 28.8426H41.7763C42.058 29.658 42.8447 30.2466 43.7692 30.2466C44.9295 30.2466 45.8734 29.3201 45.8734 28.1812C45.8734 27.0424 44.9295 26.1159 43.7692 26.1159C42.8447 26.1159 42.058 26.7046 41.7763 27.5198H39.8056V24.953C43.9058 24.1344 47.0835 20.5969 47 16.3164C46.9059 11.4944 42.806 7.67039 37.8871 7.84614C37.4832 7.86078 37.0911 7.64094 36.8939 7.28687C36.508 6.59374 36.0496 5.93394 35.5313 5.32591C35.2925 5.04565 34.8674 5.00862 34.5822 5.2431C34.2967 5.4775 34.2589 5.89461 34.4978 6.17469C34.9595 6.71641 35.3678 7.30389 35.7113 7.9211C36.1372 8.68628 36.9702 9.16962 37.851 9.16962C37.8791 9.16962 37.9074 9.16909 37.9357 9.16812C42.093 9.0205 45.5727 12.2514 45.6525 16.3418C45.7332 20.4729 42.1894 23.8062 38.0343 23.8062ZM38.6783 33.5751C39.265 33.5751 39.7426 34.0438 39.7426 34.6198C39.7426 35.1958 39.2651 35.6644 38.6783 35.6644C38.0914 35.6644 37.6139 35.1958 37.6139 34.6198C37.6139 34.0438 38.0914 33.5751 38.6783 33.5751ZM43.7692 27.4386C44.1865 27.4386 44.5258 27.7717 44.5258 28.1811C44.5258 28.5906 44.1865 28.9237 43.7692 28.9237C43.352 28.9237 43.0127 28.5906 43.0127 28.1811C43.0127 27.7717 43.352 27.4386 43.7692 27.4386Z" fill="url(#paint2_linear)" stroke="url(#paint3_linear)" stroke-width="0.5"/>
<defs>
<linearGradient id="paint0_linear" x1="1" y1="24.6535" x2="33.3504" y2="24.6343" gradientUnits="userSpaceOnUse">
<stop stop-color="#4250C2"/>
<stop offset="1" stop-color="#00A1FF"/>
</linearGradient>
<linearGradient id="paint1_linear" x1="1" y1="24.6535" x2="33.3504" y2="24.6343" gradientUnits="userSpaceOnUse">
<stop stop-color="#4250C2"/>
<stop offset="1" stop-color="#00A1FF"/>
</linearGradient>
<linearGradient id="paint2_linear" x1="28.833" y1="23.0533" x2="47.0017" y2="23.0454" gradientUnits="userSpaceOnUse">
<stop stop-color="#4250C2"/>
<stop offset="1" stop-color="#00A1FF"/>
</linearGradient>
<linearGradient id="paint3_linear" x1="28.833" y1="23.0533" x2="47.0017" y2="23.0454" gradientUnits="userSpaceOnUse">
<stop stop-color="#4250C2"/>
<stop offset="1" stop-color="#00A1FF"/>
</linearGradient>
</defs>
</svg>
