<svg width="48" height="52" viewBox="0 0 48 52" fill="none" xmlns="http://www.w3.org/2000/svg">
<path d="M38.4526 16.0715C38.0276 16.1898 37.789 16.5974 37.9196 16.982C38.3446 18.2328 38.5602 19.5374 38.5602 20.8596C38.5602 25.2437 36.16 29.3281 32.1396 31.7858C29.8406 33.1913 28.3869 35.4684 28.15 37.9785H26.7537V30.6212L30.427 27.4035C30.7464 27.1236 30.7548 26.6625 30.4455 26.3734C30.1363 26.0844 29.6267 26.0768 29.3071 26.3567L28.7211 26.8699L27.5404 26.4701C27.3584 26.4085 27.1582 26.4085 26.9762 26.4701L25.6285 26.9264L24.2811 26.4701C24.0991 26.4085 23.8987 26.4085 23.7167 26.4701L22.3694 26.9264L21.022 26.4701C20.84 26.4085 20.6396 26.4085 20.4576 26.4701L19.2773 26.8698L18.6915 26.3567C18.372 26.0767 17.8622 26.0843 17.5531 26.3734C17.2438 26.6625 17.2521 27.1236 17.5716 27.4035L21.2449 30.6212V37.9785H19.8478C19.6062 35.4809 18.13 33.19 15.7957 31.747C11.8817 29.3273 9.50557 25.3272 9.43974 21.0467C9.38499 17.4824 10.9065 14.1148 13.7239 11.5646C16.5414 9.01433 20.2631 7.63464 24.2012 7.68486C29.273 7.74716 33.865 10.1364 36.4851 14.0761C36.7143 14.4209 37.209 14.532 37.59 14.3247C37.971 14.1173 38.094 13.6697 37.8646 13.3248C36.4706 11.2285 34.5012 9.46654 32.1696 8.22895C29.7678 6.95429 27.0199 6.26235 24.2229 6.22789C19.8464 6.17494 15.7125 7.70355 12.585 10.5345C9.4577 13.3653 7.76873 17.1058 7.82972 21.0668C7.90276 25.8207 10.5411 30.2631 14.8873 32.95C16.7809 34.1206 17.992 35.9629 18.229 37.9784H16.2114C15.2736 37.9784 14.5105 38.6688 14.5105 39.5175V41.0867C14.5105 41.9354 15.2736 42.6258 16.2114 42.6258H16.589C16.5874 42.6531 16.5844 42.6801 16.5844 42.7079V44.2771C16.5844 45.1228 17.3422 45.8109 18.2755 45.8158C18.2971 46.4547 18.4447 47.0754 18.718 47.6627C18.8905 48.0335 19.3629 48.2076 19.7724 48.0513C20.1823 47.8952 20.3745 47.468 20.202 47.0972C20.0124 46.6898 19.9062 46.2596 19.8852 45.8162H28.1134C28.0184 47.7952 26.2094 49.3789 23.9993 49.3789C23.4128 49.3789 22.8468 49.2699 22.3166 49.0548C21.9113 48.8904 21.4345 49.0543 21.2525 49.4216C21.0707 49.7887 21.2521 50.2198 21.6578 50.3844C22.3965 50.6841 23.1843 50.836 23.9993 50.836C27.0974 50.836 29.6272 48.5985 29.7229 45.8158C30.6562 45.811 31.4141 45.1229 31.4141 44.2771V42.7079C31.4141 42.6801 31.4111 42.6531 31.4095 42.6258H31.7871C32.7249 42.6258 33.488 41.9354 33.488 41.0867V39.5175C33.488 38.6688 32.7249 37.9784 31.7871 37.9784H29.7682C29.9993 35.9545 31.1856 34.1273 33.041 32.9931C37.5052 30.2641 40.1704 25.7283 40.1704 20.8596C40.1704 19.3921 39.931 17.9435 39.4589 16.5538C39.3278 16.1692 38.8775 15.9535 38.4526 16.0715ZM20.558 27.9918L20.7397 27.9303L22.087 28.3866C22.269 28.4482 22.4694 28.4482 22.6514 28.3866L23.9988 27.9303L25.3461 28.3866C25.5281 28.4482 25.7286 28.4482 25.9104 28.3866L27.2582 27.9303L27.4401 27.9919L25.3884 29.7891C25.2318 29.9263 25.1432 30.1153 25.1432 30.3125V37.9785H22.8546V30.3125C22.8546 30.1153 22.7661 29.9263 22.6095 29.7891L20.558 27.9918ZM29.8038 44.2772C29.8038 44.3225 29.7631 44.3593 29.7131 44.3593H18.2851C18.235 44.3593 18.1944 44.3225 18.1944 44.2772V42.7079C18.1944 42.6627 18.235 42.6259 18.2851 42.6259H29.7131C29.7631 42.6259 29.8038 42.6627 29.8038 42.7079V44.2772ZM31.7869 39.4354C31.837 39.4354 31.8776 39.4722 31.8776 39.5175V41.0867C31.8776 41.1319 31.837 41.1688 31.7869 41.1688H16.2112C16.1612 41.1688 16.1206 41.1319 16.1206 41.0867V39.5175C16.1206 39.4722 16.1612 39.4354 16.2112 39.4354H31.7869Z" fill="url(#paint0_linear)" stroke="url(#paint1_linear)" stroke-width="0.5"/>
<path d="M24.0004 4.03434C24.4451 4.03434 24.8056 3.70818 24.8056 3.30581V1.72853C24.8056 1.32616 24.4451 1 24.0004 1C23.5558 1 23.1953 1.32616 23.1953 1.72853V3.30581C23.1953 3.70818 23.5558 4.03434 24.0004 4.03434Z" fill="url(#paint2_linear)" stroke="url(#paint3_linear)" stroke-width="0.5"/>
<path d="M13.0771 6.15024C13.2262 6.38394 13.4969 6.51466 13.7751 6.51466C13.9117 6.51466 14.0502 6.48312 14.177 6.41694C14.5621 6.21575 14.6939 5.77026 14.4717 5.42181L13.6001 4.05584C13.3779 3.70729 12.8851 3.58796 12.5004 3.78915C12.1153 3.99034 11.9833 4.43583 12.2057 4.78428L13.0771 6.15024Z" fill="url(#paint4_linear)" stroke="url(#paint5_linear)" stroke-width="0.5"/>
<path d="M6.68995 11.9255L5.18039 11.1368C4.79509 10.9356 4.30288 11.055 4.08065 11.4035C3.85832 11.752 3.9903 12.1975 4.37538 12.3987L5.88493 13.1874C6.01175 13.2536 6.15019 13.2851 6.28679 13.2851C6.56506 13.2851 6.83569 13.1544 6.98478 12.9207C7.20701 12.5723 7.07503 12.1268 6.68995 11.9255Z" fill="url(#paint6_linear)" stroke="url(#paint7_linear)" stroke-width="0.5"/>
<path d="M43.6235 31.2224L42.114 30.4337C41.729 30.2324 41.2366 30.3519 41.0142 30.7004C40.7919 31.0489 40.9239 31.4944 41.309 31.6955L42.8185 32.4842C42.9452 32.5505 43.0838 32.582 43.2204 32.582C43.4985 32.582 43.7692 32.4512 43.9184 32.2175C44.1405 31.8692 44.0085 31.4236 43.6235 31.2224Z" fill="url(#paint8_linear)" stroke="url(#paint9_linear)" stroke-width="0.5"/>
<path d="M4.35331 21.8145C4.35331 21.4121 3.99286 21.0859 3.54819 21.0859H1.80512C1.36045 21.0859 1 21.4121 1 21.8145C1 22.2168 1.36045 22.543 1.80512 22.543H3.54819C3.99286 22.543 4.35331 22.2168 4.35331 21.8145Z" fill="url(#paint10_linear)" stroke="url(#paint11_linear)" stroke-width="0.5"/>
<path d="M46.1927 21.0859H44.4497C44.005 21.0859 43.6445 21.4121 43.6445 21.8145C43.6445 22.2168 44.005 22.543 44.4497 22.543H46.1927C46.6374 22.543 46.9978 22.2168 46.9978 21.8145C46.9978 21.4121 46.6374 21.0859 46.1927 21.0859Z" fill="url(#paint12_linear)" stroke="url(#paint13_linear)" stroke-width="0.5"/>
<path d="M5.88493 30.4336L4.37538 31.2223C3.9903 31.4235 3.85832 31.8691 4.08065 32.2174C4.22984 32.4511 4.50037 32.5819 4.77864 32.5819C4.91524 32.5819 5.05368 32.5503 5.1805 32.4841L6.69005 31.6955C7.07513 31.4943 7.20711 31.0487 6.98478 30.7003C6.76233 30.3518 6.2698 30.2325 5.88493 30.4336Z" fill="url(#paint14_linear)" stroke="url(#paint15_linear)" stroke-width="0.5"/>
<path d="M41.7121 13.285C41.8487 13.285 41.9872 13.2535 42.114 13.1873L43.6235 12.3986C44.0086 12.1974 44.1406 11.7518 43.9183 11.4035C43.6958 11.055 43.2033 10.9356 42.8185 11.1368L41.309 11.9255C40.9239 12.1267 40.7919 12.5722 41.0142 12.9206C41.1633 13.1543 41.434 13.285 41.7121 13.285Z" fill="url(#paint16_linear)" stroke="url(#paint17_linear)" stroke-width="0.5"/>
<path d="M33.8245 6.41696C33.9513 6.48324 34.0897 6.51468 34.2264 6.51468C34.5045 6.51468 34.7753 6.38396 34.9243 6.15027L35.7959 4.7843C36.0183 4.43585 35.8863 3.99026 35.5012 3.78917C35.1159 3.58789 34.6237 3.70741 34.4015 4.05586L33.5299 5.42183C33.3075 5.77028 33.4395 6.21587 33.8245 6.41696Z" fill="url(#paint18_linear)" stroke="url(#paint19_linear)" stroke-width="0.5"/>
<defs>
<linearGradient id="paint0_linear" x1="11.4217" y1="30.247" x2="37.4752" y2="30.247" gradientUnits="userSpaceOnUse">
<stop stop-color="#824C99"/>
<stop offset="1" stop-color="#EF3795"/>
</linearGradient>
<linearGradient id="paint1_linear" x1="11.4217" y1="30.247" x2="37.4752" y2="30.247" gradientUnits="userSpaceOnUse">
<stop stop-color="#824C99"/>
<stop offset="1" stop-color="#EF3795"/>
</linearGradient>
<linearGradient id="paint2_linear" x1="23.3742" y1="2.63388" x2="24.6714" y2="2.63388" gradientUnits="userSpaceOnUse">
<stop stop-color="#824C99"/>
<stop offset="1" stop-color="#EF3795"/>
</linearGradient>
<linearGradient id="paint3_linear" x1="23.3742" y1="2.63388" x2="24.6714" y2="2.63388" gradientUnits="userSpaceOnUse">
<stop stop-color="#824C99"/>
<stop offset="1" stop-color="#EF3795"/>
</linearGradient>
<linearGradient id="paint4_linear" x1="12.3734" y1="5.21162" x2="14.3728" y2="5.21162" gradientUnits="userSpaceOnUse">
<stop stop-color="#824C99"/>
<stop offset="1" stop-color="#EF3795"/>
</linearGradient>
<linearGradient id="paint5_linear" x1="12.3734" y1="5.21162" x2="14.3728" y2="5.21162" gradientUnits="userSpaceOnUse">
<stop stop-color="#824C99"/>
<stop offset="1" stop-color="#EF3795"/>
</linearGradient>
<linearGradient id="paint6_linear" x1="4.31933" y1="12.2485" x2="6.83269" y2="12.2485" gradientUnits="userSpaceOnUse">
<stop stop-color="#824C99"/>
<stop offset="1" stop-color="#EF3795"/>
</linearGradient>
<linearGradient id="paint7_linear" x1="4.31933" y1="12.2485" x2="6.83269" y2="12.2485" gradientUnits="userSpaceOnUse">
<stop stop-color="#824C99"/>
<stop offset="1" stop-color="#EF3795"/>
</linearGradient>
<linearGradient id="paint8_linear" x1="41.2529" y1="31.5453" x2="43.7662" y2="31.5453" gradientUnits="userSpaceOnUse">
<stop stop-color="#824C99"/>
<stop offset="1" stop-color="#EF3795"/>
</linearGradient>
<linearGradient id="paint9_linear" x1="41.2529" y1="31.5453" x2="43.7662" y2="31.5453" gradientUnits="userSpaceOnUse">
<stop stop-color="#824C99"/>
<stop offset="1" stop-color="#EF3795"/>
</linearGradient>
<linearGradient id="paint10_linear" x1="1.37259" y1="21.8705" x2="4.07387" y2="21.8705" gradientUnits="userSpaceOnUse">
<stop stop-color="#824C99"/>
<stop offset="1" stop-color="#EF3795"/>
</linearGradient>
<linearGradient id="paint11_linear" x1="1.37259" y1="21.8705" x2="4.07387" y2="21.8705" gradientUnits="userSpaceOnUse">
<stop stop-color="#824C99"/>
<stop offset="1" stop-color="#EF3795"/>
</linearGradient>
<linearGradient id="paint12_linear" x1="44.0171" y1="21.8705" x2="46.7184" y2="21.8705" gradientUnits="userSpaceOnUse">
<stop stop-color="#824C99"/>
<stop offset="1" stop-color="#EF3795"/>
</linearGradient>
<linearGradient id="paint13_linear" x1="44.0171" y1="21.8705" x2="46.7184" y2="21.8705" gradientUnits="userSpaceOnUse">
<stop stop-color="#824C99"/>
<stop offset="1" stop-color="#EF3795"/>
</linearGradient>
<linearGradient id="paint14_linear" x1="4.31934" y1="31.5453" x2="6.83276" y2="31.5453" gradientUnits="userSpaceOnUse">
<stop stop-color="#824C99"/>
<stop offset="1" stop-color="#EF3795"/>
</linearGradient>
<linearGradient id="paint15_linear" x1="4.31934" y1="31.5453" x2="6.83276" y2="31.5453" gradientUnits="userSpaceOnUse">
<stop stop-color="#824C99"/>
<stop offset="1" stop-color="#EF3795"/>
</linearGradient>
<linearGradient id="paint16_linear" x1="41.2529" y1="12.2484" x2="43.7663" y2="12.2484" gradientUnits="userSpaceOnUse">
<stop stop-color="#824C99"/>
<stop offset="1" stop-color="#EF3795"/>
</linearGradient>
<linearGradient id="paint17_linear" x1="41.2529" y1="12.2484" x2="43.7663" y2="12.2484" gradientUnits="userSpaceOnUse">
<stop stop-color="#824C99"/>
<stop offset="1" stop-color="#EF3795"/>
</linearGradient>
<linearGradient id="paint18_linear" x1="33.6977" y1="5.21163" x2="35.6971" y2="5.21163" gradientUnits="userSpaceOnUse">
<stop stop-color="#824C99"/>
<stop offset="1" stop-color="#EF3795"/>
</linearGradient>
<linearGradient id="paint19_linear" x1="33.6977" y1="5.21163" x2="35.6971" y2="5.21163" gradientUnits="userSpaceOnUse">
<stop stop-color="#824C99"/>
<stop offset="1" stop-color="#EF3795"/>
</linearGradient>
</defs>
</svg>
