<svg width="41" height="41" viewBox="0 0 41 41" fill="none" xmlns="http://www.w3.org/2000/svg">
<g id="angry 1" clip-path="url(#clip0_2087_36467)">
<g id="Group 1000003119">
<path id="Vector" d="M20.5 0.574219C9.45333 0.574219 0.5 9.52839 0.5 20.5742C0.5 31.6201 9.45417 40.5742 20.5 40.5742C31.5458 40.5742 40.5 31.6201 40.5 20.5742C40.5 9.52839 31.5458 0.574219 20.5 0.574219ZM11.7317 27.7409C11.3498 27.7419 10.9746 27.6401 10.6456 27.4461C10.3167 27.2521 10.046 26.9732 9.86193 26.6386C9.6779 26.3039 9.58734 25.9259 9.59976 25.5442C9.61218 25.1625 9.72711 24.7912 9.9325 24.4692C7.39 23.7192 5.64833 22.5917 5.56167 22.5351C5.35882 22.3962 5.21848 22.1834 5.17078 21.9423C5.12308 21.7012 5.17181 21.4509 5.30652 21.2453C5.44122 21.0397 5.65117 20.8951 5.89128 20.8426C6.1314 20.79 6.38256 20.8337 6.59083 20.9642C8.22531 21.9507 10.0186 22.646 11.8908 23.0192C14.9467 23.6067 17.3008 23.3609 17.325 23.3592C17.5724 23.3348 17.8195 23.4084 18.0132 23.5643C18.2069 23.7201 18.3317 23.9457 18.3608 24.1926C18.3882 24.4399 18.3162 24.6879 18.1607 24.8822C18.0052 25.0764 17.779 25.2009 17.5317 25.2284C17.0176 25.2772 16.5014 25.2995 15.985 25.2951C15.3975 25.2951 14.6575 25.2651 13.8233 25.1876C13.8858 25.4972 13.8787 25.8168 13.8025 26.1234C13.7263 26.4299 13.583 26.7157 13.3828 26.9601C13.1826 27.2044 12.9306 27.4012 12.6451 27.5363C12.3595 27.6713 12.0475 27.7412 11.7317 27.7409ZM20.3625 33.6476C16.85 33.6476 14.1783 33.4734 14.1783 32.6301C14.1783 31.7867 17.0258 31.1034 20.5392 31.1034C24.0525 31.1034 26.8992 31.7876 26.8992 32.6301C26.8992 33.4726 23.875 33.6467 20.3625 33.6467V33.6476ZM35.4383 22.5342C35.355 22.5909 33.61 23.7167 31.0667 24.4684C31.2532 24.763 31.3647 25.0988 31.3912 25.4465C31.4178 25.7942 31.3587 26.1431 31.219 26.4626C31.0794 26.7821 30.8635 27.0625 30.5903 27.2791C30.3171 27.4958 29.9949 27.6421 29.652 27.7053C29.3091 27.7685 28.9559 27.7466 28.6234 27.6415C28.2909 27.5364 27.9893 27.3514 27.745 27.1026C27.5006 26.8538 27.3211 26.5489 27.222 26.2146C27.1229 25.8803 27.1073 25.5268 27.1767 25.1851C26.3433 25.2626 25.6025 25.2926 25.015 25.2926C24.4986 25.297 23.9824 25.2748 23.4683 25.2259C23.3458 25.2124 23.2272 25.1749 23.1192 25.1155C23.0112 25.0562 22.916 24.9761 22.839 24.8799C22.762 24.7837 22.7047 24.6732 22.6704 24.5549C22.6361 24.4365 22.6255 24.3125 22.6392 24.1901C22.6681 23.9431 22.7929 23.7174 22.9866 23.5615C23.1804 23.4056 23.4276 23.3321 23.675 23.3567C23.6983 23.3567 26.0533 23.6067 29.1092 23.0167C30.9812 22.6436 32.7742 21.9483 34.4083 20.9617C34.6166 20.8251 34.8707 20.7769 35.1145 20.8276C35.3584 20.8783 35.5722 21.0238 35.7088 21.2321C35.8453 21.4404 35.8936 21.6945 35.8429 21.9384C35.7922 22.1822 35.6466 22.396 35.4383 22.5326V22.5342Z" fill="url(#paint0_linear_2087_36467)"/>
<path id="Vector_2" d="M35.7078 21.2336C35.6403 21.1303 35.5531 21.0413 35.4513 20.9718C35.3494 20.9022 35.2347 20.8535 35.114 20.8283C34.9932 20.8031 34.8687 20.8021 34.7475 20.8251C34.6263 20.8482 34.5108 20.895 34.4078 20.9627C32.7736 21.9493 30.9806 22.6446 29.1086 23.0177C26.0528 23.6052 23.6978 23.3594 23.6744 23.3577C23.427 23.3331 23.1798 23.4066 22.986 23.5625C22.7923 23.7184 22.6675 23.9441 22.6386 24.1911C22.6115 24.438 22.6834 24.6856 22.8388 24.8796C22.9941 25.0735 23.22 25.1978 23.4669 25.2252C23.981 25.2741 24.4972 25.2964 25.0136 25.2919C25.6011 25.2919 26.3411 25.2619 27.1753 25.1844C27.1047 25.5268 27.1194 25.8814 27.2181 26.2168C27.3167 26.5522 27.4962 26.8583 27.7408 27.1081C27.9854 27.3579 28.2877 27.5437 28.621 27.6493C28.9543 27.7549 29.3084 27.777 29.6522 27.7137C29.9961 27.6503 30.3191 27.5035 30.5929 27.286C30.8667 27.0686 31.0828 26.7872 31.2224 26.4666C31.3619 26.1461 31.4206 25.7961 31.3932 25.4476C31.3658 25.099 31.2532 24.7626 31.0653 24.4677C33.6086 23.7177 35.3503 22.5902 35.4369 22.5336C35.5401 22.466 35.629 22.3788 35.6985 22.2769C35.768 22.175 35.8167 22.0604 35.8418 21.9397C35.867 21.819 35.8681 21.6944 35.8451 21.5733C35.8221 21.4521 35.7754 21.3367 35.7078 21.2336ZM15.9844 25.2919C16.5008 25.2963 17.017 25.2741 17.5311 25.2252C17.7784 25.1978 18.0047 25.0733 18.1602 24.879C18.3157 24.6848 18.3876 24.4367 18.3603 24.1894C18.3311 23.9425 18.2063 23.7169 18.0126 23.5611C17.8189 23.4053 17.5718 23.3317 17.3244 23.3561C17.3003 23.3561 14.9461 23.6061 11.8903 23.0161C10.018 22.6428 8.22474 21.9475 6.59026 20.9611C6.38198 20.8305 6.13082 20.7868 5.89071 20.8394C5.65059 20.892 5.44064 21.0366 5.30594 21.2422C5.17123 21.4478 5.1225 21.698 5.1702 21.9391C5.21791 22.1802 5.35824 22.3931 5.56109 22.5319C5.64442 22.5886 7.38942 23.7144 9.93192 24.4661C9.74557 24.7607 9.63432 25.0965 9.60791 25.4441C9.5815 25.7917 9.64074 26.1404 9.78043 26.4598C9.92013 26.7792 10.136 27.0595 10.4092 27.276C10.6824 27.4926 11.0045 27.6388 11.3473 27.702C11.6901 27.7651 12.0432 27.7432 12.3756 27.6382C12.708 27.5332 13.0096 27.3483 13.2539 27.0996C13.4983 26.851 13.6779 26.5462 13.777 26.212C13.8762 25.8778 13.8919 25.5244 13.8228 25.1827C14.6569 25.2619 15.3969 25.2919 15.9844 25.2919ZM20.5386 31.1019C17.0253 31.1019 14.1778 31.7861 14.1778 32.6286C14.1778 33.4711 16.8494 33.6461 20.3619 33.6461C23.8744 33.6461 26.8986 33.4719 26.8986 32.6286C26.8986 31.7852 24.0503 31.1019 20.5386 31.1019Z" fill="#102236"/>
</g>
</g>
<defs>
<linearGradient id="paint0_linear_2087_36467" x1="20.5" y1="40.5751" x2="20.5" y2="0.573384" gradientUnits="userSpaceOnUse">
<stop stop-color="#FFDE6E"/>
<stop offset="1" stop-color="#FF4C41"/>
</linearGradient>
<clipPath id="clip0_2087_36467">
<rect width="40" height="40" fill="white" transform="translate(0.5 0.574219)"/>
</clipPath>
</defs>
</svg>
