<svg width="41" height="41" viewBox="0 0 41 41" fill="none" xmlns="http://www.w3.org/2000/svg">
<g id="facebook-emoji 1" clip-path="url(#clip0_2087_36471)">
<path id="Vector" d="M14.9734 29.7086H10.5707C10.2241 29.7086 9.94141 29.4259 9.94141 29.0793V18.9699C9.94141 18.6233 10.2241 18.3406 10.5707 18.3406H14.9734C15.3201 18.3406 15.6027 18.6233 15.6027 18.9699V29.0793C15.6027 29.4259 15.3201 29.7086 14.9734 29.7086ZM17.1414 27.3326V20.0899C17.1414 18.3219 17.6454 16.5459 18.5841 15.0446C19.1574 14.1273 20.4427 12.6579 21.1627 11.8979C21.3227 11.7273 21.9041 11.2259 21.9041 10.9513C21.9041 10.5993 21.9441 10.0313 21.9574 8.97261C21.9654 8.30061 22.5121 7.74861 23.1841 7.75394H23.2134C24.3894 7.78061 24.7681 8.86594 24.7681 8.86594C24.7681 8.86594 25.7734 10.8499 24.8347 13.2766C24.0427 15.3273 23.8827 15.4926 23.8827 15.4926C23.8827 15.4926 23.6267 15.8633 24.4374 15.8473C24.4374 15.8473 29.3867 15.8259 29.5574 15.8259C29.9227 15.8259 31.0881 16.1593 31.0214 17.6446C30.9734 18.7433 30.2907 19.1273 29.9414 19.2526C29.8721 19.2766 29.8641 19.3726 29.9281 19.4099C30.2854 19.6179 31.0161 20.1433 31.0001 20.9486C30.9787 21.9246 30.5867 22.2846 29.7707 22.5086C29.6961 22.5299 29.6827 22.6286 29.7494 22.6659C30.0587 22.8419 30.5894 23.2713 30.5574 24.1406C30.5254 25.0259 29.8854 25.3379 29.5361 25.4446C29.4667 25.4659 29.4534 25.5566 29.5147 25.5993C29.7361 25.7513 30.0641 26.0953 30.0481 26.8019C30.0401 27.1753 29.9147 27.4473 29.7574 27.6419C29.5094 27.9486 29.1201 28.1086 28.7254 28.1113L17.7441 28.1326C17.7387 28.1326 17.1414 28.1326 17.1414 27.3326Z" fill="white"/>
<path id="Vector_2" d="M20.4995 15.0231C19.6062 9.60442 9.01953 9.19109 9.01953 17.3191C9.01953 24.5217 20.4995 31.1617 20.4995 31.1617C20.4995 31.1617 31.9795 24.4337 31.9795 17.3191C31.9795 9.19109 21.3929 9.60442 20.4995 15.0231Z" fill="white"/>
<path id="Vector_3" d="M20.5038 40.5727C31.5494 40.5727 40.5037 31.6327 40.5037 20.6047C40.5037 9.5767 31.5494 0.636719 20.5038 0.636719C9.45816 0.636719 0.503906 9.5767 0.503906 20.6047C0.503906 31.6327 9.45816 40.5727 20.5038 40.5727Z" fill="#FFDA6B"/>
<path id="Vector_4" d="M20.6431 21.4844H7.3125C7.3125 21.4844 7.6645 32.9965 20.3524 33.6392C20.5311 33.6472 20.6511 33.6418 20.6511 33.6418C33.3417 32.9992 33.691 21.4844 33.691 21.4844H20.6431Z" fill="#262C38"/>
<path id="Vector_5" d="M8.82422 27.0192C8.82422 27.0192 13.4855 24.7952 20.4242 24.8166C23.8641 24.8272 27.9628 25.1366 32.1361 27.0405C32.1361 27.0405 29.2854 33.9924 20.4908 33.9924C11.7175 33.9924 8.82422 27.0192 8.82422 27.0192Z" fill="#F05266"/>
<path id="Vector_6" d="M32.5053 11.5352L26.98 14.2125L32.444 16.7244M8.44141 11.5352L13.9667 14.2125L8.50274 16.7244" stroke="#262C38" stroke-miterlimit="10" stroke-linecap="round" stroke-linejoin="round"/>
</g>
<defs>
<clipPath id="clip0_2087_36471">
<rect width="40" height="40" fill="white" transform="translate(0.5 0.574219)"/>
</clipPath>
</defs>
</svg>
