<svg width="41" height="41" viewBox="0 0 41 41" fill="none" xmlns="http://www.w3.org/2000/svg">
<g id="Frame 627844">
<g id="Group 626924">
<g id="Group">
<g id="Group_2">
<path id="Vector" d="M5.6562 18.2305C3.50312 18.2305 1.75 19.9836 1.75 22.1367V34.6366C1.75 36.7897 3.50312 38.5428 5.6562 38.5428H10.3437C11.2234 38.5428 12.0327 38.246 12.6874 37.7522V18.2305H5.6562Z" fill="#4C5BD4"/>
</g>
</g>
<g id="Group_3">
<g id="Group_4">
<path id="Vector_2" d="M39.2498 24.0897C39.2498 23.1507 38.878 22.2756 38.2326 21.6303C38.9624 20.8319 39.3342 19.7615 39.2326 18.6475C39.0498 16.6616 37.2607 15.1053 35.1577 15.1053H25.5062C25.9843 13.6538 26.7499 10.9929 26.7499 8.85541C26.7499 5.46637 23.8702 2.60547 22.0624 2.60547C20.439 2.60547 19.2796 3.51953 19.2296 3.55703C19.0453 3.70549 18.9375 3.93049 18.9375 4.16794V9.46632L14.4375 19.2147L14.25 19.31V36.0568C15.5218 36.6568 17.1312 36.9802 18.1562 36.9802H32.4983C34.1999 36.9802 35.689 35.8333 36.0389 34.2506C36.2186 33.4365 36.1139 32.6162 35.7561 31.9037C36.9108 31.3225 37.6874 30.1334 37.6874 28.7772C37.6874 28.224 37.5608 27.6944 37.3202 27.2147C38.4749 26.6335 39.2498 25.4444 39.2498 24.0897Z" fill="#4C5BD4"/>
</g>
</g>
</g>
</g>
</svg>
