<svg width="41" height="41" viewBox="0 0 41 41" fill="none" xmlns="http://www.w3.org/2000/svg">
<g id="love 1" clip-path="url(#clip0_2087_36487)">
<path id="Vector" d="M20.5 0.574219C15.1957 0.574219 10.1086 2.68136 6.35787 6.43209C2.60714 10.1828 0.5 15.2699 0.5 20.5742C0.5 25.8785 2.60714 30.9657 6.35787 34.7165C10.1086 38.467 15.1957 40.5742 20.5 40.5742C25.8043 40.5742 30.8915 38.467 34.6423 34.7165C38.3927 30.9657 40.5 25.8785 40.5 20.5742C40.5 15.2699 38.3927 10.1828 34.6423 6.43209C30.8915 2.68136 25.8043 0.574219 20.5 0.574219Z" fill="url(#paint0_linear_2087_36487)"/>
<path id="Vector_2" d="M26.6845 10.5742C21.1895 10.5742 20.502 15.1342 20.502 15.1342C20.502 15.1342 19.817 10.5742 14.3221 10.5742C9.03705 10.5742 7.49705 16.1292 8.14205 19.0992C9.84205 26.9492 20.502 32.4492 20.502 32.4492C20.502 32.4492 31.1645 26.9492 32.8645 19.0992C33.507 16.1292 31.9645 10.5742 26.6845 10.5742Z" fill="white"/>
</g>
<defs>
<linearGradient id="paint0_linear_2087_36487" x1="20.5" y1="0.574219" x2="20.5" y2="40.5742" gradientUnits="userSpaceOnUse">
<stop stop-color="#FF6680"/>
<stop offset="1" stop-color="#E61739"/>
</linearGradient>
<clipPath id="clip0_2087_36487">
<rect width="40" height="40" fill="white" transform="translate(0.5 0.574219)"/>
</clipPath>
</defs>
</svg>
