<svg width="41" height="41" viewBox="0 0 41 41" fill="none" xmlns="http://www.w3.org/2000/svg">
<g id="sad 1" clip-path="url(#clip0_2087_36490)">
<path id="Vector" d="M40.5 20.5742C40.5 25.8785 38.3927 30.9657 34.6423 34.7165C30.8915 38.467 25.8043 40.5742 20.5 40.5742C15.1957 40.5742 10.1086 38.467 6.35787 34.7165C2.60714 30.9657 0.5 25.8785 0.5 20.5742C0.5 15.2699 2.60714 10.1828 6.35787 6.43209C10.1086 2.68136 15.1957 0.574219 20.5 0.574219C25.8043 0.574219 30.8915 2.68136 34.6423 6.43209C38.3927 10.1828 40.5 15.2699 40.5 20.5742Z" fill="url(#paint0_linear_2087_36490)"/>
<path id="Vector_2" d="M13.832 32.4867C13.832 32.8292 14.067 33.0742 14.457 33.0742C15.3345 33.0742 16.547 31.5117 20.4995 31.5117C24.452 31.5117 25.667 33.0742 26.542 33.0742C26.932 33.0742 27.167 32.8292 27.167 32.4867C27.167 31.4942 25.0695 28.0742 20.4995 28.0742C15.9295 28.0742 13.832 31.4942 13.832 32.4867Z" fill="url(#paint1_linear_2087_36490)"/>
<path id="Vector_3" d="M9.49631 22.5752C9.49631 20.5502 10.7688 18.9102 12.3313 18.9102C13.8988 18.9102 15.1663 20.5502 15.1663 22.5752C15.1663 23.4202 14.9438 24.2002 14.5713 24.8202C14.4048 25.0999 14.1342 25.3021 13.8188 25.3827C13.4688 25.4752 12.9363 25.5752 12.3313 25.5752C11.7238 25.5752 11.1988 25.4752 10.8438 25.3827C10.5291 25.302 10.2593 25.0997 10.0938 24.8202C9.69494 24.1398 9.48841 23.3638 9.49631 22.5752ZM25.8313 22.5752C25.8313 20.5502 27.1013 18.9102 28.6638 18.9102C30.2313 18.9102 31.4988 20.5502 31.4988 22.5752C31.4988 23.4202 31.2763 24.2002 30.9038 24.8202C30.8215 24.9588 30.7128 25.0799 30.5835 25.1764C30.4545 25.273 30.3075 25.343 30.1513 25.3827C29.1765 25.6352 28.1535 25.6352 27.1788 25.3827C27.0225 25.343 26.8755 25.273 26.7465 25.1764C26.6173 25.0799 26.5085 24.9588 26.4263 24.8202C26.0283 24.1396 25.8225 23.3636 25.8313 22.5752Z" fill="url(#paint2_linear_2087_36490)"/>
<g id="Vector_4" filter="url(#filter0_i_2087_36490)">
<path d="M9.49631 22.5752C9.49631 20.5502 10.7688 18.9102 12.3313 18.9102C13.8988 18.9102 15.1663 20.5502 15.1663 22.5752C15.1663 23.4202 14.9438 24.2002 14.5713 24.8202C14.4048 25.0999 14.1342 25.3021 13.8188 25.3827C13.4688 25.4752 12.9363 25.5752 12.3313 25.5752C11.7238 25.5752 11.1988 25.4752 10.8438 25.3827C10.5291 25.302 10.2593 25.0997 10.0938 24.8202C9.69494 24.1398 9.48841 23.3638 9.49631 22.5752ZM25.8313 22.5752C25.8313 20.5502 27.1013 18.9102 28.6638 18.9102C30.2313 18.9102 31.4988 20.5502 31.4988 22.5752C31.4988 23.4202 31.2763 24.2002 30.9038 24.8202C30.8215 24.9588 30.7128 25.0799 30.5835 25.1764C30.4545 25.273 30.3075 25.343 30.1513 25.3827C29.1765 25.6352 28.1535 25.6352 27.1788 25.3827C27.0225 25.343 26.8755 25.273 26.7465 25.1764C26.6173 25.0799 26.5085 24.9588 26.4263 24.8202C26.0283 24.1396 25.8225 23.3636 25.8313 22.5752Z" fill="black"/>
</g>
<path id="Vector_5" d="M12.0409 20.5381C12.3609 20.8506 12.3809 21.4681 12.0834 21.9156C11.7834 22.3606 11.2834 22.4706 10.9634 22.1556C10.6434 21.8431 10.6259 21.2256 10.9209 20.7806C11.2209 20.3331 11.7209 20.2256 12.0409 20.5381ZM28.2635 20.5381C28.5835 20.8506 28.6035 21.4681 28.3085 21.9156C28.0085 22.3606 27.5085 22.4706 27.1835 22.1556C26.866 21.8431 26.8485 21.2256 27.146 20.7806C27.4435 20.3331 27.9435 20.2256 28.2635 20.5381Z" fill="#4E506A"/>
<path id="Vector_6" d="M10.893 13.4537C11.723 13.0712 12.383 12.9062 12.8955 12.9062C13.588 12.9062 14.023 13.2038 14.2705 13.6713C14.708 14.4938 14.5105 14.6738 13.7755 14.8188C11.0105 15.3788 8.233 17.1738 7.028 18.2938C6.2755 18.9938 5.5555 18.2188 5.938 17.6088C6.323 16.9988 7.873 14.8463 10.893 13.4537ZM26.7305 13.6713C26.978 13.2038 27.413 12.9062 28.1055 12.9062C28.6205 12.9062 29.278 13.0712 30.108 13.4537C33.128 14.8463 34.678 16.9988 35.0605 17.6088C35.443 18.2188 34.7255 18.9938 33.973 18.2938C32.7655 17.1738 29.9905 15.3788 27.223 14.8188C26.488 14.6738 26.2955 14.4938 26.7305 13.6713Z" fill="url(#paint3_linear_2087_36490)"/>
<path id="Vector_7" d="M34.25 40.5742C32.18 40.5742 30.5 38.7042 30.5 36.3967C30.5 34.0917 31.39 32.5342 32.1075 31.0292C33.6025 27.8842 33.8975 27.4492 34.25 27.4492C34.6025 27.4492 34.8975 27.8842 36.3925 31.0292C37.11 32.5342 38 34.0917 38 36.3967C38 38.7042 36.32 40.5742 34.25 40.5742Z" fill="url(#paint4_linear_2087_36490)"/>
<path id="Vector_8" d="M34.2506 34.5895C33.4306 34.5895 32.7656 33.8495 32.7656 32.9395C32.7656 32.0245 33.1184 31.407 33.4034 30.8095C33.9934 29.5645 34.1106 29.3945 34.2506 29.3945C34.3906 29.3945 34.5081 29.5645 35.0981 30.8095C35.3831 31.4095 35.7356 32.0245 35.7356 32.937C35.7356 33.8495 35.0706 34.5895 34.2506 34.5895Z" fill="url(#paint5_linear_2087_36490)"/>
</g>
<defs>
<filter id="filter0_i_2087_36490" x="9.49609" y="18.9102" width="22.0039" height="6.66406" filterUnits="userSpaceOnUse" color-interpolation-filters="sRGB">
<feFlood flood-opacity="0" result="BackgroundImageFix"/>
<feBlend mode="normal" in="SourceGraphic" in2="BackgroundImageFix" result="shape"/>
<feColorMatrix in="SourceAlpha" type="matrix" values="0 0 0 0 0 0 0 0 0 0 0 0 0 0 0 0 0 0 127 0" result="hardAlpha"/>
<feOffset/>
<feGaussianBlur stdDeviation="0.5"/>
<feComposite in2="hardAlpha" operator="arithmetic" k2="-1" k3="1"/>
<feColorMatrix type="matrix" values="0 0 0 0 0.0411227 0 0 0 0 0.0430885 0 0 0 0 0.0922353 0 0 0 0.819684 0"/>
<feBlend mode="normal" in2="shape" result="effect1_innerShadow_2087_36490"/>
</filter>
<linearGradient id="paint0_linear_2087_36490" x1="20.5" y1="4.67422" x2="20.5" y2="40.5742" gradientUnits="userSpaceOnUse">
<stop stop-color="#FEEA70"/>
<stop offset="1" stop-color="#F69B30"/>
</linearGradient>
<linearGradient id="paint1_linear_2087_36490" x1="20.4995" y1="28.0742" x2="20.4995" y2="33.0742" gradientUnits="userSpaceOnUse">
<stop stop-color="#472315"/>
<stop offset="1" stop-color="#8B3A0E"/>
</linearGradient>
<linearGradient id="paint2_linear_2087_36490" x1="20.497" y1="18.9102" x2="20.497" y2="25.5752" gradientUnits="userSpaceOnUse">
<stop stop-color="#191A33"/>
<stop offset="0.872" stop-color="#3B426A"/>
</linearGradient>
<linearGradient id="paint3_linear_2087_36490" x1="20.5" y1="12.9073" x2="20.5" y2="18.5698" gradientUnits="userSpaceOnUse">
<stop stop-color="#E78E0D"/>
<stop offset="1" stop-color="#CB6000"/>
</linearGradient>
<linearGradient id="paint4_linear_2087_36490" x1="34.25" y1="38.1992" x2="34.25" y2="29.8042" gradientUnits="userSpaceOnUse">
<stop stop-color="#35CAFC"/>
<stop offset="1" stop-color="#007EDB"/>
</linearGradient>
<linearGradient id="paint5_linear_2087_36490" x1="34.2501" y1="29.3938" x2="34.2501" y2="34.5888" gradientUnits="userSpaceOnUse">
<stop stop-color="#6AE1FF" stop-opacity="0.287"/>
<stop offset="1" stop-color="#A8E3FF" stop-opacity="0.799"/>
</linearGradient>
<clipPath id="clip0_2087_36490">
<rect width="40" height="40" fill="white" transform="translate(0.5 0.574219)"/>
</clipPath>
</defs>
</svg>
