<svg width="41" height="41" viewBox="0 0 41 41" fill="none" xmlns="http://www.w3.org/2000/svg">
<g id="wow 1" clip-path="url(#clip0_2087_36478)">
<g id="Group">
<path id="Vector" d="M40.5 20.5742C40.5 25.8785 38.3927 30.9657 34.6423 34.7165C30.8915 38.467 25.8043 40.5742 20.5 40.5742C15.1957 40.5742 10.1086 38.467 6.35787 34.7165C2.60714 30.9657 0.5 25.8785 0.5 20.5742C0.5 15.2699 2.60714 10.1828 6.35787 6.43209C10.1086 2.68136 15.1957 0.574219 20.5 0.574219C25.8043 0.574219 30.8915 2.68136 34.6423 6.43209C38.3927 10.1828 40.5 15.2699 40.5 20.5742Z" fill="url(#paint0_linear_2087_36478)"/>
<path id="Vector_2" d="M14.6077 27.7942C14.2127 32.4067 16.4227 35.5742 20.5002 35.5742C24.5753 35.5742 26.7877 32.4067 26.3927 27.7942C26.0002 23.1792 23.6053 20.5742 20.5002 20.5742C17.3952 20.5742 15.0002 23.1792 14.6077 27.7942Z" fill="url(#paint1_linear_2087_36478)"/>
<path id="Vector_3" d="M9.25 14.3242C9.25 12.2542 10.6475 10.5742 12.375 10.5742C14.1025 10.5742 15.5 12.2542 15.5 14.3242C15.5 16.3967 14.1025 18.0742 12.375 18.0742C10.6475 18.0742 9.25 16.3967 9.25 14.3242ZM25.5 14.3242C25.5 12.2542 26.9 10.5742 28.625 10.5742C30.3525 10.5742 31.75 12.2542 31.75 14.3242C31.75 16.3967 30.3525 18.0742 28.625 18.0742C26.9 18.0742 25.5 16.3967 25.5 14.3242Z" fill="url(#paint2_linear_2087_36478)"/>
<g id="Vector_4" filter="url(#filter0_i_2087_36478)">
<path d="M9.25 14.3242C9.25 12.2542 10.6475 10.5742 12.375 10.5742C14.1025 10.5742 15.5 12.2542 15.5 14.3242C15.5 16.3967 14.1025 18.0742 12.375 18.0742C10.6475 18.0742 9.25 16.3967 9.25 14.3242ZM25.5 14.3242C25.5 12.2542 26.9 10.5742 28.625 10.5742C30.3525 10.5742 31.75 12.2542 31.75 14.3242C31.75 16.3967 30.3525 18.0742 28.625 18.0742C26.9 18.0742 25.5 16.3967 25.5 14.3242Z" fill="black"/>
</g>
<path id="Vector_5" d="M11.7027 11.9917C12.1677 12.0967 12.4277 12.6217 12.2827 13.1642C12.1402 13.7092 11.6477 14.0642 11.1827 13.9592C10.7177 13.8542 10.4577 13.3292 10.6027 12.7842C10.7452 12.2442 11.2377 11.8842 11.7027 11.9917ZM28.3478 12.1492C28.8628 12.2667 29.1528 12.8492 28.9928 13.4492C28.8328 14.0567 28.2878 14.4492 27.7703 14.3342C27.2553 14.2192 26.9653 13.6342 27.1253 13.0317C27.2828 12.4267 27.8303 12.0317 28.3503 12.1492H28.3478Z" fill="#4E506A"/>
<g id="Vector_6" filter="url(#filter1_d_2087_36478)">
<path d="M28.1705 4.81525C28.3005 4.80275 28.4305 4.79775 28.563 4.79775C29.7805 4.79775 31.038 5.30775 31.993 6.20275C32.1653 6.3669 32.2673 6.59143 32.2775 6.82915C32.2878 7.0669 32.2055 7.29938 32.048 7.47775C31.972 7.56523 31.8788 7.63643 31.7745 7.68703C31.6703 7.73763 31.5568 7.7666 31.4408 7.7722C31.325 7.7778 31.2093 7.75993 31.1005 7.71963C30.9918 7.67935 30.8923 7.61748 30.808 7.53775C30.1205 6.89025 29.168 6.53775 28.328 6.61525C28.0368 6.63705 27.7535 6.72245 27.4988 6.8654C27.244 7.00838 27.0235 7.20545 26.853 7.44275C26.7845 7.53575 26.698 7.6141 26.5988 7.67318C26.4995 7.73225 26.3895 7.77085 26.2753 7.7867C26.1608 7.80253 26.0443 7.7953 25.9328 7.76543C25.8213 7.73555 25.7168 7.68365 25.6255 7.61275C25.4388 7.4644 25.3169 7.2493 25.2856 7.01285C25.2544 6.77638 25.3162 6.53703 25.458 6.34525C25.773 5.9096 26.1785 5.54728 26.6468 5.28318C27.115 5.01908 27.6348 4.85945 28.1705 4.81525ZM9.00804 6.20275C9.93496 5.32123 11.1591 4.8198 12.438 4.79775C13.0423 4.78465 13.6406 4.91865 14.1815 5.18825C14.7225 5.45783 15.1897 5.8549 15.543 6.34525C15.6845 6.53693 15.7464 6.77593 15.7156 7.0122C15.6849 7.24848 15.5639 7.46368 15.378 7.61275C15.2866 7.6837 15.182 7.73568 15.0702 7.76558C14.9585 7.79548 14.8418 7.80273 14.7272 7.78688C14.6126 7.77105 14.5023 7.73245 14.4029 7.67333C14.3034 7.61423 14.2167 7.53583 14.148 7.44275C13.9774 7.20555 13.757 7.00858 13.5022 6.86563C13.2474 6.72268 12.9644 6.63723 12.673 6.61525C11.8355 6.53775 10.8805 6.89025 10.193 7.53775C10.1088 7.61748 10.0093 7.67935 9.90059 7.71963C9.79184 7.75993 9.67606 7.7778 9.56024 7.7722C9.44441 7.7666 9.33089 7.73763 9.22654 7.68703C9.12219 7.63643 9.02916 7.56523 8.95304 7.47775C8.79554 7.29938 8.71326 7.0669 8.72351 6.82915C8.73379 6.59143 8.83576 6.3669 9.00804 6.20275Z" fill="black"/>
</g>
<path id="Vector_7" d="M28.1705 4.81525C28.3005 4.80275 28.4305 4.79775 28.563 4.79775C29.7805 4.79775 31.038 5.30775 31.993 6.20275C32.1653 6.3669 32.2673 6.59143 32.2775 6.82915C32.2878 7.0669 32.2055 7.29938 32.048 7.47775C31.972 7.56523 31.8788 7.63643 31.7745 7.68703C31.6703 7.73763 31.5568 7.7666 31.4408 7.7722C31.325 7.7778 31.2093 7.75993 31.1005 7.71963C30.9918 7.67935 30.8923 7.61748 30.808 7.53775C30.1205 6.89025 29.168 6.53775 28.328 6.61525C28.0368 6.63705 27.7535 6.72245 27.4988 6.8654C27.244 7.00838 27.0235 7.20545 26.853 7.44275C26.7845 7.53575 26.698 7.6141 26.5988 7.67318C26.4995 7.73225 26.3895 7.77085 26.2753 7.7867C26.1608 7.80253 26.0443 7.7953 25.9328 7.76543C25.8213 7.73555 25.7168 7.68365 25.6255 7.61275C25.4388 7.4644 25.3169 7.2493 25.2856 7.01285C25.2544 6.77638 25.3162 6.53703 25.458 6.34525C25.773 5.9096 26.1785 5.54728 26.6468 5.28318C27.115 5.01908 27.6348 4.85945 28.1705 4.81525ZM9.00804 6.20275C9.93496 5.32123 11.1591 4.8198 12.438 4.79775C13.0423 4.78465 13.6406 4.91865 14.1815 5.18825C14.7225 5.45783 15.1897 5.8549 15.543 6.34525C15.6845 6.53693 15.7464 6.77593 15.7156 7.0122C15.6849 7.24848 15.5639 7.46368 15.378 7.61275C15.2866 7.6837 15.182 7.73568 15.0702 7.76558C14.9585 7.79548 14.8418 7.80273 14.7272 7.78688C14.6126 7.77105 14.5023 7.73245 14.4029 7.67333C14.3034 7.61423 14.2167 7.53583 14.148 7.44275C13.9774 7.20555 13.757 7.00858 13.5022 6.86563C13.2474 6.72268 12.9644 6.63723 12.673 6.61525C11.8355 6.53775 10.8805 6.89025 10.193 7.53775C10.1088 7.61748 10.0093 7.67935 9.90059 7.71963C9.79184 7.75993 9.67606 7.7778 9.56024 7.7722C9.44441 7.7666 9.33089 7.73763 9.22654 7.68703C9.12219 7.63643 9.02916 7.56523 8.95304 7.47775C8.79554 7.29938 8.71326 7.0669 8.72351 6.82915C8.73379 6.59143 8.83576 6.3669 9.00804 6.20275Z" fill="url(#paint3_linear_2087_36478)"/>
</g>
</g>
<defs>
<filter id="filter0_i_2087_36478" x="9.25" y="10.5742" width="22.5" height="7.5" filterUnits="userSpaceOnUse" color-interpolation-filters="sRGB">
<feFlood flood-opacity="0" result="BackgroundImageFix"/>
<feBlend mode="normal" in="SourceGraphic" in2="BackgroundImageFix" result="shape"/>
<feColorMatrix in="SourceAlpha" type="matrix" values="0 0 0 0 0 0 0 0 0 0 0 0 0 0 0 0 0 0 127 0" result="hardAlpha"/>
<feOffset/>
<feGaussianBlur stdDeviation="0.5"/>
<feComposite in2="hardAlpha" operator="arithmetic" k2="-1" k3="1"/>
<feColorMatrix type="matrix" values="0 0 0 0 0.0980392 0 0 0 0 0.101961 0 0 0 0 0.2 0 0 0 0.819684 0"/>
<feBlend mode="normal" in2="shape" result="effect1_innerShadow_2087_36478"/>
</filter>
<filter id="filter1_d_2087_36478" x="5.72266" y="2.79688" width="29.5547" height="9" filterUnits="userSpaceOnUse" color-interpolation-filters="sRGB">
<feFlood flood-opacity="0" result="BackgroundImageFix"/>
<feColorMatrix in="SourceAlpha" type="matrix" values="0 0 0 0 0 0 0 0 0 0 0 0 0 0 0 0 0 0 127 0" result="hardAlpha"/>
<feOffset dy="1"/>
<feGaussianBlur stdDeviation="1.5"/>
<feColorMatrix type="matrix" values="0 0 0 0 0.803922 0 0 0 0 0.388235 0 0 0 0 0.00392157 0 0 0 0.145679 0"/>
<feBlend mode="normal" in2="BackgroundImageFix" result="effect1_dropShadow_2087_36478"/>
<feBlend mode="normal" in="SourceGraphic" in2="effect1_dropShadow_2087_36478" result="shape"/>
</filter>
<linearGradient id="paint0_linear_2087_36478" x1="20.5" y1="4.67422" x2="20.5" y2="40.5742" gradientUnits="userSpaceOnUse">
<stop stop-color="#FEEA70"/>
<stop offset="1" stop-color="#F69B30"/>
</linearGradient>
<linearGradient id="paint1_linear_2087_36478" x1="20.5" y1="20.5742" x2="20.5" y2="35.5742" gradientUnits="userSpaceOnUse">
<stop stop-color="#472315"/>
<stop offset="1" stop-color="#8B3A0E"/>
</linearGradient>
<linearGradient id="paint2_linear_2087_36478" x1="20.5" y1="10.5742" x2="20.5" y2="18.0742" gradientUnits="userSpaceOnUse">
<stop stop-color="#191A33"/>
<stop offset="0.872" stop-color="#3B426A"/>
</linearGradient>
<linearGradient id="paint3_linear_2087_36478" x1="20.5" y1="4.79568" x2="20.5" y2="7.79568" gradientUnits="userSpaceOnUse">
<stop stop-color="#E78E0D"/>
<stop offset="1" stop-color="#CB6000"/>
</linearGradient>
<clipPath id="clip0_2087_36478">
<rect width="40" height="40" fill="white" transform="translate(0.5 0.574219)"/>
</clipPath>
</defs>
</svg>
