<svg width="30" height="30" viewBox="0 0 30 30" fill="none" xmlns="http://www.w3.org/2000/svg">
<path fill-rule="evenodd" clip-rule="evenodd" d="M26.9822 4.12844H17.4853V1.89062L1.875 4.3V25.4191L17.4853 28.1078V24.7909H26.9822C27.2698 24.8055 27.5515 24.7056 27.7657 24.513C27.9798 24.3205 28.109 24.051 28.125 23.7634V5.155C28.1088 4.86762 27.9795 4.59834 27.7653 4.40599C27.5512 4.21365 27.2697 4.11386 26.9822 4.12844ZM27.1322 23.9341H17.4534L17.4375 22.1631H19.7691V20.1006H17.4197L17.4084 18.8819H19.7691V16.8194H17.3906L17.3794 15.6006H19.7691V13.5381H17.3719V12.3194H19.7691V10.2569H17.3719V9.03813H19.7691V6.97563H17.3719V5.10063H27.1322V23.9341Z" fill="#20744A"/>
<path d="M21.082 6.97266H25.1348V9.03516H21.082V6.97266Z" fill="#20744A"/>
<path d="M21.082 10.2578H25.1348V12.3203H21.082V10.2578Z" fill="#20744A"/>
<path d="M21.082 13.5391H25.1348V15.6016H21.082V13.5391Z" fill="#20744A"/>
<path d="M21.082 16.8203H25.1348V18.8828H21.082V16.8203Z" fill="#20744A"/>
<path d="M21.082 20.1016H25.1348V22.1641H21.082V20.1016Z" fill="#20744A"/>
<path fill-rule="evenodd" clip-rule="evenodd" d="M5.94984 10.0069L7.96172 9.89156L9.22641 13.3687L10.7208 9.74813L12.7327 9.63281L10.2895 14.5697L12.7327 19.5187L10.6055 19.3753L9.16922 15.6028L7.73203 19.2319L5.77734 19.0594L8.04797 14.6878L5.94984 10.0069Z" fill="white"/>
</svg>
