<svg width="40" height="40" viewBox="0 0 40 40" fill="none" xmlns="http://www.w3.org/2000/svg">
<g clip-path="url(#clip0)">
<path d="M36.3532 15.6423L39.2291 20.0021L36.3532 24.3618L36.6365 29.5803L31.9934 31.9309L29.6428 36.574L24.4243 36.2907L20.0646 39.1666L15.7051 36.2907L10.4867 36.574L8.13605 31.9309L3.493 29.5803L3.77629 24.3618L0.900391 20.0021L3.77629 15.6423L3.493 10.4242L8.13605 8.07355L10.4867 3.43017L15.7051 3.71379L20.0646 0.837891L24.4243 3.71379L29.6428 3.43017L31.9934 8.07355L36.6365 10.4242L36.3532 15.6423ZM31.6851 20.0021C31.6851 13.5844 26.4823 8.38192 20.0646 8.38192C13.6469 8.38192 8.44442 13.5844 8.44442 20.0021C8.44442 26.4198 13.6469 31.6226 20.0646 31.6226C26.4826 31.6232 31.6857 26.4201 31.6851 20.0021Z" fill="#9DC1E4"/>
<path d="M24.5246 16.2845L18.5146 21.9611L15.6302 18.9937C15.3104 18.6645 14.7839 18.657 14.455 18.9768C14.1258 19.2968 14.1183 19.8231 14.4381 20.1523L17.8975 23.7035C18.2189 24.0268 18.7383 24.0379 19.073 23.7282L25.6835 17.4848C25.844 17.3333 25.9378 17.1246 25.944 16.9039C25.9502 16.6834 25.8684 16.4695 25.7167 16.3093C25.3911 15.9817 24.8639 15.9706 24.5246 16.2845Z" fill="#4C5BD4"/>
<path d="M20.0651 7.54834C13.1964 7.54834 7.61133 13.1334 7.61133 20.0021C7.61133 26.8711 13.1964 32.4562 20.0651 32.4562C26.9341 32.4562 32.5192 26.8711 32.5192 20.0021C32.5192 13.1334 26.9341 7.54834 20.0651 7.54834ZM20.0651 30.789C14.1134 30.789 9.27852 25.9457 9.27852 20.0021C9.27852 14.0585 14.1134 9.21553 20.0651 9.21553C26.0227 9.21553 30.852 14.0448 30.852 20.0021C30.852 25.9594 26.0227 30.789 20.0651 30.789Z" fill="#4C5BD4"/>
<path d="M37.2038 15.4173L37.4789 10.4741C37.4981 10.1422 37.3177 9.83063 37.0205 9.68214L32.619 7.45651L30.3934 3.05507C30.242 2.76038 29.9323 2.58097 29.6015 2.5966L24.6497 2.86361L20.5234 0.137494C20.2453 -0.0458314 19.8849 -0.0458314 19.6065 0.137494L15.4802 2.86361L10.5372 2.58846C10.2051 2.56892 9.89378 2.74931 9.7453 3.04693L7.51934 7.44837L3.11822 9.674C2.82321 9.82509 2.64412 10.1348 2.65975 10.4659L2.93457 15.4092L0.208783 19.5355C0.0254576 19.8136 0.0254576 20.174 0.208783 20.4524L2.92643 24.5869L2.65128 29.5301C2.63207 29.862 2.81214 30.1736 3.10976 30.3221L7.5112 32.5477L9.73683 36.9491C9.88792 37.2441 10.1976 37.4232 10.5287 37.4076L15.472 37.1325L19.5983 39.8582C19.8748 40.0474 20.2388 40.0474 20.5153 39.8582L24.6416 37.1325L29.5849 37.4076C29.9167 37.4268 30.228 37.2464 30.3768 36.9491L32.6024 32.5477L37.0038 30.3221C37.2985 30.1706 37.478 29.8613 37.4623 29.5301L37.1872 24.5869L39.913 20.4606C40.0963 20.1825 40.0963 19.8217 39.913 19.5436L37.2038 15.4173ZM35.6532 23.9034C35.5516 24.0525 35.5043 24.2319 35.52 24.412L35.7782 29.0883L31.6187 31.1889C31.4601 31.2683 31.3315 31.3973 31.252 31.5558L29.1511 35.7153L24.4749 35.4571C24.2958 35.4506 24.1189 35.4969 23.9662 35.5903L20.0649 38.1663L16.164 35.5903C16.0285 35.4988 15.869 35.4493 15.7055 35.4487H15.6638L10.9872 35.7072L8.88663 31.5474C8.80718 31.3888 8.67856 31.2602 8.51966 31.1807L4.35168 29.0883L4.61023 24.412C4.61674 24.2329 4.57018 24.0561 4.47672 23.9034L1.90105 20.0021L4.47672 16.1008C4.57864 15.952 4.62586 15.7723 4.61023 15.5925L4.35168 10.9159L8.51152 8.81534C8.67009 8.73588 8.79871 8.60726 8.87817 8.44869L10.9788 4.28886L15.6554 4.5474C15.8341 4.55359 16.0109 4.50735 16.164 4.4139L20.0649 1.83822L23.9662 4.4139C24.1154 4.51582 24.2951 4.56303 24.4749 4.5474L29.1511 4.28886L31.252 8.44869C31.3315 8.60726 31.4601 8.73588 31.6187 8.81534L35.7782 10.9159L35.52 15.5925C35.5135 15.7713 35.56 15.9481 35.6532 16.1008L38.2207 20.0021L35.6532 23.9034Z" fill="#4C5BD4"/>
</g>
<defs>
<clipPath id="clip0">
<rect width="40" height="40" fill="white"/>
</clipPath>
</defs>
</svg>
