<svg width="30" height="30" viewBox="0 0 30 30" fill="none" xmlns="http://www.w3.org/2000/svg">
<circle cx="15" cy="15" r="15" fill="#4C5BD4"/>
<path d="M16 15C16.5304 15 17.0391 15.2107 17.4142 15.5858C17.7893 15.9609 18 16.4696 18 17V18.5C18 20.554 15.912 22 12.5 22C9.088 22 7 20.554 7 18.5V17C7 16.4696 7.21071 15.9609 7.58579 15.5858C7.96086 15.2107 8.46957 15 9 15H16ZM21 15C21.5304 15 22.0391 15.2107 22.4142 15.5858C22.7893 15.9609 23 16.4696 23 17V17.5C23 19.589 21.432 21 18.5 21C18.359 21 18.22 20.997 18.086 20.99C18.625 20.363 18.944 19.604 18.993 18.739L19 18.5V17C19 16.308 18.766 15.67 18.372 15.163L18.235 15H21ZM12.5 7C12.9596 7 13.4148 7.09053 13.8394 7.26642C14.264 7.44231 14.6499 7.70012 14.9749 8.02513C15.2999 8.35013 15.5577 8.73597 15.7336 9.16061C15.9095 9.58525 16 10.0404 16 10.5C16 10.9596 15.9095 11.4148 15.7336 11.8394C15.5577 12.264 15.2999 12.6499 14.9749 12.9749C14.6499 13.2999 14.264 13.5577 13.8394 13.7336C13.4148 13.9095 12.9596 14 12.5 14C11.5717 14 10.6815 13.6313 10.0251 12.9749C9.36875 12.3185 9 11.4283 9 10.5C9 9.57174 9.36875 8.6815 10.0251 8.02513C10.6815 7.36875 11.5717 7 12.5 7ZM19.5 9C20.163 9 20.7989 9.26339 21.2678 9.73223C21.7366 10.2011 22 10.837 22 11.5C22 12.163 21.7366 12.7989 21.2678 13.2678C20.7989 13.7366 20.163 14 19.5 14C18.837 14 18.2011 13.7366 17.7322 13.2678C17.2634 12.7989 17 12.163 17 11.5C17 10.837 17.2634 10.2011 17.7322 9.73223C18.2011 9.26339 18.837 9 19.5 9Z" fill="white"/>
</svg>
