<svg width="18" height="18" viewBox="0 0 18 18" fill="none" xmlns="http://www.w3.org/2000/svg">
<path d="M0.428711 9.00014C0.428711 7.87452 0.650417 6.75993 1.08117 5.71999C1.51193 4.68006 2.14329 3.73515 2.93922 2.93922C3.73515 2.14329 4.68006 1.51193 5.71999 1.08117C6.75993 0.650417 7.87452 0.428711 9.00014 0.428711C10.1258 0.428711 11.2403 0.650417 12.2803 1.08117C13.3202 1.51193 14.2651 2.14329 15.0611 2.93922C15.857 3.73515 16.4883 4.68006 16.9191 5.71999C17.3499 6.75993 17.5716 7.87452 17.5716 9.00014C17.5716 11.2734 16.6685 13.4536 15.0611 15.0611C13.4536 16.6685 11.2734 17.5716 9.00014 17.5716C6.72685 17.5716 4.54668 16.6685 2.93922 15.0611C1.33177 13.4536 0.428711 11.2734 0.428711 9.00014V9.00014ZM9.00014 4.71442C8.8107 4.71442 8.62902 4.78968 8.49506 4.92363C8.36111 5.05759 8.28585 5.23927 8.28585 5.42871V8.28585H5.42871C5.23927 8.28585 5.05759 8.36111 4.92363 8.49506C4.78968 8.62902 4.71442 8.8107 4.71442 9.00014C4.71442 9.18958 4.78968 9.37126 4.92363 9.50521C5.05759 9.63917 5.23927 9.71442 5.42871 9.71442H8.28585V12.5716C8.28585 12.761 8.36111 12.9427 8.49506 13.0766C8.62902 13.2106 8.8107 13.2859 9.00014 13.2859C9.18958 13.2859 9.37126 13.2106 9.50521 13.0766C9.63917 12.9427 9.71442 12.761 9.71442 12.5716V9.71442H12.5716C12.761 9.71442 12.9427 9.63917 13.0766 9.50521C13.2106 9.37126 13.2859 9.18958 13.2859 9.00014C13.2859 8.8107 13.2106 8.62902 13.0766 8.49506C12.9427 8.36111 12.761 8.28585 12.5716 8.28585H9.71442V5.42871C9.71442 5.23927 9.63917 5.05759 9.50521 4.92363C9.37126 4.78968 9.18958 4.71442 9.00014 4.71442Z" fill="#4C5BD4"/>
</svg>
