<svg width="45" height="46" viewBox="0 0 45 46" fill="none" xmlns="http://www.w3.org/2000/svg">
<g clip-path="url(#clip0)">
<ellipse cx="22.5695" cy="24.1955" rx="16.6911" ry="16.6911" fill="#D5D9F4"/>
<path d="M22.0865 3.9767L22.0866 3.97669C22.2396 3.97156 22.3995 3.97151 22.5694 3.97151H22.5841L22.5987 3.97065C23.1911 3.93584 23.6995 4.38777 23.7344 4.98022C23.7692 5.57257 23.3172 6.08095 22.7248 6.11584L22.7247 6.11585C22.6828 6.11833 22.6408 6.11833 22.5989 6.11585L22.5842 6.11497H22.5694H22.5657C22.3998 6.11497 22.2301 6.11497 22.0536 6.1207L22.0532 6.12071C21.7243 6.13165 21.3873 6.14831 21.0521 6.18226C10.9855 7.02122 3.50369 15.8607 4.34013 25.9281C5.17669 35.9971 14.0174 43.4812 24.0864 42.6446C33.5706 41.8566 40.8665 33.9286 40.8657 24.4118C40.8661 23.8214 41.3451 23.3431 41.9355 23.3435H41.9356C42.5252 23.3438 43.0032 23.8217 43.0037 24.4114C42.9991 35.6968 33.8467 44.8417 22.5613 44.8372C11.2758 44.8326 2.13058 35.6803 2.13503 24.3948C2.13928 13.6699 10.4343 4.7733 21.1325 4.01921C21.4426 3.99816 21.7594 3.98757 22.0865 3.9767Z" fill="#FFA800" stroke="#4C5BD4"/>
<path d="M22.5699 8.49913V1.58781L27.7324 5.04344L22.5699 8.49913Z" fill="#FFA800" stroke="#4C5BD4"/>
<path d="M22.571 37.4164L22.5692 37.4164C19.4515 37.4189 16.4433 36.2999 14.0892 34.2741L18.2322 30.5659C19.4199 31.4088 20.829 31.8879 22.2864 31.9425L23.3362 37.3941C23.0814 37.4096 22.8263 37.417 22.571 37.4164Z" fill="#9DC1E4" stroke="#4C5BD4"/>
<path d="M15.0341 24.4032C15.0305 25.676 15.3536 26.926 15.9693 28.0345L11.8267 31.7379C8.651 27.1024 8.8227 20.9384 12.2516 16.4868L16.173 20.4174C15.4281 21.6103 15.0319 22.9913 15.0341 24.4032Z" fill="#9DC1E4" stroke="#4C5BD4"/>
<path d="M18.5781 18.0105L14.6521 14.0846C16.4592 12.6895 18.6057 11.8013 20.8701 11.5115V17.0606C20.0584 17.2469 19.2836 17.568 18.5781 18.0105Z" fill="#9DC1E4" stroke="#4C5BD4"/>
<path d="M35.5829 24.4035C35.5841 30.0266 31.9772 34.9914 26.68 36.7525L25.6303 31.2957C29.2624 29.6848 31.0429 25.4957 29.6176 21.7346L29.15 21.9117L29.6176 21.7345C28.7231 19.3742 26.7111 17.6271 24.27 17.0617V11.5132C30.7118 12.3544 35.5811 17.8507 35.5829 24.4035ZM35.5829 24.4035L36.0829 24.4033M35.5829 24.4035L36.0829 24.4033M36.0829 24.4033C36.0842 30.2647 32.3101 35.4372 26.7752 37.2475L36.0829 24.4033ZM26.1996 36.902L25.0621 30.9888L26.1996 36.902Z" fill="#9DC1E4" stroke="#4C5BD4"/>
</g>
<defs>
<clipPath id="clip0">
<rect width="44.5095" height="44.5095" fill="white" transform="translate(0.314789 0.828125)"/>
</clipPath>
</defs>
</svg>
