<svg width="30" height="30" viewBox="0 0 30 30" fill="none" xmlns="http://www.w3.org/2000/svg">
<path d="M15 0C6.71572 0 0 6.71572 0 15C0 23.2843 6.71572 30 15 30C23.2843 30 30 23.2843 30 15C29.9929 6.71871 23.2813 0.00711514 15 0ZM15 28.7063C7.43022 28.7063 1.29366 22.5698 1.29366 15C1.29366 7.43022 7.43022 1.29366 15 1.29366C22.5698 1.29366 28.7063 7.43022 28.7063 15C28.6992 22.5669 22.5669 28.6992 15 28.7063Z" fill="#4C5BD4"/>
<path d="M23.829 12.6767C23.7173 12.5634 23.5676 12.4953 23.4087 12.4853L17.9818 11.6962L15.5821 6.78029C15.4227 6.46059 15.0344 6.33058 14.7146 6.48994C14.5889 6.5526 14.4869 6.65456 14.4242 6.78029L11.9986 11.7027L6.59113 12.4853C6.23763 12.5366 5.99256 12.8648 6.04391 13.2184C6.06452 13.3605 6.13188 13.4918 6.23537 13.5914L10.1616 17.4207L9.17845 22.8282C9.11991 23.1806 9.35811 23.5137 9.71047 23.5723C9.84921 23.5953 9.99168 23.5725 10.1164 23.5073L14.9999 20.9588L19.8576 23.5138C20.1649 23.6961 20.5617 23.5947 20.744 23.2875C20.8259 23.1493 20.8535 22.9856 20.8214 22.8282L19.8964 17.4207L23.8227 13.5914C24.0771 13.3405 24.0798 12.931 23.829 12.6767ZM18.6933 16.7286C18.5393 16.8776 18.469 17.0931 18.5058 17.3042L19.269 21.7544L15.2716 19.6522C15.0833 19.5533 14.8584 19.5533 14.67 19.6522L10.6726 21.7544L11.4359 17.3042C11.4726 17.0931 11.4023 16.8776 11.2483 16.7286L8.01415 13.5785L12.4838 12.9317C12.6941 12.9 12.8755 12.767 12.9689 12.5759L14.9999 8.5332L16.9986 12.5824C17.092 12.7735 17.2734 12.9065 17.4838 12.9381L21.9534 13.585L18.6933 16.7286Z" fill="#4C5BD4"/>
</svg>
