<svg width="16" height="16" viewBox="0 0 16 16" fill="none" xmlns="http://www.w3.org/2000/svg">
<path d="M10.715 5.79688C10.4603 5.79688 10.2539 5.96462 10.2539 6.17158V13.2536C10.2539 13.4604 10.4603 13.6283 10.715 13.6283C10.9696 13.6283 11.176 13.4604 11.176 13.2536V6.17158C11.176 5.96462 10.9696 5.79688 10.715 5.79688Z" fill="#FF3333"/>
<path d="M5.27552 5.79688C5.02085 5.79688 4.81445 5.96462 4.81445 6.17158V13.2536C4.81445 13.4604 5.02085 13.6283 5.27552 13.6283C5.53019 13.6283 5.73659 13.4604 5.73659 13.2536V6.17158C5.73659 5.96462 5.53019 5.79688 5.27552 5.79688Z" fill="#FF3333"/>
<path d="M1.30951 4.76335V13.9953C1.30951 14.541 1.55571 15.0534 1.9858 15.4211C2.41391 15.7898 3.0097 15.9991 3.63322 16H12.3568C12.9805 15.9991 13.5763 15.7898 14.0042 15.4211C14.4343 15.0534 14.6805 14.541 14.6805 13.9953V4.76335C15.5354 4.57893 16.0895 3.90768 15.9751 3.19471C15.8605 2.48189 15.1133 1.94867 14.2286 1.94852H11.868V1.48014C11.8707 1.08626 11.679 0.708039 11.3359 0.42979C10.9928 0.151688 10.5267 -0.0031709 10.0421 4.92333e-05H5.94793C5.46327 -0.0031709 4.99716 0.151688 4.65406 0.42979C4.31096 0.708039 4.11932 1.08626 4.12203 1.48014V1.94852H1.76139C0.876717 1.94867 0.129463 2.48189 0.0149158 3.19471C-0.0994507 3.90768 0.454552 4.57893 1.30951 4.76335ZM12.3568 15.2506H3.63322C2.8449 15.2506 2.23165 14.7002 2.23165 13.9953V4.79629H13.7584V13.9953C13.7584 14.7002 13.1451 15.2506 12.3568 15.2506ZM5.04416 1.48014C5.0411 1.28503 5.13548 1.09724 5.30586 0.959502C5.47605 0.821768 5.70767 0.746095 5.94793 0.749461H10.0421C10.2823 0.746095 10.5139 0.821768 10.6841 0.959502C10.8545 1.09709 10.9489 1.28503 10.9458 1.48014V1.94852H5.04416V1.48014ZM1.76139 2.69793H14.2286C14.687 2.69793 15.0585 2.99989 15.0585 3.3724C15.0585 3.74492 14.687 4.04688 14.2286 4.04688H1.76139C1.30303 4.04688 0.931469 3.74492 0.931469 3.3724C0.931469 2.99989 1.30303 2.69793 1.76139 2.69793Z" fill="#FF3333"/>
<path d="M7.99524 5.79688C7.74058 5.79688 7.53418 5.96462 7.53418 6.17158V13.2536C7.53418 13.4604 7.74058 13.6283 7.99524 13.6283C8.24991 13.6283 8.4563 13.4604 8.4563 13.2536V6.17158C8.4563 5.96462 8.24991 5.79688 7.99524 5.79688Z" fill="#FF3333"/>
</svg>
