<svg width="16" height="11" viewBox="0 0 16 11" fill="none" xmlns="http://www.w3.org/2000/svg">
<path d="M15.3333 7.65578H13.558C13.2693 6.69239 12.3867 5.98438 11.3333 5.98438C10.28 5.98438 9.398 6.69239 9.10869 7.65578H0.666656C0.298656 7.65578 0 7.95532 0 8.32437C0 8.69341 0.298656 8.99292 0.666656 8.99292H9.10865C9.39731 9.95632 10.28 10.6643 11.3333 10.6643C12.3866 10.6643 13.2687 9.95632 13.558 8.99292H15.3333C15.702 8.99292 16 8.69341 16 8.32437C16 7.95532 15.702 7.65578 15.3333 7.65578ZM11.3333 9.32722C10.782 9.32722 10.3333 8.87728 10.3333 8.32437C10.3333 7.77145 10.782 7.32152 11.3333 7.32152C11.8847 7.32152 12.3333 7.77145 12.3333 8.32437C12.3333 8.87728 11.8847 9.32722 11.3333 9.32722Z" fill="#4C5BD4"/>
<path d="M15.3333 2.3091H6.89134C6.602 1.34571 5.72 0.637695 4.66669 0.637695C3.61337 0.637695 2.73134 1.34571 2.44203 2.3091H0.666656C0.298656 2.3091 0 2.60861 0 2.97766C0 3.3467 0.298656 3.64621 0.666656 3.64621H2.442C2.73134 4.6096 3.61334 5.31762 4.66666 5.31762C5.71997 5.31762 6.602 4.6096 6.89131 3.64621H15.3333C15.702 3.64621 16 3.3467 16 2.97766C16 2.60861 15.702 2.3091 15.3333 2.3091ZM4.66666 3.9805C4.11531 3.9805 3.66666 3.53057 3.66666 2.97766C3.66666 2.42474 4.11531 1.97481 4.66666 1.97481C5.218 1.97481 5.66666 2.42474 5.66666 2.97766C5.66666 3.53057 5.218 3.9805 4.66666 3.9805Z" fill="#4C5BD4"/>
</svg>
