<svg width="90" height="90" viewBox="0 0 90 90" fill="none" xmlns="http://www.w3.org/2000/svg">
<g clip-path="url(#clip0)">
<path d="M45.0001 90.0002C69.853 90.0002 90.0002 69.853 90.0002 45.0001C90.0002 20.1472 69.853 0 45.0001 0C20.1472 0 0 20.1472 0 45.0001C0 69.853 20.1472 90.0002 45.0001 90.0002Z" fill="#86CC22"/>
<path d="M90.0002 44.9998C90.0002 69.7499 69.7502 89.9999 45.0001 89.9999C30.6564 89.9999 18.0001 83.5312 9.84375 73.125C17.4375 79.3125 27.2813 82.9688 37.9687 82.9688C62.7188 82.9688 82.9688 62.7188 82.9688 37.9687C82.9688 27.2813 79.3125 17.4375 73.125 9.84375C83.5314 17.9997 90.0002 30.656 90.0002 44.9998Z" fill="#76B51B"/>
<path d="M69.4689 32.0622L40.2189 64.1249C38.25 66.3749 34.8752 66.3749 32.9063 64.1249L20.5313 50.3436C18.8438 48.3747 18.8438 45.2811 20.8125 43.3122C22.7813 41.6248 25.875 41.6248 27.8438 43.5934L36.5626 53.4372L62.1563 25.5935C64.1252 23.6246 67.2188 23.3434 69.1877 25.3123C71.1563 26.9997 71.1563 30.3748 69.4689 32.0622Z" fill="white"/>
</g>
<defs>
<clipPath id="clip0">
<rect width="90" height="90" fill="white"/>
</clipPath>
</defs>
</svg>
