<svg width="40" height="35" viewBox="0 0 40 35" fill="none" xmlns="http://www.w3.org/2000/svg">
<path d="M36.4844 0.101562H3.51562C1.57398 0.101562 0 1.67555 0 3.61719V31.3788C0 33.3204 1.57398 34.8944 3.51562 34.8944H36.4844C38.426 34.8944 40 33.3204 40 31.3788V3.61719C40 1.67555 38.426 0.101562 36.4844 0.101562ZM7.81867 21.6973C7.34773 21.2264 7.36141 20.4544 7.85969 20.0009C8.32641 19.5763 9.0532 19.6173 9.49938 20.0635L11.0708 21.6349L12.6422 20.0635C13.0884 19.6173 13.8152 19.5763 14.2819 20.0009C14.7802 20.4544 14.7938 21.2264 14.3229 21.6973L12.728 23.2923L14.2982 24.8625C14.7584 25.3227 14.7848 26.0781 14.3268 26.5405C14.0975 26.7719 13.7959 26.8877 13.4942 26.8877C13.1943 26.8877 12.8944 26.7732 12.6656 26.5444L11.0707 24.9495L9.47578 26.5444C9.24695 26.7732 8.94703 26.8877 8.64719 26.8877C8.34555 26.8877 8.04391 26.7719 7.81461 26.5405C7.35656 26.0781 7.38297 25.3227 7.8432 24.8625L9.41344 23.2923L7.81867 21.6973ZM7.85969 10.8326C8.32641 10.4079 9.0532 10.449 9.49938 10.8952L10.9926 12.3884L14.9059 8.47508C15.352 8.02891 16.0788 7.98781 16.5455 8.4125C17.0438 8.86594 17.0575 9.63797 16.5866 10.1089L11.8212 14.8743C11.6014 15.0941 11.3034 15.2176 10.9926 15.2176C10.6818 15.2176 10.3837 15.0941 10.164 14.8743L7.81867 12.529C7.34773 12.058 7.36141 11.2859 7.85969 10.8326ZM20.8577 12.7961H31.3196C31.9506 12.7961 32.4936 13.281 32.5233 13.9113C32.555 14.5843 32.0187 15.1398 31.3527 15.1398H20.8907C20.2597 15.1398 19.7167 14.6549 19.687 14.0246C19.6554 13.3517 20.1916 12.7961 20.8577 12.7961ZM19.6871 9.22352C19.7168 8.5932 20.2598 8.10828 20.8908 8.10828H31.3197C31.9507 8.10828 32.4937 8.5932 32.5234 9.22352C32.5551 9.89649 32.0188 10.452 31.3528 10.452H20.8577C20.1916 10.452 19.6554 9.89649 19.6871 9.22352ZM20.8577 19.6969H31.3196C31.9506 19.6969 32.4936 20.1818 32.5233 20.8121C32.555 21.4851 32.0187 22.0406 31.3527 22.0406H20.8907C20.2597 22.0406 19.7167 21.5557 19.687 20.9254C19.6554 20.2524 20.1916 19.6969 20.8577 19.6969ZM20.8577 24.4622H31.3196C31.9506 24.4622 32.4936 24.9471 32.5233 25.5774C32.555 26.2504 32.0187 26.8059 31.3527 26.8059H20.8907C20.2597 26.8059 19.7167 26.321 19.687 25.6907C19.6554 25.0177 20.1916 24.4622 20.8577 24.4622Z" fill="#4C5BD4"/>
</svg>
