<svg width="28" height="31" viewBox="0 0 28 31" fill="none" xmlns="http://www.w3.org/2000/svg">
<path d="M8.11153 3.22727C8.11153 2.33296 8.95629 1.67936 10.0387 1.67936H17.9611C19.0432 1.67936 19.888 2.33296 19.888 3.22727V4.9226H21.3154V3.22727C21.3154 1.68282 19.8305 0.5 17.9611 0.5H10.0387C8.16938 0.5 6.68408 1.68282 6.68408 3.22727V4.9226H8.11153V3.22727Z" fill="#4C5BD4"/>
<path d="M5.56022 30.231H22.4397C24.0672 30.231 25.3301 29.0482 25.3301 27.5775V9.37109H2.66943V27.5775C2.66943 29.0482 3.93239 30.231 5.56022 30.231V30.231ZM18.5498 12.1868C18.5498 11.8611 18.8693 11.5971 19.2635 11.5971C19.6576 11.5971 19.9772 11.8611 19.9772 12.1868V26.118C19.9772 26.4436 19.6576 26.7076 19.2635 26.7076C18.8693 26.7076 18.5498 26.4436 18.5498 26.118V12.1868ZM13.2861 12.1868C13.2861 11.8611 13.6056 11.5971 13.9998 11.5971C14.3939 11.5971 14.7135 11.8611 14.7135 12.1868V26.118C14.7135 26.4436 14.3939 26.7076 13.9998 26.7076C13.6056 26.7076 13.2861 26.4436 13.2861 26.118V12.1868ZM8.02235 12.1868C8.02235 11.8611 8.34193 11.5971 8.73608 11.5971C9.13023 11.5971 9.4498 11.8611 9.4498 12.1868V26.118C9.4498 26.4436 9.13023 26.7076 8.73608 26.7076C8.34193 26.7076 8.02235 26.4436 8.02235 26.118V12.1868Z" fill="#4C5BD4"/>
<path d="M1.93824 8.62028H26.0619C27.0475 8.62028 27.8462 7.96034 27.8462 7.14608C27.8462 6.33181 27.0475 5.67188 26.0619 5.67188H1.93824C0.952687 5.67188 0.153931 6.33181 0.153931 7.14608C0.153931 7.96034 0.952687 8.62028 1.93824 8.62028Z" fill="#4C5BD4"/>
</svg>
