<svg width="86" height="86" viewBox="0 0 86 86" fill="none" xmlns="http://www.w3.org/2000/svg">
<path d="M39.4196 35.832H46.5863V53.7487H39.4196V35.832ZM39.416 57.332H46.5827V64.4987H39.416V57.332Z" fill="#FF3333"/>
<path d="M49.3377 15.0516C48.0907 12.7045 45.6612 11.2461 43.0023 11.2461C40.3435 11.2461 37.914 12.7045 36.667 15.0552L10.3725 64.7309C9.78903 65.8218 9.5 67.0459 9.53393 68.2826C9.56786 69.5192 9.92358 70.7257 10.566 71.7829C11.1992 72.8449 12.0984 73.7235 13.1748 74.3318C14.2513 74.9401 15.4678 75.2571 16.7043 75.2516H69.3004C71.8374 75.2516 74.1343 73.9544 75.4423 71.7829C76.0837 70.7253 76.4388 69.519 76.4727 68.2825C76.5066 67.0461 76.2182 65.8221 75.6358 64.7309L49.3377 15.0516ZM16.7043 68.0849L43.0023 18.4092L69.3183 68.0849H16.7043Z" fill="#FF3333"/>
</svg>
