<svg width="40" height="41" viewBox="0 0 40 41" fill="none" xmlns="http://www.w3.org/2000/svg">
<g clip-path="url(#clip0_259:12568)">
<path d="M18.7656 14.2936C19.165 14.2143 19.5776 14.1719 20 14.1719C23.4894 14.1719 26.3281 17.0106 26.3281 20.5C26.3281 23.9894 23.4894 26.8281 20 26.8281C16.5106 26.8281 13.6719 23.9894 13.6719 20.5C13.6719 20.0776 13.7143 19.665 13.7936 19.2656L17.514 22.986C18.1781 23.65 19.061 24.0156 20 24.0156C20.939 24.0156 21.8219 23.65 22.486 22.986C23.15 22.3219 23.5156 21.439 23.5156 20.5C23.5156 19.561 23.15 18.6781 22.486 18.014L18.7656 14.2936Z" fill="#4C5BD4"/>
<path d="M1.78986 12.2334L4.31122 14.7548C4.5636 15.0071 4.84802 15.2165 5.15503 15.3788C4.59961 16.985 4.29688 18.7077 4.29688 20.5C4.29688 29.1588 11.3412 36.2031 20 36.2031C28.6588 36.2031 35.7031 29.1588 35.7031 20.5C35.7031 11.8412 28.6588 4.79688 20 4.79688C18.2071 4.79688 16.4835 5.09991 14.877 5.65564C14.7144 5.34833 14.5065 5.06268 14.2545 4.81091L11.7334 2.28986C14.2545 1.14087 17.0535 0.5 20 0.5C31.0281 0.5 40 9.47186 40 20.5C40 31.5281 31.0281 40.5 20 40.5C8.97186 40.5 0 31.5281 0 20.5C0 17.5535 0.640869 14.7545 1.78986 12.2334Z" fill="#4C5BD4"/>
<path d="M15.0226 10.5507L15.2362 8.01892C16.7166 7.4516 18.3224 7.14062 20 7.14062C27.3663 7.14062 33.3594 13.1337 33.3594 20.5C33.3594 27.8663 27.3663 33.8594 20 33.8594C12.6337 33.8594 6.64062 27.8663 6.64062 20.5C6.64062 18.8224 6.9516 17.2166 7.51892 15.7362L10.0507 15.5226L11.9089 17.3805C11.5341 18.3491 11.3281 19.4008 11.3281 20.5C11.3281 25.2818 15.2182 29.1719 20 29.1719C24.7818 29.1719 28.6719 25.2818 28.6719 20.5C28.6719 15.7182 24.7818 11.8281 20 11.8281C18.9008 11.8281 17.8491 12.0341 16.8805 12.4089L15.0226 10.5507Z" fill="#4C5BD4"/>
<path d="M12.9367 7.39468L12.5955 11.4377L20.8286 19.6707C21.2863 20.1281 21.2863 20.8703 20.8286 21.3278C20.6 21.5567 20.3 21.6711 20 21.6711C19.7 21.6711 19.4 21.5567 19.1714 21.3278L10.9384 13.0948L6.89545 13.4356C6.86249 13.4384 6.82983 13.4399 6.79688 13.4399C6.48743 13.4399 6.18897 13.3172 5.96832 13.0966L0.996706 8.12466C0.674135 7.8024 0.567934 7.32205 0.724489 6.89359C0.88135 6.46512 1.27228 6.16666 1.72669 6.12851L5.32593 5.82486L5.62927 2.22592C5.66773 1.77121 5.96619 1.38028 6.39435 1.22372C6.82282 1.06686 7.30316 1.17337 7.62573 1.49564L12.5974 6.46756C12.8415 6.7117 12.9657 7.05075 12.9367 7.39468Z" fill="#4C5BD4"/>
</g>
<defs>
<clipPath id="clip0_259:12568">
<rect width="40" height="40" fill="white" transform="matrix(-1 0 0 1 40 0.5)"/>
</clipPath>
</defs>
</svg>
