<svg width="40" height="41" viewBox="0 0 40 41" fill="none" xmlns="http://www.w3.org/2000/svg">
<path d="M38.8281 38.1562H37.6464V11.0859C37.6464 10.4387 37.1217 9.91406 36.4745 9.91406H31.7675C31.1203 9.91406 30.5956 10.4387 30.5956 11.0859V38.1562H28.2324V15.793C28.2324 15.1458 27.7077 14.6211 27.0605 14.6211H22.3535C21.7063 14.6211 21.1816 15.1458 21.1816 15.793V38.1562H18.8183V20.5C18.8183 19.8528 18.2936 19.3281 17.6465 19.3281H12.9394C12.2922 19.3281 11.7676 19.8528 11.7676 20.5V38.1562H9.40428V25.207C9.40428 24.5598 8.87959 24.0351 8.23241 24.0351H3.52538C2.8782 24.0351 2.35351 24.5598 2.35351 25.207V38.1562H1.17187C0.524686 38.1562 0 38.6809 0 39.3281C0 39.9753 0.524686 40.4999 1.17187 40.4999H38.8281C39.4752 40.4999 39.9999 39.9753 39.9999 39.3281C39.9999 38.6809 39.4752 38.1562 38.8281 38.1562Z" fill="#4C5BD4"/>
<path d="M1.17066 16.9649C1.20917 16.9649 1.24816 16.963 1.2873 16.9591C7.2741 16.3674 12.8857 15.2452 17.9662 13.6235C22.047 12.3209 25.7981 10.6945 29.1153 8.78914C31.936 7.16898 33.962 5.62445 35.3028 4.4607V6.37891C35.3028 7.02609 35.8275 7.55078 36.4747 7.55078C37.1219 7.55078 37.6466 7.02609 37.6466 6.37891V1.67188C37.6466 1.02469 37.1219 0.5 36.4747 0.5H31.7677C31.1205 0.5 30.5958 1.02469 30.5958 1.67188C30.5958 2.31906 31.1205 2.84375 31.7677 2.84375H33.583C32.32 3.92086 30.4247 5.3457 27.8135 6.83367C22.827 9.67531 14.1371 13.3341 1.05683 14.6267C0.412767 14.6904 -0.0577794 15.2641 0.00589245 15.9081C0.0656581 16.5131 0.575267 16.9649 1.17066 16.9649V16.9649Z" fill="#4C5BD4"/>
</svg>
