<svg width="22" height="23" viewBox="0 0 22 23" fill="none" xmlns="http://www.w3.org/2000/svg">
<path d="M1.22222 10.2778H8.55556C8.87971 10.2778 9.19059 10.149 9.4198 9.9198C9.64901 9.69059 9.77778 9.37971 9.77778 9.05556V1.72222C9.77778 1.39807 9.64901 1.08719 9.4198 0.857981C9.19059 0.628769 8.87971 0.5 8.55556 0.5H1.22222C0.898069 0.5 0.587192 0.628769 0.357981 0.857981C0.128769 1.08719 0 1.39807 0 1.72222V9.05556C0 9.37971 0.128769 9.69059 0.357981 9.9198C0.587192 10.149 0.898069 10.2778 1.22222 10.2778ZM13.4444 10.2778H20.7778C21.1019 10.2778 21.4128 10.149 21.642 9.9198C21.8712 9.69059 22 9.37971 22 9.05556V1.72222C22 1.39807 21.8712 1.08719 21.642 0.857981C21.4128 0.628769 21.1019 0.5 20.7778 0.5H13.4444C13.1203 0.5 12.8094 0.628769 12.5802 0.857981C12.351 1.08719 12.2222 1.39807 12.2222 1.72222V9.05556C12.2222 9.37971 12.351 9.69059 12.5802 9.9198C12.8094 10.149 13.1203 10.2778 13.4444 10.2778ZM1.22222 22.5H8.55556C8.87971 22.5 9.19059 22.3712 9.4198 22.142C9.64901 21.9128 9.77778 21.6019 9.77778 21.2778V13.9444C9.77778 13.6203 9.64901 13.3094 9.4198 13.0802C9.19059 12.851 8.87971 12.7222 8.55556 12.7222H1.22222C0.898069 12.7222 0.587192 12.851 0.357981 13.0802C0.128769 13.3094 0 13.6203 0 13.9444V21.2778C0 21.6019 0.128769 21.9128 0.357981 22.142C0.587192 22.3712 0.898069 22.5 1.22222 22.5ZM13.4444 22.5H20.7778C21.1019 22.5 21.4128 22.3712 21.642 22.142C21.8712 21.9128 22 21.6019 22 21.2778V13.9444C22 13.6203 21.8712 13.3094 21.642 13.0802C21.4128 12.851 21.1019 12.7222 20.7778 12.7222H13.4444C13.1203 12.7222 12.8094 12.851 12.5802 13.0802C12.351 13.3094 12.2222 13.6203 12.2222 13.9444V21.2778C12.2222 21.6019 12.351 21.9128 12.5802 22.142C12.8094 22.3712 13.1203 22.5 13.4444 22.5Z" fill="#4C5BD4"/>
</svg>
