<svg width="25" height="25" viewBox="0 0 25 25" fill="none" xmlns="http://www.w3.org/2000/svg">
<g id="ant-design:setting-filled">
<path id="Vector" d="M12.5111 10.052C11.8103 10.052 11.1541 10.3238 10.6572 10.8207C10.1627 11.3176 9.88846 11.9738 9.88846 12.6746C9.88846 13.3754 10.1627 14.0316 10.6572 14.5285C11.1541 15.023 11.8103 15.2973 12.5111 15.2973C13.2119 15.2973 13.8681 15.023 14.365 14.5285C14.8596 14.0316 15.1338 13.3754 15.1338 12.6746C15.1338 11.9738 14.8596 11.3176 14.365 10.8207C14.1223 10.5761 13.8335 10.3823 13.5152 10.2503C13.197 10.1183 12.8557 10.0509 12.5111 10.052ZM22.1744 15.5715L20.6416 14.2613C20.7142 13.816 20.7517 13.3613 20.7517 12.909C20.7517 12.4566 20.7142 11.9996 20.6416 11.5566L22.1744 10.2465C22.2902 10.1474 22.3731 10.0153 22.412 9.86797C22.4509 9.7206 22.4441 9.56487 22.3924 9.42149L22.3713 9.36055C21.9494 8.18092 21.3173 7.08747 20.5056 6.1332L20.4635 6.08398C20.3649 5.96809 20.2335 5.88478 20.0867 5.84503C19.9398 5.80529 19.7844 5.81097 19.6408 5.86133L17.7377 6.53867C17.0346 5.96211 16.2517 5.50742 15.4033 5.19102L15.0353 3.20117C15.0076 3.05127 14.9349 2.91337 14.8269 2.80578C14.7188 2.69819 14.5807 2.62601 14.4307 2.59883L14.3674 2.58711C13.1486 2.3668 11.8642 2.3668 10.6455 2.58711L10.5822 2.59883C10.4322 2.62601 10.294 2.69819 10.186 2.80578C10.078 2.91337 10.0053 3.05127 9.97753 3.20117L9.60721 5.20039C8.76681 5.51932 7.98392 5.9729 7.28924 6.54336L5.37206 5.86133C5.22854 5.81057 5.07297 5.80468 4.92603 5.84445C4.77909 5.88422 4.64773 5.96777 4.5494 6.08398L4.50721 6.1332C3.69696 7.08849 3.06504 8.18166 2.64159 9.36055L2.62049 9.42149C2.51503 9.71445 2.60174 10.0426 2.83846 10.2465L4.39003 11.5707C4.31737 12.0113 4.28221 12.4613 4.28221 12.9066C4.28221 13.3566 4.31737 13.8066 4.39003 14.2426L2.84315 15.5668C2.72736 15.6659 2.64449 15.7979 2.60555 15.9453C2.56662 16.0927 2.57346 16.2484 2.62518 16.3918L2.64628 16.4527C3.07049 17.6316 3.69628 18.7215 4.5119 19.6801L4.55409 19.7293C4.65265 19.8452 4.78402 19.9285 4.93087 19.9683C5.07773 20.008 5.23318 20.0023 5.37674 19.952L7.29393 19.2699C7.99237 19.8441 8.77049 20.2988 9.6119 20.6129L9.98221 22.6121C10.01 22.762 10.0827 22.8999 10.1907 23.0075C10.2987 23.1151 10.4369 23.1873 10.5869 23.2145L10.6502 23.2262C11.8809 23.4477 13.1413 23.4477 14.3721 23.2262L14.4353 23.2145C14.5853 23.1873 14.7235 23.1151 14.8315 23.0075C14.9395 22.8999 15.0123 22.762 15.04 22.6121L15.408 20.6223C16.2564 20.3035 17.0392 19.8512 17.7424 19.2746L19.6455 19.952C19.789 20.0027 19.9446 20.0086 20.0915 19.9688C20.2385 19.9291 20.3698 19.8455 20.4681 19.7293L20.5103 19.6801C21.326 18.7168 21.9517 17.6316 22.376 16.4527L22.3971 16.3918C22.4978 16.1012 22.4111 15.7754 22.1744 15.5715ZM12.5111 16.7949C10.2353 16.7949 8.39081 14.9504 8.39081 12.6746C8.39081 10.3988 10.2353 8.5543 12.5111 8.5543C14.7869 8.5543 16.6314 10.3988 16.6314 12.6746C16.6314 14.9504 14.7869 16.7949 12.5111 16.7949Z" fill="#666666"/>
</g>
</svg>
