<svg width="19" height="19" viewBox="0 0 19 19" fill="none" xmlns="http://www.w3.org/2000/svg">
<g id="ant-design:eye-filled">
<path id="Vector" d="M7.0269 9.5C7.0269 10.0221 7.23432 10.5229 7.60353 10.8921C7.97274 11.2613 8.4735 11.4688 8.99565 11.4688C9.51779 11.4688 10.0186 11.2613 10.3878 10.8921C10.757 10.5229 10.9644 10.0221 10.9644 9.5C10.9644 8.97786 10.757 8.4771 10.3878 8.10788C10.0186 7.73867 9.51779 7.53125 8.99565 7.53125C8.4735 7.53125 7.97274 7.73867 7.60353 8.10788C7.23432 8.4771 7.0269 8.97786 7.0269 9.5ZM16.6281 9.04648C14.9617 5.53613 12.4427 3.76953 9.06596 3.76953C5.68744 3.76953 3.17026 5.53613 1.50385 9.04824C1.43701 9.18978 1.40234 9.34436 1.40234 9.50088C1.40234 9.6574 1.43701 9.81198 1.50385 9.95352C3.17026 13.4639 5.6892 15.2305 9.06596 15.2305C12.4445 15.2305 14.9617 13.4639 16.6281 9.95176C16.7634 9.66699 16.7634 9.33652 16.6281 9.04648ZM8.99565 12.5938C7.28705 12.5938 5.9019 11.2086 5.9019 9.5C5.9019 7.79141 7.28705 6.40625 8.99565 6.40625C10.7042 6.40625 12.0894 7.79141 12.0894 9.5C12.0894 11.2086 10.7042 12.5938 8.99565 12.5938Z" fill="white"/>
</g>
</svg>
