<svg width="25" height="25" viewBox="0 0 25 25" fill="none" xmlns="http://www.w3.org/2000/svg">
<g id="bx:bxs-lock-alt">
<path id="Vector" d="M20.5 12.8984C20.5 11.7954 19.603 10.8984 18.5 10.8984H17.5V7.89844C17.5 5.14144 15.257 2.89844 12.5 2.89844C9.743 2.89844 7.5 5.14144 7.5 7.89844V10.8984H6.5C5.397 10.8984 4.5 11.7954 4.5 12.8984V20.8984C4.5 22.0014 5.397 22.8984 6.5 22.8984H18.5C19.603 22.8984 20.5 22.0014 20.5 20.8984V12.8984ZM9.5 7.89844C9.5 6.24444 10.846 4.89844 12.5 4.89844C14.154 4.89844 15.5 6.24444 15.5 7.89844V10.8984H9.5V7.89844Z" fill="#666666"/>
</g>
</svg>
