<svg width="26" height="26" viewBox="0 0 26 26" fill="none" xmlns="http://www.w3.org/2000/svg">
<g clip-path="url(#clip0_629:67528)">
<path d="M7.89679 2.36363C7.89679 1.58857 8.62891 1.02211 9.56702 1.02211H16.4331C17.3709 1.02211 18.103 1.58857 18.103 2.36363V3.83292H19.3401V2.36363C19.3401 1.02511 18.0532 0 16.4331 0H9.56702C7.94692 0 6.65967 1.02511 6.65967 2.36363V3.83292H7.89679V2.36363Z" fill="#FF3333"/>
<path d="M5.68552 26.0005H20.3144C21.7249 26.0005 22.8195 24.9754 22.8195 23.7007V7.92188H3.18018V23.7007C3.18018 24.9754 4.27474 26.0005 5.68552 26.0005ZM16.9431 10.3621C16.9431 10.0799 17.2201 9.85106 17.5617 9.85106C17.9033 9.85106 18.1803 10.0799 18.1803 10.3621V22.4358C18.1803 22.7181 17.9033 22.9469 17.5617 22.9469C17.2201 22.9469 16.9431 22.7181 16.9431 22.4358V10.3621ZM12.3813 10.3621C12.3813 10.0799 12.6582 9.85106 12.9998 9.85106C13.3414 9.85106 13.6184 10.0799 13.6184 10.3621V22.4358C13.6184 22.7181 13.3414 22.9469 12.9998 22.9469C12.6582 22.9469 12.3813 22.7181 12.3813 22.4358V10.3621ZM7.81937 10.3621C7.81937 10.0799 8.09634 9.85106 8.43793 9.85106C8.77953 9.85106 9.05649 10.0799 9.05649 10.3621V22.4358C9.05649 22.7181 8.77953 22.9469 8.43793 22.9469C8.09634 22.9469 7.81937 22.7181 7.81937 22.4358V10.3621Z" fill="#FF3333"/>
<path d="M2.5464 6.89903H23.4536C24.3077 6.89903 25 6.32709 25 5.62139C25 4.91569 24.3077 4.34375 23.4536 4.34375H2.5464C1.69226 4.34375 1 4.91569 1 5.62139C1 6.32709 1.69226 6.89903 2.5464 6.89903Z" fill="#FF3333"/>
</g>
<defs>
<clipPath id="clip0_629:67528">
<rect width="26" height="26" fill="white"/>
</clipPath>
</defs>
</svg>
