<svg width="31" height="30" viewBox="0 0 31 30" fill="none" xmlns="http://www.w3.org/2000/svg">
<g id="fluent:speaker-2-32-regular">
<g id="Group">
<path id="Vector" d="M17.375 5.25273C17.375 4.20836 16.1131 3.68523 15.3744 4.42398L10.9738 8.82461C10.7996 8.99884 10.5928 9.13704 10.3651 9.2313C10.1375 9.32557 9.89355 9.37405 9.64719 9.37398H6.125C5.13044 9.37398 4.17661 9.76907 3.47335 10.4723C2.77009 11.1756 2.375 12.1294 2.375 13.124V16.874C2.375 17.8685 2.77009 18.8224 3.47335 19.5256C4.17661 20.2289 5.13044 20.624 6.125 20.624H9.64719C9.89355 20.6239 10.1375 20.6724 10.3651 20.7667C10.5928 20.8609 10.7996 20.9991 10.9738 21.1734L15.3744 25.574C16.1131 26.3127 17.375 25.7896 17.375 24.7452V5.25273ZM12.2994 10.1502L15.5 6.95054V23.0493L12.2994 19.8487C11.9512 19.5001 11.5378 19.2236 11.0827 19.0349C10.6276 18.8463 10.1398 18.7491 9.64719 18.749H6.125C5.62772 18.749 5.15081 18.5514 4.79917 18.1998C4.44754 17.8482 4.25 17.3713 4.25 16.874V13.124C4.25 12.6267 4.44754 12.1498 4.79917 11.7982C5.15081 11.4465 5.62772 11.249 6.125 11.249H9.64719C10.1397 11.2491 10.6274 11.1522 11.0825 10.9639C11.5375 10.7755 11.951 10.4994 12.2994 10.1512V10.1502ZM21.8975 8.84336C21.8283 8.74055 21.7395 8.65247 21.6361 8.58421C21.5326 8.51596 21.4167 8.46888 21.295 8.4457C21.1733 8.42253 21.0482 8.42371 20.9269 8.44918C20.8056 8.47466 20.6906 8.52392 20.5885 8.59412C20.4864 8.66432 20.3992 8.75406 20.332 8.85816C20.2648 8.96226 20.2189 9.07865 20.197 9.2006C20.175 9.32255 20.1775 9.44764 20.2042 9.56864C20.2309 9.68964 20.2813 9.80415 20.3525 9.90554C21.5572 11.6577 22.1216 13.3509 22.1216 14.999C22.1216 16.6471 21.5572 18.3402 20.3525 20.0924C20.2115 20.2973 20.1577 20.5498 20.2029 20.7943C20.2481 21.0389 20.3886 21.2555 20.5934 21.3965C20.7983 21.5375 21.0508 21.5913 21.2954 21.5461C21.5399 21.5009 21.7565 21.3604 21.8975 21.1555C23.2709 19.1577 23.9956 17.1009 23.9956 14.999C23.9956 12.8971 23.2709 10.8402 21.8975 8.84336ZM24.5844 4.94523C24.4044 4.77367 24.1636 4.68065 23.915 4.68662C23.6664 4.6926 23.4303 4.79709 23.2588 4.97711C23.0872 5.15712 22.9942 5.39792 23.0001 5.64652C23.0061 5.89512 23.1106 6.13117 23.2906 6.30273C25.5284 8.43367 26.6919 11.683 26.6919 14.999C26.6919 18.3149 25.5284 21.5643 23.2906 23.6952C23.2015 23.7802 23.13 23.8819 23.0801 23.9944C23.0303 24.107 23.0031 24.2283 23.0001 24.3514C22.9972 24.4745 23.0185 24.597 23.0629 24.7119C23.1072 24.8267 23.1738 24.9317 23.2587 25.0209C23.3437 25.11 23.4454 25.1815 23.558 25.2314C23.6706 25.2812 23.7919 25.3084 23.915 25.3113C24.0381 25.3143 24.1605 25.293 24.2754 25.2486C24.3902 25.2042 24.4952 25.1377 24.5844 25.0527C27.2684 22.4962 28.5659 18.7143 28.5659 14.999C28.5659 11.2837 27.2684 7.50179 24.5844 4.94523Z" fill="white"/>
</g>
</g>
</svg>
