<svg width="25" height="25" viewBox="0 0 25 25" fill="none" xmlns="http://www.w3.org/2000/svg">
<g id="Frame 627860">
<g id="Group">
<path id="Vector" d="M21.1518 16.8564C19.8898 15.7898 19.167 14.2348 19.167 12.586V10.2613C19.167 7.32711 16.9868 4.90083 14.166 4.4945V3.59587C14.166 3.13484 13.7909 2.76367 13.3337 2.76367C12.8766 2.76367 12.5015 3.13093 12.5015 3.59197V4.49059C9.67674 4.90083 7.50051 7.32711 7.50051 10.2613V12.586C7.50051 14.2348 6.77771 15.7937 5.51182 16.8642C5.18754 17.1416 5 17.5441 5 17.9699C5 18.7748 5.65248 19.4273 6.45733 19.4273H20.2102C21.015 19.4273 21.6675 18.7748 21.6675 17.9699C21.6714 17.5441 21.4839 17.1416 21.1518 16.8564Z" fill="#666666"/>
<path id="Vector_2" d="M13.3346 22.7632C14.8427 22.7632 16.1086 21.6888 16.3977 20.2627H10.2754C10.5645 21.6888 11.8265 22.7632 13.3346 22.7632Z" fill="#666666"/>
</g>
</g>
</svg>
