<svg width="31" height="30" viewBox="0 0 31 30" fill="none" xmlns="http://www.w3.org/2000/svg">
<g id="gg:play-pause-o">
<g id="Group">
<path id="Vector" d="M11.75 11.25H14.25V18.75H11.75V11.25Z" fill="white"/>
<path id="Vector_2" d="M19.25 18.75H16.75V11.25H19.25V18.75Z" fill="white"/>
<path id="Vector_3" fill-rule="evenodd" clip-rule="evenodd" d="M29.25 15C29.25 22.5937 23.0937 28.75 15.5 28.75C7.90625 28.75 1.75 22.5937 1.75 15C1.75 7.40625 7.90625 1.25 15.5 1.25C23.0937 1.25 29.25 7.40625 29.25 15ZM26.75 15C26.75 16.4774 26.459 17.9403 25.8936 19.3052C25.3283 20.6701 24.4996 21.9103 23.4549 22.9549C22.4103 23.9996 21.1701 24.8283 19.8052 25.3936C18.4403 25.959 16.9774 26.25 15.5 26.25C14.0226 26.25 12.5597 25.959 11.1948 25.3936C9.8299 24.8283 8.58971 23.9996 7.54505 22.9549C6.50039 21.9103 5.67172 20.6701 5.10635 19.3052C4.54099 17.9403 4.25 16.4774 4.25 15C4.25 12.0163 5.43526 9.15483 7.54505 7.04505C9.65483 4.93526 12.5163 3.75 15.5 3.75C18.4837 3.75 21.3452 4.93526 23.4549 7.04505C25.5647 9.15483 26.75 12.0163 26.75 15Z" fill="white"/>
</g>
</g>
</svg>
