<svg width="25" height="25" viewBox="0 0 25 25" fill="none" xmlns="http://www.w3.org/2000/svg">
<g id="gis:earth-australia-o">
<path id="Vector" d="M12.4996 2.49805C6.75964 2.49805 2.09961 7.15808 2.09961 12.898C2.09961 18.638 6.75964 23.298 12.4996 23.298C18.2292 23.298 22.8811 18.6547 22.8979 12.9288C22.899 12.9186 22.8996 12.9083 22.8996 12.898C22.8996 12.8888 22.8992 12.8796 22.8984 12.8704C22.8834 7.1431 18.2304 2.49805 12.4996 2.49805ZM12.4996 3.12205C12.5932 3.12205 12.6854 3.12621 12.7783 3.12891C12.9433 3.16448 13.0876 3.20171 13.1534 3.24352C13.3963 3.18091 13.4547 3.17488 13.4416 3.16801C14.6235 3.28044 15.7747 3.60854 16.8383 4.13605C16.8379 4.16641 16.8383 4.19803 16.8433 4.23755C16.473 4.32907 17.32 5.03897 16.9814 5.48035C16.9367 6.08917 16.2176 6.82861 15.8779 6.79241C16.316 7.37481 16.2378 8.40192 15.4755 8.32038C14.9045 8.34056 14.6497 8.91464 14.2437 9.22019C14.4271 8.65901 13.9057 8.62136 13.9702 8.20827C13.6082 8.46453 13.6459 8.62843 13.3308 8.16937C13.6511 7.93392 13.1635 7.35297 13.0408 7.29161C12.7544 7.45281 12.4551 7.36961 12.9002 7.70969C11.7702 8.04457 13.3707 8.81417 12.7426 9.54009C12.3536 10.4615 11.418 10.9892 10.4618 11.1036C10.7385 11.7393 9.48049 12.091 9.96575 11.3064C10.268 10.6982 8.77974 11.5679 9.61798 11.9219C10.1242 12.3364 10.28 13.3883 9.50795 13.6175C9.07115 14.1182 8.8777 13.8474 8.56674 13.4039C8.2275 12.433 7.60891 13.4488 8.08523 13.9717C8.74937 14.4967 8.76601 15.1214 8.98483 15.7982C8.81489 16.2712 10.1686 16.3752 9.53124 16.6198C8.67782 16.6364 10.1018 17.51 10.2701 17.1113C10.7489 17.3715 11.7864 17.3089 11.267 17.572C11.8415 17.6398 12.8276 17.7571 12.1454 16.9875C11.9006 16.5952 12.0855 15.8529 12.6352 15.5394C13.0949 16.0278 13.805 14.8905 13.6282 15.6605C13.2594 15.9538 12.9969 16.2225 13.6794 16.2468C13.9544 16.849 14.6965 16.3103 14.5609 15.9022C14.9573 15.7905 15.7798 15.9197 16.1587 16.0636C16.7863 16.063 17.815 16.2005 18.0823 16.6377C18.2982 16.3756 18.9988 16.5553 18.7993 16.0738C18.4301 15.9396 18.6177 15.4456 18.9505 15.9034C19.4017 15.9334 19.6777 16.6913 20.2439 16.6826C20.6744 17.4464 19.7262 16.9549 19.8532 16.7712C19.5296 17.5096 19.401 15.7641 19.0768 16.4511C18.7201 16.6435 17.8897 17.2061 18.6152 17.1762C19.0909 17.0021 18.5189 18.1475 17.995 17.5558C17.3381 16.8201 16.9026 18.2247 17.5049 18.4227C17.5241 18.9157 17.9426 19.2092 18.1393 19.6162C18.6579 20.1329 17.4791 20.9599 17.0577 21.3728C16.856 21.4581 16.65 21.6692 16.4554 21.8391C16.2844 21.9148 16.1115 21.9866 15.9358 22.0525C15.8713 22.0201 15.8116 21.9539 15.7581 21.8373C15.1961 21.8094 14.8346 21.4082 14.1827 21.4115C13.31 21.4783 12.2768 22.0521 11.4891 21.658C11.5545 21.0939 10.358 20.1396 11.5141 19.8823C12.412 19.9451 12.842 19.2279 13.4855 18.7855C13.9225 18.554 14.5671 19.0588 14.5519 18.3555C14.5804 17.9229 15.8678 18.1351 16.0267 18.1634C15.8492 18.7297 15.724 18.9642 16.4768 18.9078C16.6005 19.3182 17.2168 17.6931 16.8714 17.6827C16.5824 17.4262 15.7569 17.7444 16.3992 17.2299C16.098 16.5137 15.0154 17.1849 14.9914 16.3438C14.4115 16.2814 15.5318 17.2122 14.6474 16.7404C13.8741 17.0537 13.493 16.375 12.8347 16.3897C13.1825 16.7346 13.6014 17.5225 12.838 17.2209C12.4033 16.5247 12.5302 17.4468 12.6897 17.6248C12.7896 17.108 12.8212 17.9695 13.2792 17.5801C13.644 17.2652 14.8675 17.7382 14.0459 17.655C14.1405 17.717 12.5194 18.751 13.0955 17.9462C13.0997 17.6966 12.2904 18.0302 12.8347 18.1407C12.2494 18.236 11.5786 17.753 10.8787 17.7723C10.0791 17.682 9.21862 17.5743 8.6801 16.9208C8.26473 16.3188 7.61806 16.4509 7.523 15.6204C7.38198 15.2106 6.89463 14.6812 6.94663 14.253C7.51385 14.1906 8.26764 15.6258 7.89033 14.4836C7.4918 13.9896 7.37033 13.2394 7.58145 12.6474C7.64219 12.0459 7.39758 12.0529 7.00674 12.1339C6.90358 11.6648 7.01195 10.4152 6.12587 10.7715C5.625 11.3081 4.7279 11.6084 4.71022 12.4188C4.47518 12.7364 5.18446 14.1752 4.4887 13.7598C4.53467 13.1535 4.4211 13.2822 4.17191 13.2839C3.91753 12.3963 3.93084 11.4275 4.04067 10.5358C3.5866 10.1104 4.31481 9.55881 3.47283 9.44899C3.28209 9.06939 3.32057 10.2421 2.99297 10.62C4.01841 6.31838 7.88159 3.12205 12.4996 3.12205ZM16.0134 4.09257C15.9928 4.09052 15.972 4.09122 15.9516 4.09465C15.858 4.11088 15.7985 4.19033 15.8788 4.34113C15.3218 4.10817 13.9015 4.64627 15.0878 4.94808C15.043 4.63878 16.1725 5.80379 15.6606 5.69854C15.8931 5.99453 15.9312 6.1056 15.7436 6.08542C15.8291 6.27678 16.0716 6.34126 16.2553 6.26201C17.1975 5.88387 16.7357 5.01693 16.2091 4.50525C16.3389 4.25294 16.1635 4.10693 16.0134 4.09257ZM18.3748 5.08224C18.4247 5.11968 18.4725 5.15961 18.5218 5.19789C18.3479 5.17438 18.3375 5.13528 18.3748 5.08224ZM15.2465 5.31665C15.2219 5.30813 15.2294 5.40214 15.2943 5.6611C15.249 6.42987 14.585 6.63413 14.1074 6.84213C13.4637 7.28974 14.3625 7.57137 14.2131 8.18352C14.1542 8.29376 14.3525 8.29646 14.3566 8.20952C14.6811 7.69805 15.1799 7.91416 15.4341 7.5252C15.8821 7.47944 15.345 6.72565 15.6358 6.47126C15.6787 6.2903 15.3193 5.34224 15.2462 5.31665H15.2465ZM12.701 10.1897C12.8368 10.1986 12.9121 10.3436 12.7334 10.7034C12.6529 10.8663 12.8174 11.0945 12.4112 10.9114C12.0797 10.537 12.4744 10.1745 12.701 10.1897ZM12.6375 11.5072C12.8445 11.4864 13.0506 11.7405 12.9649 12.1827C12.4576 12.5655 13.5648 12.5765 13.509 12.9794C13.8841 13.3546 14.2738 14.8514 13.3822 14.7108C13.0102 13.8571 12.781 14.986 12.183 14.9525C11.5511 15.1505 12.4603 15.6299 12.0306 15.8781C11.6549 15.9172 11.6591 17.0849 11.3691 16.9212C11.162 16.7292 10.124 16.8852 9.98801 16.324C9.51543 16.0416 9.89545 15.2518 9.58907 14.7911C9.88859 14.8437 10.0554 15.9371 10.4308 15.1575C11.2737 14.9604 11.5212 14.0662 12.0522 13.5306C12.5857 13.0973 12.2367 12.6809 12.2914 12.0958C12.3155 11.7058 12.4765 11.5232 12.6375 11.5072ZM12.5302 13.2706C12.3771 13.755 11.2269 14.269 12.1886 14.6683L12.3442 14.6694L12.3933 14.6236C12.915 14.4391 12.7952 13.7987 12.791 13.4002C12.5431 13.4782 12.6128 13.5183 12.5302 13.2706ZM14.3425 15.3797C14.4563 15.3916 14.5043 15.5571 14.3283 15.9538C14.4502 16.1919 14.1245 16.5823 13.9639 16.2448C13.7819 15.7684 14.1532 15.3603 14.3425 15.3799V15.3797Z" fill="#666666"/>
</g>
</svg>
