<svg width="21" height="18" viewBox="0 0 21 18" fill="none" xmlns="http://www.w3.org/2000/svg">
<g id="Group">
<path id="Vector" d="M4.19531 0.25C3.33336 0.25 2.50671 0.59241 1.89722 1.2019C1.28772 1.8114 0.945313 2.63805 0.945312 3.5V12C0.945313 12.5967 1.18237 13.169 1.60432 13.591C2.02628 14.0129 2.59858 14.25 3.19531 14.25H3.44531V6C3.44531 5.13805 3.78772 4.3114 4.39722 3.7019C5.00671 3.09241 5.83336 2.75 6.69531 2.75H17.9453V2.5C17.9453 2.20453 17.8871 1.91194 17.774 1.63896C17.661 1.36598 17.4952 1.11794 17.2863 0.90901C17.0774 0.700078 16.8293 0.534344 16.5564 0.421271C16.2834 0.308198 15.9908 0.25 15.6953 0.25H4.19531Z" fill="#474747"/>
<path id="Vector_2" d="M18.695 3.75H18.199L18.097 3.757C17.9087 3.7829 17.7373 3.87929 17.6174 4.0267C17.4975 4.17411 17.438 4.36154 17.451 4.55112C17.4639 4.7407 17.5483 4.9183 17.6872 5.04803C17.826 5.17776 18.009 5.24994 18.199 5.25H18.695L18.797 5.257C18.9765 5.28165 19.1411 5.37048 19.2602 5.50707C19.3793 5.64366 19.445 5.81876 19.445 6V7.004L19.452 7.105C19.4779 7.29317 19.5742 7.4645 19.7215 7.58441C19.8688 7.70433 20.0561 7.76389 20.2456 7.75107C20.4351 7.73825 20.6127 7.654 20.7425 7.51534C20.8723 7.37668 20.9447 7.19394 20.945 7.004V6L20.94 5.846C20.901 5.27721 20.6475 4.74444 20.2307 4.35537C19.814 3.9663 19.2651 3.74993 18.695 3.75Z" fill="#474747"/>
<path id="Vector_3" d="M5.93831 9.39777C5.91241 9.20952 5.81602 9.03812 5.66861 8.9182C5.5212 8.79829 5.33377 8.73879 5.14419 8.75175C4.95461 8.7647 4.77701 8.84913 4.64728 8.98798C4.51756 9.12683 4.44537 9.30975 4.44531 9.49977V11.9938L4.45231 12.0958C4.47821 12.284 4.57461 12.4554 4.72201 12.5753C4.86942 12.6953 5.05685 12.7547 5.24643 12.7418C5.43601 12.7288 5.61361 12.6444 5.74334 12.5056C5.87307 12.3667 5.94525 12.1838 5.94531 11.9938V9.49977L5.93831 9.39777Z" fill="#474747"/>
<path id="Vector_4" d="M5.19531 13.7461C5.37655 13.7461 5.55165 13.8117 5.68824 13.9309C5.82483 14.05 5.91366 14.2145 5.93831 14.3941L5.94531 14.4961V15.5011C5.94531 15.8811 6.22731 16.1951 6.59331 16.2441L6.69531 16.2511H7.19531C7.38534 16.2512 7.56825 16.3233 7.7071 16.4531C7.84595 16.5828 7.93039 16.7604 7.94334 16.95C7.95629 17.1396 7.8968 17.327 7.77688 17.4744C7.65696 17.6218 7.48556 17.7182 7.29731 17.7441L7.19531 17.7511H6.69531C6.12519 17.7512 5.57629 17.5348 5.15956 17.1457C4.74283 16.7566 4.48933 16.2239 4.45031 15.6551L4.44531 15.5011V14.4961C4.44531 14.2972 4.52433 14.1064 4.66498 13.9658C4.80563 13.8251 4.9964 13.7461 5.19531 13.7461Z" fill="#474747"/>
<path id="Vector_5" d="M20.1944 13.7461C20.3933 13.7461 20.5841 13.8251 20.7247 13.9658C20.8654 14.1064 20.9444 14.2972 20.9444 14.4961V15.5011C20.9444 16.0978 20.7074 16.6701 20.2854 17.0921C19.8634 17.514 19.2911 17.7511 18.6944 17.7511H17.6914C17.4925 17.7511 17.3017 17.6721 17.1611 17.5314C17.0204 17.3908 16.9414 17.2 16.9414 17.0011C16.9414 16.8022 17.0204 16.6114 17.1611 16.4708C17.3017 16.3301 17.4925 16.2511 17.6914 16.2511H18.6944C18.8933 16.2511 19.0841 16.1721 19.2247 16.0314C19.3654 15.8908 19.4444 15.7 19.4444 15.5011V14.4961C19.4444 14.2972 19.5234 14.1064 19.6641 13.9658C19.8047 13.8251 19.9955 13.7461 20.1944 13.7461Z" fill="#474747"/>
<path id="Vector_6" d="M15.194 16.25H13.699L13.597 16.257C13.4087 16.2829 13.2373 16.3793 13.1174 16.5267C12.9975 16.6741 12.938 16.8615 12.951 17.0511C12.9639 17.2407 13.0483 17.4183 13.1872 17.548C13.326 17.6778 13.509 17.7499 13.699 17.75H15.194L15.296 17.743C15.4842 17.7171 15.6556 17.6207 15.7756 17.4733C15.8955 17.3259 15.955 17.1385 15.942 16.9489C15.9291 16.7593 15.8446 16.5817 15.7058 16.452C15.5669 16.3222 15.384 16.2501 15.194 16.25Z" fill="#474747"/>
<path id="Vector_7" d="M9.69408 16.25H11.1901C11.3801 16.2501 11.563 16.3222 11.7019 16.452C11.8407 16.5817 11.9252 16.7593 11.9381 16.9489C11.9511 17.1385 11.8916 17.3259 11.7717 17.4733C11.6517 17.6207 11.4803 17.7171 11.2921 17.743L11.1901 17.75H9.69508C9.50506 17.7499 9.32214 17.6778 9.18329 17.548C9.04444 17.4183 8.96001 17.2407 8.94706 17.0511C8.93411 16.8615 8.9936 16.6741 9.11352 16.5267C9.23343 16.3793 9.40483 16.2829 9.59308 16.257L9.69408 16.25Z" fill="#474747"/>
<path id="Vector_8" d="M20.1953 8.75C20.3767 8.75004 20.5519 8.81582 20.6885 8.93514C20.8251 9.05447 20.9139 9.21926 20.9383 9.399L20.9453 9.501V11.995C20.9453 12.185 20.8731 12.3679 20.7433 12.5068C20.6136 12.6456 20.436 12.7301 20.2464 12.743C20.0569 12.756 19.8694 12.6965 19.722 12.5766C19.5746 12.4567 19.4782 12.2853 19.4523 12.097L19.4453 11.995V9.501C19.4453 9.30209 19.5243 9.11132 19.665 8.97067C19.8056 8.83002 19.9964 8.751 20.1953 8.751V8.75Z" fill="#474747"/>
<path id="Vector_9" d="M7.69831 3.75C7.89723 3.75 8.08799 3.82902 8.22864 3.96967C8.36929 4.11032 8.44831 4.30109 8.44831 4.5C8.44831 4.69891 8.36929 4.88968 8.22864 5.03033C8.08799 5.17098 7.89723 5.25 7.69831 5.25H6.69531C6.4964 5.25 6.30563 5.32902 6.16498 5.46967C6.02433 5.61032 5.94531 5.80109 5.94531 6V7.004C5.94531 7.20291 5.86629 7.39368 5.72564 7.53433C5.58499 7.67498 5.39422 7.754 5.19531 7.754C4.9964 7.754 4.80563 7.67498 4.66498 7.53433C4.52433 7.39368 4.44531 7.20291 4.44531 7.004V6C4.44531 5.40326 4.68237 4.83097 5.10432 4.40901C5.52628 3.98705 6.09858 3.75 6.69531 3.75H7.69831Z" fill="#474747"/>
<path id="Vector_10" d="M15.6981 3.75H14.1951L14.0931 3.757C13.9048 3.78291 13.7333 3.87938 13.6134 4.02689C13.4934 4.17441 13.434 4.36196 13.4471 4.55162C13.4602 4.74128 13.5448 4.91889 13.6838 5.04854C13.8229 5.17819 14.006 5.2502 14.1961 5.25H15.6991L15.8011 5.243C15.9893 5.2171 16.1607 5.12071 16.2807 4.9733C16.4006 4.82589 16.4601 4.63846 16.4471 4.44888C16.4342 4.2593 16.3497 4.0817 16.2109 3.95197C16.072 3.82224 15.8891 3.75006 15.6991 3.75H15.6981Z" fill="#474747"/>
<path id="Vector_11" d="M10.1951 3.75H11.6901C11.8801 3.75006 12.063 3.82224 12.2019 3.95197C12.3407 4.0817 12.4252 4.2593 12.4381 4.44888C12.4511 4.63846 12.3916 4.82589 12.2717 4.9733C12.1517 5.12071 11.9803 5.2171 11.7921 5.243L11.6901 5.25H10.1951C10.0051 5.24994 9.82214 5.17776 9.68329 5.04803C9.54444 4.9183 9.46001 4.7407 9.44706 4.55112C9.43411 4.36154 9.4936 4.17411 9.61352 4.0267C9.73343 3.87929 9.90483 3.7829 10.0931 3.757L10.1951 3.75Z" fill="#474747"/>
<path id="x" d="M12.9338 9.65154L14.3644 7.29688H15.6521L13.5418 10.4861L15.7176 13.7469H14.4419L12.9516 11.3326L11.4613 13.7469H10.1797L12.3555 10.4861L10.2453 7.29688H11.521L12.9338 9.65154Z" fill="#474747"/>
</g>
</svg>
