<svg width="30" height="30" viewBox="0 0 30 30" fill="none" xmlns="http://www.w3.org/2000/svg">
<g id="fluent:speaker-off-24-regular">
<g id="Group">
<path id="Vector" d="M4.09995 2.77495C4.01412 2.68284 3.91062 2.60896 3.79562 2.55772C3.68062 2.50648 3.55648 2.47893 3.4306 2.47671C3.30472 2.47449 3.17969 2.49764 3.06295 2.54479C2.94622 2.59195 2.84017 2.66213 2.75115 2.75115C2.66213 2.84017 2.59195 2.94622 2.54479 3.06295C2.49764 3.17969 2.47449 3.30472 2.47671 3.4306C2.47893 3.55648 2.50648 3.68062 2.55772 3.79562C2.60896 3.91062 2.68284 4.01412 2.77495 4.09995L8.04745 9.37495H5.31245C4.56674 9.37495 3.85156 9.67109 3.32415 10.1983C2.79674 10.7254 2.50028 11.4405 2.49995 12.1862V17.8074C2.49995 18.5534 2.79626 19.2687 3.32371 19.7962C3.85116 20.3236 4.56653 20.6199 5.31245 20.6199H9.91245C10.142 20.6202 10.3635 20.7047 10.5349 20.8574L16.1487 25.8499C17.1562 26.7449 18.7499 26.0299 18.7499 24.6824V20.0749L25.8999 27.2249C26.0768 27.3956 26.3137 27.49 26.5595 27.4878C26.8053 27.4855 27.0404 27.3868 27.2142 27.2129C27.3879 27.039 27.4864 26.8038 27.4884 26.558C27.4904 26.3122 27.3958 26.0754 27.2249 25.8987L4.09995 2.77495ZM16.8749 18.1999V23.9862L11.7812 19.4562C11.2664 18.9982 10.6015 18.7451 9.91245 18.7449H5.31245C5.06381 18.7449 4.82535 18.6462 4.64954 18.4704C4.47372 18.2945 4.37495 18.0561 4.37495 17.8074V12.1874C4.37495 11.9388 4.47372 11.7004 4.64954 11.5245C4.82535 11.3487 5.06381 11.2499 5.31245 11.2499H9.92245L16.8749 18.1999Z" fill="white"/>
<path id="Vector_2" d="M16.8734 6.00745V12.8962L18.7484 14.7712V5.3112C18.7484 3.96245 17.1559 3.24869 16.1484 4.1437L11.8984 7.9212L13.2272 9.24995L16.8734 6.00745Z" fill="white"/>
<path id="Vector_3" d="M21.4267 17.4494L22.8492 18.8706C23.4437 17.6668 23.7522 16.342 23.7505 14.9994C23.7525 13.5469 23.3916 12.1169 22.7005 10.8394C22.6419 10.731 22.5625 10.6353 22.4669 10.5576C22.3713 10.48 22.2613 10.4219 22.1433 10.3867C22.0252 10.3515 21.9014 10.34 21.7789 10.3526C21.6564 10.3653 21.5375 10.402 21.4292 10.4606C21.3209 10.5192 21.2251 10.5986 21.1475 10.6942C21.0698 10.7898 21.0117 10.8998 20.9765 11.0178C20.9414 11.1358 20.9298 11.2597 20.9425 11.3822C20.9552 11.5047 20.9919 11.6235 21.0505 11.7319C21.5755 12.7031 21.8755 13.8144 21.8755 14.9994C21.8755 15.8631 21.7167 16.6881 21.4267 17.4494Z" fill="white"/>
<path id="Vector_4" d="M24.2367 20.2568L25.6029 21.6243C26.8469 19.6388 27.5051 17.3423 27.5017 14.9993C27.5052 12.3228 26.6461 9.7165 25.0517 7.56679C24.9006 7.37587 24.6812 7.25119 24.4399 7.21911C24.1986 7.18704 23.9543 7.25009 23.7586 7.39493C23.563 7.53977 23.4313 7.75504 23.3915 7.9952C23.3517 8.23536 23.4069 8.48159 23.5454 8.68179C24.9006 10.509 25.6305 12.7244 25.6267 14.9993C25.6297 16.843 25.1505 18.6555 24.2367 20.2568Z" fill="white"/>
</g>
</g>
</svg>
