<svg width="25" height="25" viewBox="0 0 25 25" fill="none" xmlns="http://www.w3.org/2000/svg">
<g id="storyboard 1">
<path id="Vector" d="M8.20433 4.57031H2.06445C1.965 4.57031 1.86961 4.60982 1.79929 4.68015C1.72896 4.75047 1.68945 4.84586 1.68945 4.94531V9.57019C1.68945 9.66964 1.72896 9.76503 1.79929 9.83535C1.86961 9.90568 1.965 9.94519 2.06445 9.94519H8.20433C8.30378 9.94519 8.39917 9.90568 8.46949 9.83535C8.53982 9.76503 8.57933 9.66964 8.57933 9.57019V4.94531C8.57933 4.84586 8.53982 4.75047 8.46949 4.68015C8.39917 4.60982 8.30378 4.57031 8.20433 4.57031ZM2.06445 11.1088H8.08883C8.18829 11.1088 8.28367 11.0693 8.35399 10.999C8.42432 10.9287 8.46383 10.8333 8.46383 10.7338C8.46383 10.6344 8.42432 10.539 8.35399 10.4686C8.28367 10.3983 8.18829 10.3588 8.08883 10.3588H2.06445C1.965 10.3588 1.86961 10.3983 1.79929 10.4686C1.72896 10.539 1.68945 10.6344 1.68945 10.7338C1.68945 10.8333 1.72896 10.9287 1.79929 10.999C1.86961 11.0693 1.965 11.1088 2.06445 11.1088ZM2.06445 12.4483H8.08883C8.18829 12.4483 8.28367 12.4088 8.35399 12.3385C8.42432 12.2682 8.46383 12.1728 8.46383 12.0733C8.46383 11.9739 8.42432 11.8785 8.35399 11.8081C8.28367 11.7378 8.18829 11.6983 8.08883 11.6983H2.06445C1.965 11.6983 1.86961 11.7378 1.79929 11.8081C1.72896 11.8785 1.68945 11.9739 1.68945 12.0733C1.68945 12.1728 1.72896 12.2682 1.79929 12.3385C1.86961 12.4088 1.965 12.4483 2.06445 12.4483ZM15.5697 4.57031H9.42945C9.33 4.57031 9.23462 4.60982 9.16429 4.68015C9.09396 4.75047 9.05445 4.84586 9.05445 4.94531V9.57019C9.05445 9.66964 9.09396 9.76503 9.16429 9.83535C9.23462 9.90568 9.33 9.94519 9.42945 9.94519H15.5697C15.6692 9.94519 15.7645 9.90568 15.8349 9.83535C15.9052 9.76503 15.9447 9.66964 15.9447 9.57019V4.94531C15.9447 4.84586 15.9052 4.75047 15.8349 4.68015C15.7645 4.60982 15.6692 4.57031 15.5697 4.57031ZM9.42945 11.1088H15.4542C15.5537 11.1088 15.649 11.0693 15.7194 10.999C15.7897 10.9287 15.8292 10.8333 15.8292 10.7338C15.8292 10.6344 15.7897 10.539 15.7194 10.4686C15.649 10.3983 15.5537 10.3588 15.4542 10.3588H9.42945C9.33 10.3588 9.23462 10.3983 9.16429 10.4686C9.09396 10.539 9.05445 10.6344 9.05445 10.7338C9.05445 10.8333 9.09396 10.9287 9.16429 10.999C9.23462 11.0693 9.33 11.1088 9.42945 11.1088ZM9.42945 12.4483H15.4542C15.5537 12.4483 15.649 12.4088 15.7194 12.3385C15.7897 12.2682 15.8292 12.1728 15.8292 12.0733C15.8292 11.9739 15.7897 11.8785 15.7194 11.8081C15.649 11.7378 15.5537 11.6983 15.4542 11.6983H9.42945C9.33 11.6983 9.23462 11.7378 9.16429 11.8081C9.09396 11.8785 9.05445 11.9739 9.05445 12.0733C9.05445 12.1728 9.09396 12.2682 9.16429 12.3385C9.23462 12.4088 9.33 12.4483 9.42945 12.4483ZM22.9347 4.57031H16.7948C16.6954 4.57031 16.6 4.60982 16.5297 4.68015C16.4593 4.75047 16.4198 4.84586 16.4198 4.94531V9.57019C16.4198 9.66964 16.4593 9.76503 16.5297 9.83535C16.6 9.90568 16.6954 9.94519 16.7948 9.94519H22.9347C23.0342 9.94519 23.1295 9.90568 23.1999 9.83535C23.2702 9.76503 23.3097 9.66964 23.3097 9.57019V4.94531C23.3097 4.84586 23.2702 4.75047 23.1999 4.68015C23.1295 4.60982 23.0342 4.57031 22.9347 4.57031ZM16.7948 11.1088H22.8192C22.9187 11.1088 23.014 11.0693 23.0844 10.999C23.1547 10.9287 23.1942 10.8333 23.1942 10.7338C23.1942 10.6344 23.1547 10.539 23.0844 10.4686C23.014 10.3983 22.9187 10.3588 22.8192 10.3588H16.7948C16.6954 10.3588 16.6 10.3983 16.5297 10.4686C16.4593 10.539 16.4198 10.6344 16.4198 10.7338C16.4198 10.8333 16.4593 10.9287 16.5297 10.999C16.6 11.0693 16.6954 11.1088 16.7948 11.1088ZM16.7948 12.4483H22.8192C22.9187 12.4483 23.014 12.4088 23.0844 12.3385C23.1547 12.2682 23.1942 12.1728 23.1942 12.0733C23.1942 11.9739 23.1547 11.8785 23.0844 11.8081C23.014 11.7378 22.9187 11.6983 22.8192 11.6983H16.7948C16.6954 11.6983 16.6 11.7378 16.5297 11.8081C16.4593 11.8785 16.4198 11.9739 16.4198 12.0733C16.4198 12.1728 16.4593 12.2682 16.5297 12.3385C16.6 12.4088 16.6954 12.4483 16.7948 12.4483ZM8.20433 14.3728H2.06445C1.965 14.3728 1.86961 14.4123 1.79929 14.4826C1.72896 14.553 1.68945 14.6484 1.68945 14.7478V19.3727C1.68945 19.4721 1.72896 19.5675 1.79929 19.6379C1.86961 19.7082 1.965 19.7477 2.06445 19.7477H8.20433C8.30378 19.7477 8.39917 19.7082 8.46949 19.6379C8.53982 19.5675 8.57933 19.4721 8.57933 19.3727V14.7478C8.57933 14.6484 8.53982 14.553 8.46949 14.4826C8.39917 14.4123 8.30378 14.3728 8.20433 14.3728ZM8.08883 20.1613H2.06445C1.965 20.1613 1.86961 20.2008 1.79929 20.2711C1.72896 20.3415 1.68945 20.4369 1.68945 20.5363C1.68945 20.6358 1.72896 20.7312 1.79929 20.8015C1.86961 20.8718 1.965 20.9113 2.06445 20.9113H8.08883C8.18829 20.9113 8.28367 20.8718 8.35399 20.8015C8.42432 20.7312 8.46383 20.6358 8.46383 20.5363C8.46383 20.4369 8.42432 20.3415 8.35399 20.2711C8.28367 20.2008 8.18829 20.1613 8.08883 20.1613ZM8.08883 21.5019H2.06445C1.965 21.5019 1.86961 21.5414 1.79929 21.6118C1.72896 21.6821 1.68945 21.7775 1.68945 21.8769C1.68945 21.9764 1.72896 22.0718 1.79929 22.1421C1.86961 22.2124 1.965 22.2519 2.06445 22.2519H8.08883C8.18829 22.2519 8.28367 22.2124 8.35399 22.1421C8.42432 22.0718 8.46383 21.9764 8.46383 21.8769C8.46383 21.7775 8.42432 21.6821 8.35399 21.6118C8.28367 21.5414 8.18829 21.5019 8.08883 21.5019ZM15.5697 14.3728H9.42945C9.33 14.3728 9.23462 14.4123 9.16429 14.4826C9.09396 14.553 9.05445 14.6484 9.05445 14.7478V19.3727C9.05445 19.4721 9.09396 19.5675 9.16429 19.6379C9.23462 19.7082 9.33 19.7477 9.42945 19.7477H15.5697C15.6692 19.7477 15.7645 19.7082 15.8349 19.6379C15.9052 19.5675 15.9447 19.4721 15.9447 19.3727V14.7478C15.9447 14.6484 15.9052 14.553 15.8349 14.4826C15.7645 14.4123 15.6692 14.3728 15.5697 14.3728ZM15.4542 20.1613H9.42945C9.33 20.1613 9.23462 20.2008 9.16429 20.2711C9.09396 20.3415 9.05445 20.4369 9.05445 20.5363C9.05445 20.6358 9.09396 20.7312 9.16429 20.8015C9.23462 20.8718 9.33 20.9113 9.42945 20.9113H15.4542C15.5537 20.9113 15.649 20.8718 15.7194 20.8015C15.7897 20.7312 15.8292 20.6358 15.8292 20.5363C15.8292 20.4369 15.7897 20.3415 15.7194 20.2711C15.649 20.2008 15.5537 20.1613 15.4542 20.1613ZM15.4542 21.5019H9.42945C9.33 21.5019 9.23462 21.5414 9.16429 21.6118C9.09396 21.6821 9.05445 21.7775 9.05445 21.8769C9.05445 21.9764 9.09396 22.0718 9.16429 22.1421C9.23462 22.2124 9.33 22.2519 9.42945 22.2519H15.4542C15.5537 22.2519 15.649 22.2124 15.7194 22.1421C15.7897 22.0718 15.8292 21.9764 15.8292 21.8769C15.8292 21.7775 15.7897 21.6821 15.7194 21.6118C15.649 21.5414 15.5537 21.5019 15.4542 21.5019ZM22.9347 14.3728H16.7948C16.6954 14.3728 16.6 14.4123 16.5297 14.4826C16.4593 14.553 16.4198 14.6484 16.4198 14.7478V19.3727C16.4198 19.4721 16.4593 19.5675 16.5297 19.6379C16.6 19.7082 16.6954 19.7477 16.7948 19.7477H22.9347C23.0342 19.7477 23.1295 19.7082 23.1999 19.6379C23.2702 19.5675 23.3097 19.4721 23.3097 19.3727V14.7478C23.3097 14.6484 23.2702 14.553 23.1999 14.4826C23.1295 14.4123 23.0342 14.3728 22.9347 14.3728ZM22.8192 20.1613H16.7948C16.6954 20.1613 16.6 20.2008 16.5297 20.2711C16.4593 20.3415 16.4198 20.4369 16.4198 20.5363C16.4198 20.6358 16.4593 20.7312 16.5297 20.8015C16.6 20.8718 16.6954 20.9113 16.7948 20.9113H22.8192C22.9187 20.9113 23.014 20.8718 23.0844 20.8015C23.1547 20.7312 23.1942 20.6358 23.1942 20.5363C23.1942 20.4369 23.1547 20.3415 23.0844 20.2711C23.014 20.2008 22.9187 20.1613 22.8192 20.1613ZM22.8192 21.5019H16.7948C16.6954 21.5019 16.6 21.5414 16.5297 21.6118C16.4593 21.6821 16.4198 21.7775 16.4198 21.8769C16.4198 21.9764 16.4593 22.0718 16.5297 22.1421C16.6 22.2124 16.6954 22.2519 16.7948 22.2519H22.8192C22.9187 22.2519 23.014 22.2124 23.0844 22.1421C23.1547 22.0718 23.1942 21.9764 23.1942 21.8769C23.1942 21.7775 23.1547 21.6821 23.0844 21.6118C23.014 21.5414 22.9187 21.5019 22.8192 21.5019Z" fill="#666666"/>
</g>
</svg>
