<svg width="25" height="25" viewBox="0 0 25 25" fill="none" xmlns="http://www.w3.org/2000/svg">
<g id="Frame 627859">
<path id="Vector" d="M13.5947 3.04033C13.1846 2.62945 12.6283 2.39856 12.0483 2.39844H4.20482C3.62473 2.39844 3.06839 2.62925 2.65821 3.04009C2.24802 3.45094 2.01758 4.00816 2.01758 4.58918V12.4452C2.0177 13.0262 2.24822 13.5833 2.65844 13.994L11.4074 22.757C11.8176 23.1677 12.3738 23.3984 12.9538 23.3984C13.5338 23.3984 14.09 23.1677 14.5002 22.757L22.3436 14.901C22.7537 14.4902 22.984 13.9331 22.984 13.3522C22.984 12.7712 22.7537 12.2141 22.3436 11.8033L13.5947 3.04033ZM7.48569 10.066C6.90545 10.0659 6.34903 9.83489 5.93885 9.42384C5.52866 9.01279 5.2983 8.45537 5.29844 7.8742C5.29859 7.29303 5.52923 6.73573 5.93962 6.32488C6.35001 5.91404 6.90654 5.68331 7.48678 5.68346C8.06702 5.6836 8.62344 5.91461 9.03362 6.32566C9.44381 6.73671 9.67417 7.29413 9.67403 7.8753C9.67388 8.45646 9.44324 9.01377 9.03285 9.42461C8.62246 9.83546 8.06593 10.0662 7.48569 10.066Z" fill="#666666"/>
</g>
</svg>
