<svg width="21" height="20" viewBox="0 0 21 20" fill="none" xmlns="http://www.w3.org/2000/svg">
<path id="Vector" d="M14.6418 0H7.25991C6.97087 0 6.68182 0.122222 6.48171 0.322222L1.26771 5.53333C1.0676 5.73333 0.945312 6.02222 0.945312 6.31111V13.6778C0.945312 13.9778 1.0676 14.2556 1.26771 14.4667L6.47059 19.6667C6.68182 19.8778 6.97087 20 7.25991 20H14.6307C14.9308 20 15.2088 19.8778 15.42 19.6778L20.6229 14.4778C20.7264 14.3743 20.8082 14.2513 20.8636 14.1158C20.919 13.9803 20.9467 13.8352 20.9453 13.6889V6.31111C20.9453 6.01111 20.823 5.73333 20.6229 5.52222L15.42 0.322222C15.2199 0.122222 14.9308 0 14.6418 0ZM10.9508 15.8889C10.1504 15.8889 9.5056 15.2444 9.5056 14.4444C9.5056 13.6444 10.1504 13 10.9508 13C11.7513 13 12.3961 13.6444 12.3961 14.4444C12.3961 15.2444 11.7513 15.8889 10.9508 15.8889ZM10.9508 11.1111C10.3394 11.1111 9.83912 10.6111 9.83912 10V5.55556C9.83912 4.94444 10.3394 4.44444 10.9508 4.44444C11.5623 4.44444 12.0626 4.94444 12.0626 5.55556V10C12.0626 10.6111 11.5623 11.1111 10.9508 11.1111Z" fill="#474747"/>
</svg>
