<svg width="26" height="26" viewBox="0 0 26 26" fill="none" xmlns="http://www.w3.org/2000/svg">
<g id="XMLID 92">
<path id="XMLID 93" d="M13 0.0742188C6.1075 0.0742188 0.5 5.68172 0.5 12.5742C0.5 19.4667 6.1075 25.0742 13 25.0742C19.8925 25.0742 25.5 19.4667 25.5 12.5742C25.5 5.68172 19.8925 0.0742188 13 0.0742188ZM13 22.8015C7.36068 22.8015 2.77273 18.2135 2.77273 12.5742C2.77273 6.9349 7.36068 2.34695 13 2.34695C18.6393 2.34695 23.2273 6.9349 23.2273 12.5742C23.2273 18.2135 18.6393 22.8015 13 22.8015Z" fill="white"/>
<path id="XMLID 104" d="M16.5613 16.3368C14.6162 18.2976 11.4516 18.2976 9.5066 16.3369C8.99402 15.8201 8.16279 15.8201 7.65013 16.3369C7.13746 16.8537 7.13746 17.6916 7.65013 18.2084C9.13466 19.705 11.0839 20.453 13.034 20.453C14.9835 20.453 16.9337 19.7047 18.4179 18.2084C18.9306 17.6917 18.9306 16.8537 18.4179 16.3369C17.9051 15.82 17.0739 15.8201 16.5613 16.3368Z" fill="white"/>
<path id="XMLID 105" d="M8.66748 11.2035C8.99391 10.8753 9.18032 10.42 9.18032 9.95595C9.18032 9.49187 8.99391 9.03662 8.66748 8.70842C8.34192 8.38021 7.89034 8.19141 7.43001 8.19141C6.96871 8.19141 6.51809 8.38021 6.19244 8.70842C5.8661 9.03662 5.67969 9.49187 5.67969 9.95595C5.67969 10.42 5.8661 10.8753 6.19244 11.2035C6.51809 11.5326 6.96967 11.7205 7.43001 11.7205C7.89034 11.7205 8.34192 11.5326 8.66748 11.2035Z" fill="white"/>
<path id="XMLID 106" d="M18.6331 8.19141C18.1728 8.19141 17.7212 8.38021 17.3956 8.70842C17.0701 9.03662 16.8828 9.49099 16.8828 9.95595C16.8828 10.4209 17.0701 10.8753 17.3956 11.2035C17.7212 11.5326 18.1728 11.7205 18.6331 11.7205C19.0935 11.7205 19.545 11.5326 19.8706 11.2035C20.1962 10.8753 20.3834 10.4209 20.3834 9.95595C20.3834 9.49187 20.1961 9.03662 19.8706 8.70842C19.545 8.38021 19.0935 8.19141 18.6331 8.19141Z" fill="white"/>
</g>
</svg>
