<svg width="30" height="30" viewBox="0 0 30 30" fill="none" xmlns="http://www.w3.org/2000/svg">
<path d="M15 30C23.2842 30 30 23.2842 30 15C30 6.71578 23.2842 0 15 0C6.71578 0 0 6.71578 0 15C0 23.2842 6.71578 30 15 30ZM15 27C8.37258 27 3 21.6274 3 15C3 8.37258 8.37258 3 15 3C21.6274 3 27 8.37258 27 15C27 21.6274 21.6274 27 15 27Z" fill="#4C5BD4"/>
<path d="M12.0188 12.1963C12.0188 9.25236 18.2411 8.51638 17.9818 11.7056C17.9818 13.9136 13.8337 14.8949 13.8337 17.3481V19.0654H16.4263V18.0841C16.4263 15.8762 20.8337 15.1402 20.8337 11.4603C20.3151 6.06311 9.16699 6.06311 9.16699 12.1963H12.0188ZM13.8337 20.0467H16.4263V22.5H13.8337V20.0467Z" fill="#4C5BD4"/>
</svg>
