<svg width="24" height="24" viewBox="0 0 24 24" fill="none" xmlns="http://www.w3.org/2000/svg">
<path d="M17.5 12C18.9587 12 20.3576 12.5795 21.3891 13.6109C22.4205 14.6424 23 16.0413 23 17.5C23 18.9587 22.4205 20.3576 21.3891 21.3891C20.3576 22.4205 18.9587 23 17.5 23C16.0413 23 14.6424 22.4205 13.6109 21.3891C12.5795 20.3576 12 18.9587 12 17.5C12 16.0413 12.5795 14.6424 13.6109 13.6109C14.6424 12.5795 16.0413 12 17.5 12ZM4 12.999L12.81 13C11.6467 14.209 10.9978 15.8222 11 17.5C11 18.587 11.267 19.612 11.739 20.513C10.689 20.863 9.531 21 8.5 21C5.778 21 2.165 20.044 2.005 16.73L2 16.5V14.999C2 14.4686 2.21071 13.9599 2.58579 13.5848C2.96086 13.2097 3.46957 12.999 4 12.999ZM17.5 14.002L17.41 14.01C17.3101 14.0283 17.2181 14.0765 17.1463 14.1483C17.0745 14.2201 17.0263 14.3121 17.008 14.412L17 14.502V17H14.5L14.41 17.008C14.3101 17.0263 14.2181 17.0745 14.1463 17.1463C14.0745 17.2181 14.0263 17.3101 14.008 17.41L14 17.5L14.008 17.59C14.0263 17.6899 14.0745 17.7819 14.1463 17.8537C14.2181 17.9255 14.3101 17.9737 14.41 17.992L14.5 18H17V20.5L17.008 20.59C17.0263 20.6899 17.0745 20.7819 17.1463 20.8537C17.2181 20.9255 17.3101 20.9737 17.41 20.992L17.5 21L17.59 20.992C17.6899 20.9737 17.7819 20.9255 17.8537 20.8537C17.9255 20.7819 17.9737 20.6899 17.992 20.59L18 20.5V18H20.5L20.59 17.992C20.6899 17.9737 20.7819 17.9255 20.8537 17.8537C20.9255 17.7819 20.9737 17.6899 20.992 17.59L21 17.5L20.992 17.41C20.9737 17.3101 20.9255 17.2181 20.8537 17.1463C20.7819 17.0745 20.6899 17.0263 20.59 17.008L20.5 17H18V14.502L17.992 14.412C17.9737 14.3121 17.9255 14.2201 17.8537 14.1483C17.7819 14.0765 17.6899 14.0283 17.59 14.01L17.5 14.002ZM8.5 2C9.09095 2 9.67611 2.1164 10.2221 2.34254C10.768 2.56869 11.2641 2.90016 11.682 3.31802C12.0998 3.73588 12.4313 4.23196 12.6575 4.77792C12.8836 5.32389 13 5.90905 13 6.5C13 7.09095 12.8836 7.67611 12.6575 8.22208C12.4313 8.76804 12.0998 9.26412 11.682 9.68198C11.2641 10.0998 10.768 10.4313 10.2221 10.6575C9.67611 10.8836 9.09095 11 8.5 11C7.30653 11 6.16193 10.5259 5.31802 9.68198C4.47411 8.83807 4 7.69347 4 6.5C4 5.30653 4.47411 4.16193 5.31802 3.31802C6.16193 2.47411 7.30653 2 8.5 2ZM17.5 4C18.4283 4 19.3185 4.36875 19.9749 5.02513C20.6313 5.6815 21 6.57174 21 7.5C21 8.42826 20.6313 9.3185 19.9749 9.97487C19.3185 10.6313 18.4283 11 17.5 11C16.5717 11 15.6815 10.6313 15.0251 9.97487C14.3687 9.3185 14 8.42826 14 7.5C14 6.57174 14.3687 5.6815 15.0251 5.02513C15.6815 4.36875 16.5717 4 17.5 4Z" fill="#4C5BD4"/>
</svg>
