<svg width="19" height="21" viewBox="0 0 19 21" fill="none" xmlns="http://www.w3.org/2000/svg">
<path d="M19 5.5C19 4.04131 18.4205 2.64236 17.3891 1.61091C16.3576 0.579463 14.9587 0 13.5 0C12.0413 0 10.6424 0.579463 9.61091 1.61091C8.57946 2.64236 8 4.04131 8 5.5C8 6.95869 8.57946 8.35764 9.61091 9.38909C10.6424 10.4205 12.0413 11 13.5 11C14.9587 11 16.3576 10.4205 17.3891 9.38909C18.4205 8.35764 19 6.95869 19 5.5ZM14 6L14.001 8.504C14.001 8.63661 13.9483 8.76379 13.8546 8.85755C13.7608 8.95132 13.6336 9.004 13.501 9.004C13.3684 9.004 13.2412 8.95132 13.1474 8.85755C13.0537 8.76379 13.001 8.63661 13.001 8.504V6H10.496C10.3634 6 10.2362 5.94732 10.1424 5.85355C10.0487 5.75979 9.996 5.63261 9.996 5.5C9.996 5.36739 10.0487 5.24021 10.1424 5.14645C10.2362 5.05268 10.3634 5 10.496 5H13V2.5C13 2.36739 13.0527 2.24021 13.1464 2.14645C13.2402 2.05268 13.3674 2 13.5 2C13.6326 2 13.7598 2.05268 13.8536 2.14645C13.9473 2.24021 14 2.36739 14 2.5V5H16.503C16.6356 5 16.7628 5.05268 16.8566 5.14645C16.9503 5.24021 17.003 5.36739 17.003 5.5C17.003 5.63261 16.9503 5.75979 16.8566 5.85355C16.7628 5.94732 16.6356 6 16.503 6H14.001H14Z" fill="#4C5BD4"/>
<path d="M16.5 13V11.268C17.0486 10.9817 17.5537 10.6187 18 10.19V17.75C18 18.1768 17.9159 18.5994 17.7526 18.9937C17.5893 19.388 17.3499 19.7463 17.0481 20.0481C16.7463 20.3499 16.388 20.5893 15.9937 20.7526C15.5994 20.9159 15.1768 21 14.75 21H3.25C2.8232 21 2.40059 20.9159 2.00628 20.7526C1.61197 20.5893 1.25369 20.3499 0.951903 20.0481C0.650112 19.7463 0.410719 19.388 0.247391 18.9937C0.0840637 18.5994 0 18.1768 0 17.75V6.25C0 5.38805 0.34241 4.5614 0.951903 3.9519C1.5614 3.34241 2.38805 3 3.25 3H7.498C7.29724 3.48111 7.15554 3.98479 7.076 4.5H3.25C2.78587 4.5 2.34075 4.68437 2.01256 5.01256C1.68437 5.34075 1.5 5.78587 1.5 6.25V13H6C6.18124 13 6.35634 13.0656 6.49293 13.1848C6.62952 13.3039 6.71835 13.4684 6.743 13.648L6.75 13.75C6.75 14.3467 6.98705 14.919 7.40901 15.341C7.83097 15.7629 8.40326 16 9 16C9.59674 16 10.169 15.7629 10.591 15.341C11.0129 14.919 11.25 14.3467 11.25 13.75C11.25 13.5511 11.329 13.3603 11.4697 13.2197C11.6103 13.079 11.8011 13 12 13H16.5Z" fill="#4C5BD4"/>
</svg>
