<svg width="30" height="30" viewBox="0 0 30 30" fill="none" xmlns="http://www.w3.org/2000/svg">
<circle cx="15" cy="15" r="15" fill="#4C5BD4"/>
<g clip-path="url(#clip0)">
<path d="M15.2955 18.517V18.4391C14.8973 18.4348 14.5164 18.4131 14.1485 18.3828C13.9493 18.8979 13.668 19.3784 13.3174 19.8069C13.9796 19.9151 14.6506 19.9757 15.3215 19.9844L15.2955 18.517Z" fill="white"/>
<path d="M13.5423 15.6522C13.222 14.1198 12.0922 12.8732 10.5902 12.4014C10.1747 12.2759 9.74612 12.2109 9.31326 12.2109C8.23978 12.2153 7.20092 12.6135 6.40879 13.332C4.64706 14.9336 4.52153 17.6649 6.12311 19.4267C7.72468 21.1884 10.456 21.3139 12.2177 19.7124C13.1181 18.8943 13.6332 17.7385 13.6289 16.5222C13.6289 16.2322 13.5986 15.9378 13.5423 15.6522ZM9.31326 15.9422C10.0448 15.9422 10.6898 16.427 10.8889 17.1325C11.1313 18.0026 10.6292 18.9029 9.75478 19.1496V19.5306C9.75478 19.7686 9.55999 19.9634 9.32192 19.9634C9.08385 19.9634 8.88906 19.7686 8.88906 19.5306V19.154C8.17485 18.9592 7.68139 18.3142 7.67706 17.574C7.67706 17.336 7.87185 17.1412 8.10992 17.1412C8.34799 17.1412 8.54278 17.336 8.54278 17.574C8.54278 17.9982 8.88906 18.3402 9.31326 18.3402C9.73746 18.3402 10.0794 17.9939 10.0794 17.5697C10.0794 17.1455 9.73314 16.8036 9.30894 16.8036C8.56875 16.8036 7.92379 16.3058 7.73334 15.5916C7.50392 14.7258 8.02335 13.8255 8.89339 13.5918V13.4056C8.89339 13.1676 9.08818 12.9728 9.32625 12.9728C9.56432 12.9728 9.75911 13.1676 9.75911 13.4056V13.6004C10.4647 13.7995 10.9495 14.4445 10.9495 15.176C10.9495 15.4141 10.7547 15.6089 10.5166 15.6089C10.2785 15.6089 10.0838 15.4141 10.0838 15.176C10.0838 14.7518 9.73746 14.4055 9.31326 14.4055C8.88906 14.4055 8.54711 14.7475 8.54278 15.176C8.54278 15.6002 8.88906 15.9422 9.31326 15.9422Z" fill="white"/>
<path d="M15.2829 17.5704L15.2569 16.0381C14.9885 16.0338 14.7245 16.0251 14.4734 16.0078C14.4864 16.181 14.4951 16.3498 14.4951 16.5186C14.4951 16.8562 14.4604 17.1982 14.3955 17.5315C14.6812 17.5575 14.9799 17.5704 15.2829 17.5704Z" fill="white"/>
<path d="M20.0217 10.4062C19.7231 10.5621 19.4071 10.6876 19.0824 10.7828C18.1085 11.0772 16.8316 11.2373 15.4984 11.2373C14.2215 11.2373 13.0051 11.0902 12.0658 10.8175C11.7412 10.7309 11.4295 10.6097 11.1309 10.4582L11.1612 11.6789C11.6503 11.8607 12.1048 12.1204 12.516 12.445C12.529 12.4493 12.5376 12.4493 12.5506 12.4537C13.3817 12.6658 14.4292 12.7783 15.4984 12.7783C16.7364 12.7783 17.9527 12.6225 18.8314 12.3584C19.7707 12.0728 19.9785 11.7741 19.9785 11.7178C19.9785 11.6572 19.9741 11.6009 20.0217 11.5403V10.4062Z" fill="white"/>
<path d="M18.8274 8.6855C17.9487 8.41712 16.7324 8.26562 15.4944 8.26562C14.2477 8.26562 13.079 8.41712 12.2047 8.6855C11.2913 8.96253 11.0922 9.23523 11.0879 9.3218C11.0879 9.3218 11.0922 9.3218 11.0922 9.33045C11.1139 9.42568 11.3736 9.72003 12.3042 9.9884C13.1656 10.2395 14.2997 10.378 15.4944 10.378C16.7324 10.378 17.9444 10.2265 18.8231 9.96243C19.7624 9.68107 19.9745 9.3824 19.9745 9.3218C19.9745 9.26553 19.7667 8.97118 18.8274 8.6855Z" fill="white"/>
<path d="M24.9917 20.6658V19.3672C24.7017 19.5144 24.3987 19.6399 24.0827 19.7351C23.1131 20.0295 21.8448 20.1896 20.5073 20.1896C19.3213 20.1896 18.1655 20.0554 17.2565 19.8174C16.8843 19.7221 16.525 19.5923 16.1787 19.4235L16.2004 20.6787C16.2004 20.6831 16.2004 20.6831 16.2004 20.6874C16.2004 20.7523 16.3908 21.0423 17.3041 21.3237C18.1699 21.5877 19.3386 21.7349 20.5895 21.7349C21.8362 21.7349 23.0092 21.5834 23.8836 21.3107C24.7969 21.025 24.996 20.7264 24.996 20.6658H24.9917Z" fill="white"/>
<path d="M20.0135 12.8203C19.7148 12.9718 19.4032 13.0973 19.0785 13.1926C18.1046 13.4869 16.8277 13.6471 15.4901 13.6471C14.8322 13.6471 14.1786 13.6038 13.5293 13.5215C13.8799 14.0063 14.1396 14.5518 14.3041 15.1318C14.6764 15.1578 15.0789 15.1751 15.4945 15.1751C15.5075 15.1751 15.5248 15.1751 15.5378 15.1751C16.2476 14.3959 18.1566 14.0063 20.0135 13.9544V12.8203Z" fill="white"/>
<path d="M24.0523 17.3406C23.087 17.6263 21.8317 17.7821 20.5158 17.7821C19.2389 17.7821 18.0226 17.6349 17.0833 17.3622C16.7586 17.2713 16.4426 17.1501 16.1396 16.9986L16.157 17.9942L16.1613 18.3578C16.4989 18.7777 18.1135 19.3187 20.5115 19.3187C21.7625 19.3187 22.9442 19.1716 23.8315 18.9032C24.7665 18.6175 24.9699 18.3232 24.9699 18.2626C24.9699 18.215 24.9959 18.163 24.9959 18.1197H25.0002V16.9727C24.6972 17.1242 24.3813 17.254 24.0523 17.3406Z" fill="white"/>
<path d="M23.8489 15.2393C22.9658 14.971 21.7538 14.8281 20.5159 14.8281H20.4423C19.2909 14.8281 18.1957 14.958 17.356 15.1961C16.46 15.4471 16.1527 15.7328 16.1137 15.8497C16.1094 15.8583 16.1094 15.8627 16.1094 15.867C16.1094 15.867 16.1094 15.867 16.118 15.8843C16.144 15.9752 16.3994 16.2695 17.33 16.5422C18.1914 16.789 19.3255 16.9275 20.5202 16.9275C21.7538 16.9275 22.9226 16.7846 23.8099 16.5206C24.7709 16.2349 24.9873 15.9362 24.9916 15.8713V15.867C24.9873 15.8021 24.7709 15.5164 23.8489 15.2393Z" fill="white"/>
</g>
<defs>
<clipPath id="clip0">
<rect width="20" height="20" fill="white" transform="translate(5 5)"/>
</clipPath>
</defs>
</svg>
