<svg width="25" height="25" viewBox="0 0 25 25" fill="none" xmlns="http://www.w3.org/2000/svg">
<circle cx="12.5" cy="12.5" r="12.5" fill="#4C5BD4"/>
<path d="M14.7321 14.6759C15.3161 14.6759 15.79 15.1498 15.79 15.7338V16.944L15.7852 17.0093C15.5978 18.2951 14.4431 18.913 12.5057 18.913C10.5754 18.913 9.40206 18.3024 9.14877 17.0317L9.1403 16.9428V15.7338C9.1403 15.1498 9.61424 14.6759 10.1982 14.6759H14.7321ZM15.0307 11.0488H18.6615C19.2454 11.0488 19.7194 11.5227 19.7194 12.1067V13.3169L19.7145 13.3822C19.5271 14.668 18.3725 15.2859 16.435 15.2859L16.3335 15.2846C16.2403 14.9533 16.0466 14.6591 15.7792 14.4424C15.5118 14.2258 15.1837 14.0974 14.8403 14.075L14.7321 14.0714H14.1747C14.4906 13.8167 14.7454 13.4944 14.9203 13.1282C15.0952 12.7621 15.1858 12.3614 15.1855 11.9556C15.1855 11.6376 15.1311 11.3329 15.0307 11.0488ZM6.26884 11.0488H9.89958C9.79923 11.3329 9.74482 11.6376 9.74482 11.9556C9.74482 12.7596 10.0942 13.4832 10.6492 13.9807L10.7556 14.0714H10.1982C9.43531 14.0714 8.7921 14.5852 8.59624 15.2865L8.57629 15.2859C6.64606 15.2859 5.47269 14.6753 5.2194 13.4046L5.21094 13.3157V12.1067C5.21094 11.5227 5.68488 11.0488 6.26884 11.0488ZM12.4652 9.83975C13.0263 9.83975 13.5645 10.0627 13.9613 10.4595C14.358 10.8563 14.581 11.3944 14.581 11.9556C14.581 12.5167 14.358 13.0549 13.9613 13.4517C13.5645 13.8485 13.0263 14.0714 12.4652 14.0714C11.904 14.0714 11.3658 13.8485 10.969 13.4517C10.5723 13.0549 10.3493 12.5167 10.3493 11.9556C10.3493 11.3944 10.5723 10.8563 10.969 10.4595C11.3658 10.0627 11.904 9.83975 12.4652 9.83975ZM16.3945 6.21265C16.9557 6.21265 17.4938 6.43556 17.8906 6.83235C18.2874 7.22915 18.5103 7.76731 18.5103 8.32846C18.5103 8.88961 18.2874 9.42777 17.8906 9.82456C17.4938 10.2214 16.9557 10.4443 16.3945 10.4443C15.8334 10.4443 15.2952 10.2214 14.8984 9.82456C14.5016 9.42777 14.2787 8.88961 14.2787 8.32846C14.2787 7.76731 14.5016 7.22915 14.8984 6.83235C15.2952 6.43556 15.8334 6.21265 16.3945 6.21265ZM8.53579 6.21265C9.09693 6.21265 9.6351 6.43556 10.0319 6.83235C10.4287 7.22915 10.6516 7.76731 10.6516 8.32846C10.6516 8.88961 10.4287 9.42777 10.0319 9.82456C9.6351 10.2214 9.09693 10.4443 8.53579 10.4443C7.97464 10.4443 7.43647 10.2214 7.03968 9.82456C6.64289 9.42777 6.41997 8.88961 6.41997 8.32846C6.41997 7.76731 6.64289 7.22915 7.03968 6.83235C7.43647 6.43556 7.97464 6.21265 8.53579 6.21265Z" fill="white"/>
</svg>
