<svg width="80" height="80" viewBox="0 0 80 80" fill="none" xmlns="http://www.w3.org/2000/svg">
<circle cx="40" cy="40" r="39.5" fill="white" stroke="#4C5BD4"/>
<path d="M40.6853 0.0059567C18.5969 -0.371416 0.383334 17.2293 0.00596064 39.3177C-0.208387 51.8419 5.37371 63.0982 14.2616 70.5838C14.8428 70.0766 15.4662 69.6117 16.159 69.2343L28.0946 62.7238C29.6599 61.8695 30.6351 60.2286 30.6351 58.4444V53.5537C30.6351 53.5537 27.1315 49.3633 25.7956 43.5412C24.6877 42.8242 23.945 41.5849 23.945 40.1735V34.8209C23.945 33.6435 24.4688 32.5914 25.2824 31.8547V24.1171C25.2824 24.1171 23.6929 12.0759 40 12.0759C56.307 12.0759 54.7175 24.1171 54.7175 24.1171V31.8547C55.5326 32.5914 56.0549 33.6435 56.0549 34.8209V40.1735C56.0549 41.9729 54.8473 43.4869 53.208 43.9926C52.2948 46.8319 50.977 49.5384 49.235 51.9989C48.7958 52.6193 48.3852 53.1446 48.0259 53.5537V58.5682C48.0259 60.4143 49.069 62.1034 50.7204 62.9276L63.5012 69.3173C64.2681 69.7007 64.9609 70.1853 65.5994 70.7242C74.2186 63.5359 79.7871 52.7884 79.9939 40.6853C80.3743 18.5969 62.7752 0.38333 40.6853 0.0059567Z" fill="#4C5BD4"/>
</svg>
