<svg width="13" height="16" viewBox="0 0 13 16" fill="none" xmlns="http://www.w3.org/2000/svg">
<path d="M11.625 5.62055L11.375 13.1874C11.3537 13.8355 11.0807 14.4497 10.614 14.8998C10.1472 15.3499 9.52342 15.6004 8.87502 15.5981H4.12502C3.47703 15.6004 2.85361 15.3502 2.38692 14.9007C1.92023 14.4512 1.64695 13.8375 1.62502 13.1899L1.37502 5.62055C1.36955 5.45479 1.43015 5.29365 1.54349 5.17257C1.65683 5.05149 1.81363 4.9804 1.97939 4.97493C2.14515 4.96946 2.3063 5.03006 2.42737 5.1434C2.54845 5.25674 2.61955 5.41354 2.62502 5.5793L2.87502 13.1481C2.88747 13.4712 3.02464 13.7769 3.25772 14.001C3.49081 14.2251 3.80167 14.3502 4.12502 14.3499H8.87502C9.19878 14.3501 9.51 14.2247 9.74315 14.0001C9.97631 13.7754 10.1132 13.4691 10.125 13.1456L10.375 5.5793C10.3805 5.41354 10.4516 5.25674 10.5727 5.1434C10.6937 5.03006 10.8549 4.96946 11.0206 4.97493C11.1864 4.9804 11.3432 5.05149 11.4565 5.17257C11.5699 5.29365 11.6305 5.45479 11.625 5.62055ZM12.4519 3.10243C12.4519 3.26819 12.386 3.42716 12.2688 3.54437C12.1516 3.66158 11.9927 3.72743 11.8269 3.72743H1.17377C1.00801 3.72743 0.849035 3.66158 0.731825 3.54437C0.614615 3.42716 0.548767 3.26819 0.548767 3.10243C0.548767 2.93667 0.614615 2.7777 0.731825 2.66049C0.849035 2.54328 1.00801 2.47743 1.17377 2.47743H3.11127C3.3093 2.47796 3.50044 2.4048 3.6475 2.27218C3.79457 2.13955 3.88703 1.95696 3.90689 1.75993C3.95301 1.29773 4.16956 0.86926 4.51433 0.557995C4.8591 0.246731 5.3074 0.0749698 5.77189 0.0761782H7.22814C7.69263 0.0749698 8.14094 0.246731 8.48571 0.557995C8.83048 0.86926 9.04702 1.29773 9.09314 1.75993C9.11301 1.95696 9.20547 2.13955 9.35253 2.27218C9.49959 2.4048 9.69074 2.47796 9.88877 2.47743H11.8263C11.992 2.47743 12.151 2.54328 12.2682 2.66049C12.3854 2.7777 12.4513 2.93667 12.4513 3.10243H12.4519ZM4.99189 2.47743H8.00939C7.92726 2.28977 7.87355 2.09092 7.85002 1.88743C7.83453 1.73337 7.76242 1.59054 7.64764 1.48662C7.53287 1.3827 7.3836 1.32508 7.22877 1.32493H5.77252C5.61768 1.32508 5.46842 1.3827 5.35364 1.48662C5.23887 1.59054 5.16675 1.73337 5.15127 1.88743C5.12754 2.09095 5.07361 2.2898 4.99127 2.47743H4.99189ZM5.62127 11.9468V6.62493C5.62127 6.45917 5.55542 6.3002 5.43821 6.18299C5.321 6.06578 5.16203 5.99993 4.99627 5.99993C4.83051 5.99993 4.67154 6.06578 4.55433 6.18299C4.43712 6.3002 4.37127 6.45917 4.37127 6.62493V11.9493C4.37127 12.1151 4.43712 12.274 4.55433 12.3912C4.67154 12.5085 4.83051 12.5743 4.99627 12.5743C5.16203 12.5743 5.321 12.5085 5.43821 12.3912C5.55542 12.274 5.62127 12.1151 5.62127 11.9493V11.9468ZM8.63002 11.9468V6.62493C8.63002 6.45917 8.56417 6.3002 8.44696 6.18299C8.32975 6.06578 8.17078 5.99993 8.00502 5.99993C7.83926 5.99993 7.68029 6.06578 7.56308 6.18299C7.44587 6.3002 7.38002 6.45917 7.38002 6.62493V11.9493C7.38002 12.1151 7.44587 12.274 7.56308 12.3912C7.68029 12.5085 7.83926 12.5743 8.00502 12.5743C8.17078 12.5743 8.32975 12.5085 8.44696 12.3912C8.56417 12.274 8.63002 12.1151 8.63002 11.9493V11.9468Z" fill="#FF3333"/>
</svg>
