<svg width="15" height="14" viewBox="0 0 15 14" fill="none" xmlns="http://www.w3.org/2000/svg">
<path d="M13.7777 12.683H1.22329C0.965869 12.683 0.748047 12.9008 0.748047 13.1582C0.748047 13.4156 0.965869 13.6335 1.22329 13.6335H13.7777C14.0352 13.6335 14.253 13.4156 14.253 13.1582C14.253 12.9008 14.0352 12.683 13.7777 12.683ZM0.767849 8.52456L0.748047 10.7622C0.748047 10.881 0.787651 11.0196 0.886661 11.0988C0.985671 11.178 1.10448 11.2374 1.22329 11.2374L3.46092 11.2176C3.57973 11.2176 3.69854 11.1582 3.79755 11.079L11.4807 3.39585C11.6589 3.21763 11.6589 2.9008 11.4807 2.72258L9.2629 0.504757C9.08468 0.326539 8.76785 0.326539 8.58963 0.504757L7.04508 2.04931L0.906463 8.18793C0.807453 8.28693 0.767849 8.40575 0.767849 8.52456ZM10.4708 3.05921L9.59953 3.9305L8.05498 2.38595L8.92627 1.51466L10.4708 3.05921ZM1.71834 8.72258L7.38171 3.05921L8.92627 4.60377L3.2629 10.2671H1.71834V8.72258Z" fill="#4C5BD4"/>
</svg>
