<svg width="24" height="24" viewBox="0 0 24 24" fill="none" xmlns="http://www.w3.org/2000/svg">
<path d="M14.9998 12.9998C14.4469 12.9998 13.9999 13.4479 13.9999 13.9997V17.9998C13.9999 18.5508 13.5519 18.9998 12.9998 18.9998H9.99983V3.9999C9.99983 3.14591 9.45583 2.38291 8.63791 2.09892L8.34183 1.99986H12.9998C13.5519 1.99986 13.9999 2.44883 13.9999 2.99997V5.99994C13.9999 6.55182 14.4469 6.99987 14.9998 6.99987C15.5528 6.99987 15.9998 6.55182 15.9998 5.99994V2.99997C15.9998 1.346 14.6538 0 12.9998 0H2.24998C2.21189 0 2.18003 0.0170287 2.14304 0.0219724C2.09489 0.0179442 2.04893 0 2.00004 0C0.897024 0 0 0.896842 0 1.99986V19.9997C0 20.8537 0.544001 21.6167 1.36192 21.9007L7.37999 23.9068C7.58397 23.9697 7.78684 23.9998 7.99998 23.9998C9.10299 23.9998 9.99983 23.1028 9.99983 21.9997V20.9998H12.9998C14.6538 20.9998 15.9998 19.6538 15.9998 17.9998V13.9997C15.9998 13.4479 15.5528 12.9998 14.9998 12.9998Z" fill="#474747"/>
<path d="M23.707 9.29317L19.7069 5.29327C19.4211 5.00726 18.991 4.9212 18.6171 5.07611C18.2441 5.2312 18 5.59612 18 6.00023V9.0002H14.0001C13.4481 9.0002 13 9.44807 13 10.0001C13 10.5522 13.4481 11.0001 14.0001 11.0001H18V14C18 14.4041 18.2441 14.7691 18.6171 14.9241C18.991 15.0791 19.4211 14.993 19.7069 14.7072L23.707 10.7071C24.0979 10.3162 24.0979 9.68409 23.707 9.29317Z" fill="#474747"/>
</svg>
