<svg width="26" height="26" viewBox="0 0 26 26" fill="none" xmlns="http://www.w3.org/2000/svg">
<path d="M13 0C5.83548 0 0 5.83548 0 13C0 20.1645 5.83548 26 13 26C20.1645 26 26 20.1645 26 13C26 5.83548 20.1733 0 13 0ZM13 20.4814C12.2695 20.4814 11.6798 19.8917 11.6798 19.1611C11.6798 18.4306 12.2695 17.8409 13 17.8409C13.7305 17.8409 14.3202 18.4306 14.3202 19.1611C14.3202 19.8917 13.7305 20.4814 13 20.4814ZM14.3202 13.7041C14.3202 14.4347 13.7305 15.0244 13 15.0244C12.2695 15.0244 11.6798 14.4347 11.6798 13.7041V6.75085C11.6798 6.02031 12.2695 5.4306 13 5.4306C13.7305 5.4306 14.3202 6.02031 14.3202 6.75085V13.7041Z" fill="white"/>
</svg>
