<svg width="24" height="26" viewBox="0 0 24 26" fill="none" xmlns="http://www.w3.org/2000/svg">
<path d="M23.2573 18.3205C21.4401 16.9339 20.3994 14.9124 20.3994 12.769V9.74687C20.3994 5.93244 17.2601 2.77829 13.1983 2.25006V1.08186C13.1983 0.482518 12.6582 0 12 0C11.3417 0 10.8016 0.477439 10.8016 1.07678V2.24498C6.73415 2.77829 3.60055 5.93244 3.60055 9.74687V12.769C3.60055 14.9124 2.55977 16.9389 0.736988 18.3306C0.270041 18.6912 0 19.2144 0 19.768C0 20.8143 0.939518 21.6625 2.09845 21.6625H21.9015C23.0604 21.6625 23.9999 20.8143 23.9999 19.768C24.0055 19.2144 23.7355 18.6912 23.2573 18.3205Z" fill="white"/>
<path d="M11.9998 25.9999C14.1714 25.9999 15.9942 24.6032 16.4105 22.7493H7.59477C8.01109 24.6032 9.82824 25.9999 11.9998 25.9999Z" fill="white"/>
</svg>
