<svg width="26" height="26" viewBox="0 0 26 26" fill="none" xmlns="http://www.w3.org/2000/svg">
<path d="M13 26C20.1797 26 26 20.1797 26 13C26 5.8203 20.1797 0 13 0C5.8203 0 0 5.8203 0 13C0 20.1797 5.8203 26 13 26Z" fill="#4C5BD4"/>
<path d="M13.0002 4.99316C8.60374 4.99316 5.03711 8.31231 5.03711 12.4176C5.03711 14.7468 6.20172 16.8286 8.00687 18.197V21.0212L10.7146 19.5217C11.4425 19.7255 12.1995 19.8274 13.0002 19.8274C17.3966 19.8274 20.9632 16.5083 20.9632 12.403C20.9632 8.31231 17.3966 4.99316 13.0002 4.99316ZM13.8008 14.9797L11.7628 12.8106L7.80307 14.9797L12.1704 10.3358L14.2521 12.5049L18.1536 10.3358L13.8008 14.9797Z" fill="white"/>
</svg>
