<svg width="20" height="20" viewBox="0 0 20 20" fill="none" xmlns="http://www.w3.org/2000/svg">
<path d="M14.9226 4.55236L15.5135 3.81754C16.3233 2.81315 16.1591 1.3457 15.1458 0.541323L15.1086 0.510888C14.0975 -0.293493 12.6202 -0.130443 11.8104 0.87612L11.2217 1.60876L14.9226 4.55236Z" fill="#474747"/>
<path d="M11.3267 10.7287C11.3464 10.9069 11.4361 11.0765 11.5871 11.1983C11.8913 11.4396 12.3356 11.3917 12.5786 11.0896L16.6384 6.04587C16.8857 5.73933 16.831 5.28931 16.5137 5.05017C16.2073 4.81973 15.7673 4.88495 15.5266 5.18279L15.1305 5.67411L14.452 5.13496L14.4542 5.13279L10.7555 2.18701L1.29199 13.9375L4.9929 16.8811L13.5744 6.22848L14.2528 6.76763L11.4777 10.2134C11.3552 10.3634 11.307 10.5504 11.3267 10.7287Z" fill="#474747"/>
<path d="M4.37806 17.4249L0.891631 14.6509C0.834727 14.8444 0.806276 15.0139 0.806276 15.0139L0.00743876 18.8141C-0.0494647 19.088 0.230675 19.3119 0.486741 19.1945L4.04539 17.5858C4.04321 17.5858 4.20079 17.5206 4.37806 17.4249Z" fill="#474747"/>
<path d="M19.4934 18.105C19.4627 18.105 19.4343 18.1071 19.4036 18.1115L14.0263 18.8028C13.7505 18.8376 13.5579 18.5376 13.7067 18.3028C13.7877 18.1789 13.8665 18.0528 13.9453 17.9267C14.1532 17.5919 13.8752 17.1462 13.49 17.1462C13.4638 17.1462 13.4375 17.1484 13.4091 17.1528L6.36178 18.205L5.51917 18.3311L3.22115 18.6746C2.96071 18.7137 2.78562 18.9333 2.80751 19.1963C2.81626 19.3137 2.86441 19.4246 2.94101 19.5072C3.03074 19.6051 3.15549 19.6594 3.29119 19.6594C3.31745 19.6594 3.34371 19.6572 3.37216 19.6529L11.772 18.3985C12.0587 18.355 12.2557 18.6768 12.0871 18.9116C12.0324 18.9855 11.9777 19.0616 11.923 19.1355C11.772 19.3398 11.807 19.6812 11.9821 19.8572C12.0718 19.9486 12.1856 19.9964 12.306 19.9964C12.3192 19.9964 12.3345 19.9964 12.3476 19.9942H12.3498H12.352L19.6028 19.0768H19.605H19.6072C19.7319 19.0572 19.8414 18.9855 19.9136 18.8746C19.9924 18.7528 20.0208 18.6028 19.9858 18.4681C19.9289 18.2484 19.7363 18.105 19.4934 18.105Z" fill="#474747"/>
</svg>
