<svg width="22" height="23" viewBox="0 0 22 23" fill="none" xmlns="http://www.w3.org/2000/svg">
<path d="M21.2328 17.4183L9.23174 17.418V17.4183L9.22869 17.418C9.02471 17.4181 8.82911 17.4991 8.68487 17.6434C8.54063 17.7876 8.45956 17.9832 8.45947 18.1872C8.45947 18.2014 8.46286 18.2143 8.46354 18.2282V21.7316H8.46727C8.46727 21.9347 8.54762 22.1295 8.69079 22.2736C8.83396 22.4176 9.02831 22.4992 9.2314 22.5005V22.5008H21.2325V22.5001C21.4356 22.4989 21.6299 22.4173 21.7731 22.2732C21.9163 22.1292 21.9966 21.9343 21.9966 21.7312V18.2211C21.9973 18.2096 22 18.1984 22 18.1869C22 17.9833 21.9192 17.788 21.7754 17.6439C21.6315 17.4998 21.4364 17.4187 21.2328 17.4183Z" fill="#999999"/>
<path d="M4.31395 17.418H0.769222C0.565239 17.4181 0.369637 17.4991 0.225399 17.6434C0.0811615 17.7876 8.98405e-05 17.9832 0 18.1872V21.7312C-1.98074e-08 21.9352 0.0809961 22.1308 0.22518 22.275C0.369364 22.4193 0.564931 22.5004 0.768883 22.5005H4.31327C4.51725 22.5004 4.71286 22.4193 4.85709 22.2751C5.00133 22.1308 5.0824 21.9352 5.08249 21.7312V18.1872C5.08258 18.0862 5.06277 17.9862 5.02419 17.8929C4.9856 17.7996 4.92901 17.7147 4.85763 17.6433C4.78626 17.5719 4.7015 17.5152 4.60821 17.4765C4.51493 17.4379 4.41493 17.418 4.31395 17.418Z" fill="#999999"/>
<path d="M21.2328 8.94565L9.23174 8.94531V8.94565L9.22869 8.94531C9.02471 8.9454 8.82911 9.02647 8.68487 9.17071C8.54063 9.31495 8.45956 9.51055 8.45947 9.71453C8.45947 9.72877 8.46286 9.74166 8.46354 9.75555V13.2589H8.46727C8.46727 13.462 8.54762 13.6569 8.69079 13.8009C8.83396 13.945 9.02831 14.0266 9.2314 14.0278V14.0281H21.2325V14.0275C21.4356 14.0262 21.6299 13.9447 21.7731 13.8006C21.9163 13.6565 21.9966 13.4617 21.9966 13.2586V9.74844C21.9973 9.73691 22 9.72572 22 9.7142C22 9.5106 21.9192 9.31532 21.7754 9.17123C21.6315 9.02714 21.4364 8.94601 21.2328 8.94565Z" fill="#999999"/>
<path d="M4.31395 8.94531H0.769222C0.565239 8.9454 0.369637 9.02647 0.225399 9.17071C0.0811615 9.31495 8.98405e-05 9.51055 0 9.71453V13.2586C-1.98074e-08 13.4625 0.0809961 13.6581 0.22518 13.8024C0.369364 13.9466 0.564931 14.0277 0.768883 14.0278H4.31327C4.51725 14.0277 4.71286 13.9466 4.85709 13.8024C5.00133 13.6582 5.0824 13.4626 5.08249 13.2586V9.71453C5.08258 9.61355 5.06277 9.51354 5.02419 9.42022C4.9856 9.32689 4.92901 9.24209 4.85763 9.17065C4.78626 9.09922 4.7015 9.04254 4.60821 9.00388C4.51493 8.96521 4.41493 8.94531 4.31395 8.94531Z" fill="#999999"/>
<path d="M8.46315 4.81394H8.46688C8.46687 5.01704 8.54723 5.2119 8.6904 5.35595C8.83357 5.50001 9.02792 5.58157 9.23101 5.58282V5.58316H21.2321V5.58249C21.4352 5.58123 21.6295 5.49967 21.7727 5.35561C21.9159 5.21156 21.9962 5.0167 21.9962 4.8136V1.30346C21.9969 1.29193 21.9996 1.28075 21.9996 1.26922C21.9995 1.06556 21.9187 0.870252 21.7748 0.726117C21.6309 0.581982 21.4357 0.500788 21.2321 0.500339V0.5H9.23101V0.500339L9.22796 0.5C9.02398 0.50009 8.82838 0.581161 8.68414 0.725399C8.5399 0.869636 8.45883 1.06524 8.45874 1.26922C8.45874 1.28346 8.46213 1.29634 8.46281 1.31024V4.81394H8.46315Z" fill="#999999"/>
<path d="M4.31395 0.5H0.769222C0.565239 0.50009 0.369637 0.581161 0.225399 0.725399C0.0811614 0.869636 8.98404e-05 1.06524 0 1.26922V4.81326C-1.98074e-08 5.01722 0.0809961 5.21282 0.22518 5.35707C0.369363 5.50131 0.564931 5.5824 0.768882 5.58249H4.31327C4.51725 5.5824 4.71285 5.50132 4.85709 5.35709C5.00133 5.21285 5.0824 5.01725 5.08249 4.81326V1.26922C5.08262 1.16822 5.06284 1.06819 5.02427 0.974851C4.98571 0.881509 4.92911 0.796688 4.85773 0.725241C4.78634 0.653795 4.70157 0.597125 4.60826 0.558476C4.51496 0.519826 4.41494 0.499955 4.31395 0.5Z" fill="#999999"/>
</svg>
